<?xml version="1.0" encoding="UTF-8"?>
<svg id="Layer_2" data-name="Layer 2" xmlns="http://www.w3.org/2000/svg" viewBox="0 0 1349.57 663.42">
  <defs>
    <style>
      .cls-1 {
        fill: #231f20;
      }
    </style>
  </defs>
  <g id="Layer_1-2" data-name="Layer 1">
    <g>
      <path class="cls-1" d="m1038.21,52.61c-16.37-11.39-48.53-14.05-71.81-5.95-23.29,8.1-28.89,23.9-12.51,35.29,16.38,11.39,48.53,14.05,71.81,5.95,23.28-8.1,28.89-23.9,12.51-35.29Z"/>
      <path class="cls-1" d="m1073.94,127.36c16.37,11.39,48.53,14.05,71.81,5.95,23.29-8.1,28.89-23.9,12.51-35.29-16.37-11.39-48.53-14.05-71.81-5.95-23.28,8.1-28.89,23.9-12.51,35.29Z"/>
      <path class="cls-1" d="m1165.74,185.3c16.38,11.39,48.53,14.05,71.81,5.95,23.28-8.1,28.89-23.9,12.51-35.29-16.38-11.39-48.53-14.05-71.81-5.95-23.29,8.1-28.89,23.9-12.51,35.29Z"/>
      <path class="cls-1" d="m1228.26,252.87c16.37,11.39,48.53,14.05,71.81,5.95,23.29-8.1,28.89-23.9,12.51-35.29-16.38-11.39-48.53-14.05-71.81-5.95-23.28,8.1-28.89,23.9-12.51,35.29Z"/>
      <path class="cls-1" d="m1340.19,297.5c-16.38-11.39-48.53-14.05-71.81-5.95-23.28,8.1-28.89,23.9-12.51,35.29,16.37,11.39,48.53,14.05,71.81,5.95,23.29-8.1,28.89-23.9,12.51-35.29Z"/>
      <path class="cls-1" d="m1329.34,371.67c-16.38-11.39-48.53-14.05-71.81-5.95-23.28,8.1-28.89,23.9-12.51,35.29,16.38,11.39,48.53,14.05,71.81,5.95,23.29-8.1,28.89-23.9,12.51-35.29Z"/>
      <path class="cls-1" d="m1283.88,442.48c-16.38-11.39-48.53-14.05-71.81-5.95-23.29,8.1-28.89,23.9-12.51,35.29,16.38,11.39,48.53,14.05,71.81,5.95,23.29-8.1,28.89-23.9,12.51-35.29Z"/>
      <path class="cls-1" d="m1204.98,505.85c-16.38-11.39-48.53-14.05-71.81-5.95-23.28,8.1-28.89,23.9-12.51,35.29,16.37,11.39,48.53,14.05,71.81,5.95,23.29-8.1,28.89-23.9,12.51-35.29Z"/>
      <path class="cls-1" d="m1104.03,555.92c-16.38-11.39-48.53-14.05-71.81-5.95-23.28,8.1-28.89,23.9-12.51,35.29,16.37,11.39,48.53,14.05,71.81,5.95,23.29-8.1,28.89-23.9,12.51-35.29Z"/>
      <path class="cls-1" d="m981.16,594.33c-16.38-11.39-48.53-14.05-71.81-5.95-23.29,8.1-28.89,23.9-12.51,35.29,16.38,11.39,48.53,14.05,71.81,5.95,23.28-8.1,28.89-23.9,12.51-35.29Z"/>
      <path class="cls-1" d="m840.54,616.65c-16.38-11.39-48.53-14.05-71.81-5.95-23.29,8.1-28.89,23.9-12.51,35.29,16.38,11.39,48.53,14.05,71.81,5.95,23.28-8.1,28.89-23.9,12.51-35.29Z"/>
      <path class="cls-1" d="m689.12,623.44c-16.37-11.39-48.53-14.05-71.81-5.95-23.29,8.1-28.89,23.9-12.51,35.29,16.38,11.39,48.53,14.05,71.81,5.95,23.28-8.1,28.89-23.9,12.51-35.29Z"/>
      <path class="cls-1" d="m536,610.68c-16.38-11.39-48.53-14.05-71.81-5.95-23.28,8.1-28.89,23.9-12.51,35.29,16.38,11.39,48.53,14.05,71.81,5.95,23.29-8.1,28.89-23.9,12.51-35.29Z"/>
      <path class="cls-1" d="m390.24,579.44c-16.38-11.39-48.53-14.05-71.81-5.95-23.29,8.1-28.89,23.9-12.51,35.29,16.38,11.39,48.53,14.05,71.81,5.95,23.28-8.1,28.89-23.9,12.51-35.29Z"/>
      <path class="cls-1" d="m266.14,529.72c-16.38-11.39-48.53-14.05-71.81-5.95-23.28,8.1-28.89,23.9-12.51,35.29,16.37,11.39,48.53,14.05,71.81,5.95,23.29-8.1,28.89-23.9,12.51-35.29Z"/>
      <path class="cls-1" d="m173.42,466.59c-16.37-11.39-48.53-14.05-71.81-5.95-23.28,8.1-28.89,23.9-12.51,35.29,16.37,11.39,48.53,14.05,71.81,5.95,23.29-8.1,28.89-23.9,12.51-35.29Z"/>
      <path class="cls-1" d="m114.11,396.52c-16.38-11.39-48.53-14.05-71.81-5.95-23.28,8.1-28.89,23.9-12.51,35.29,16.37,11.39,48.53,14.05,71.81,5.95,23.29-8.1,28.89-23.9,12.51-35.29Z"/>
      <path class="cls-1" d="m81.2,357.71c23.28-8.1,28.89-23.9,12.51-35.29-16.38-11.39-48.53-14.05-71.81-5.95-23.29,8.1-28.89,23.9-12.51,35.29,16.38,11.39,48.53,14.05,71.81,5.95Z"/>
      <path class="cls-1" d="m26.83,278.77c16.38,11.39,48.53,14.05,71.81,5.95,23.28-8.1,28.89-23.9,12.51-35.29-16.38-11.39-48.53-14.05-71.81-5.95-23.29,8.1-28.89,23.9-12.51,35.29Z"/>
      <path class="cls-1" d="m79.25,208.17c16.37,11.39,48.53,14.05,71.81,5.95,23.29-8.1,28.89-23.9,12.51-35.29-16.38-11.39-48.53-14.05-71.81-5.95-23.28,8.1-28.89,23.9-12.51,35.29Z"/>
      <path class="cls-1" d="m161.45,147.07c16.38,11.39,48.53,14.05,71.81,5.95,23.28-8.1,28.89-23.9,12.51-35.29-16.37-11.39-48.53-14.05-71.81-5.95-23.29,8.1-28.89,23.9-12.51,35.29Z"/>
      <path class="cls-1" d="m264.43,100.42c16.37,11.39,48.53,14.05,71.81,5.95,23.29-8.1,28.89-23.9,12.51-35.29-16.37-11.39-48.53-14.05-71.81-5.95-23.28,8.1-28.89,23.9-12.51,35.29Z"/>
      <path class="cls-1" d="m469.19,36.58c-16.38-11.39-48.53-14.05-71.81-5.95-23.29,8.1-28.89,23.9-12.51,35.29,16.38,11.39,48.53,14.05,71.81,5.95,23.28-8.1,28.89-23.9,12.51-35.29Z"/>
      <path class="cls-1" d="m608.36,15.1c-16.37-11.39-48.53-14.05-71.81-5.95-23.29,8.1-28.89,23.9-12.51,35.29,16.37,11.39,48.53,14.05,71.81,5.95,23.28-8.1,28.89-23.9,12.51-35.29Z"/>
      <path class="cls-1" d="m760.85,10.64c-16.37-11.39-48.53-14.05-71.81-5.95-23.28,8.1-28.89,23.9-12.51,35.29,16.37,11.39,48.53,14.05,71.81,5.95,23.28-8.1,28.89-23.9,12.51-35.29Z"/>
      <path class="cls-1" d="m906.78,24.15c-16.38-11.39-48.53-14.05-71.81-5.95-23.28,8.1-28.89,23.9-12.51,35.29,16.38,11.39,48.53,14.05,71.81,5.95,23.29-8.1,28.89-23.9,12.51-35.29Z"/>
    </g>
  </g>
</svg>