<?xml version="1.0" encoding="UTF-8"?>
<svg id="Layer_2" data-name="Layer 2" xmlns="http://www.w3.org/2000/svg" viewBox="0 0 1101.42 1097.89">
  <defs>
    <style>
      .cls-1 {
        fill: #231f20;
      }
    </style>
  </defs>
  <g id="Layer_1-2" data-name="Layer 1">
    <g>
      <circle class="cls-1" cx="1053.43" cy="640.5" r="42.09"/>
      <path class="cls-1" d="m1017.24,713.35c-14.02,0-26.36,6.93-34.01,17.47,23.79-56.7,36.3-118.1,36.3-181.44,0-5.18-.21-10.33-.38-15.49,5.16,17.41,21.09,30.19,40.18,30.19,23.25,0,42.09-18.85,42.09-42.09s-18.85-42.09-42.09-42.09c-20.43,0-37.44,14.56-41.26,33.87-2.11-28.23-6.65-55.96-13.65-82.93,7.6,10.95,20.23,18.16,34.57,18.16,23.25,0,42.09-18.85,42.09-42.09s-18.85-42.09-42.09-42.09-41.21,18.12-41.95,40.72c-8.88-27.66-20.28-54.41-34.19-79.94,7.36,6.32,16.81,10.27,27.27,10.27,23.25,0,42.09-18.85,42.09-42.09s-18.85-42.09-42.09-42.09-42.09,18.85-42.09,42.09c0,2.72.31,5.36.8,7.93-14.98-23.98-32.14-46.77-51.55-68.03,5.48,2.61,11.54,4.19,18.01,4.19,23.25,0,42.09-18.85,42.09-42.09s-18.85-42.09-42.09-42.09-42.09,18.85-42.09,42.09c0,6.03,1.32,11.74,3.6,16.92-20.92-20.28-43.35-38.47-67.12-54.29,3.17.76,6.43,1.27,9.83,1.27,23.25,0,42.09-18.85,42.09-42.09s-18.85-42.09-42.09-42.09-42.09,18.85-42.09,42.09c0,10.33,3.86,19.66,10.04,26.99-25.6-15.03-52.49-27.58-80.4-37.43,22.65-.68,40.84-19.15,40.84-41.97s-18.85-42.09-42.09-42.09-42.09,18.85-42.09,42.09c0,13.81,6.74,25.95,17,33.62-27.78-7.98-56.39-13.45-85.59-16.19,17.95-4.81,31.23-21.03,31.23-40.5,0-23.25-18.85-42.09-42.09-42.09s-42.09,18.85-42.09,42.09c0,17.46,10.63,32.43,25.77,38.81-5.75-.21-11.51-.42-17.3-.42-23.99,0-47.69,1.82-70.98,5.34,14.37-6.7,24.4-21.17,24.4-38.07,0-23.25-18.85-42.09-42.09-42.09s-42.09,18.85-42.09,42.09c0,22.05,17.01,39.93,38.58,41.74-30.35,6.02-59.87,15.03-88.23,26.84,9.22-7.72,15.21-19.17,15.21-32.14,0-23.25-18.85-42.09-42.09-42.09s-42.09,18.85-42.09,42.09,18.85,42.09,42.09,42.09c2.03,0,3.97-.32,5.92-.6-25.44,12.11-49.78,26.64-72.82,43.33,5.02-6.93,8.07-15.38,8.07-24.6,0-23.25-18.85-42.09-42.09-42.09s-42.09,18.85-42.09,42.09,18.85,42.09,42.09,42.09c5.22,0,10.17-1.07,14.78-2.81-13.2,10.63-25.95,21.96-38.11,34.12-9.14,9.14-17.74,18.66-26.03,28.4,2.49-5.37,3.97-11.3,3.97-17.61,0-23.25-18.85-42.09-42.09-42.09s-42.09,18.85-42.09,42.09,18.85,42.09,42.09,42.09c9.46,0,18.11-3.24,25.14-8.51-19.38,24.91-36.07,51.48-49.89,79.39.41-2.36.73-4.76.73-7.23,0-23.25-18.85-42.09-42.09-42.09s-42.09,18.85-42.09,42.09,18.85,42.09,42.09,42.09c13.04,0,24.56-6.06,32.28-15.37-11.61,26.47-20.74,53.99-27.25,82.31-2.11-21.28-19.84-37.96-41.68-37.96-23.25,0-42.09,18.85-42.09,42.09s18.85,42.09,42.09,42.09c15.94,0,29.64-8.96,36.78-22.02-4.56,26.06-7.03,52.65-7.15,79.64-5.64-16.61-21.18-28.63-39.69-28.63-23.25,0-42.09,18.85-42.09,42.09s18.85,42.09,42.09,42.09c19.12,0,35.07-12.82,40.2-30.28,1.33,27.48,5.14,54.48,11.08,80.86-7.21-12.83-20.79-21.6-36.56-21.6-23.25,0-42.09,18.85-42.09,42.09s18.85,42.09,42.09,42.09,41.36-18.25,41.98-40.95c7.76,28.09,18.11,55.32,30.97,81.4-7.53-7.06-17.59-11.47-28.72-11.47-23.25,0-42.09,18.85-42.09,42.09s18.85,42.09,42.09,42.09,42.09-18.85,42.09-42.09c0-2.3-.32-4.51-.68-6.7,14.64,25.78,31.8,50.26,51.37,73.15-6.32-3.79-13.63-6.1-21.53-6.1-23.25,0-42.09,18.85-42.09,42.09s18.85,42.09,42.09,42.09,42.09-18.85,42.09-42.09c0-6.29-1.47-12.2-3.95-17.56,2.87,3.02,5.67,6.1,8.62,9.06,18.99,18.99,39.39,36.03,60.85,51.27-5.09-2.18-10.68-3.41-16.57-3.41-23.25,0-42.09,18.85-42.09,42.09s18.85,42.09,42.09,42.09,42.09-18.85,42.09-42.09c0-11.42-4.59-21.74-11.97-29.33,27.81,18.32,57.39,33.45,88.25,45.35-2.57-.49-5.2-.8-7.91-.8-23.25,0-42.09,18.85-42.09,42.09s18.85,42.09,42.09,42.09,42.09-18.85,42.09-42.09c0-15.76-8.76-29.33-21.58-36.54,31.02,10.94,63.28,18.5,96.34,22.69-20.11,3.17-35.53,20.43-35.53,41.43,0,23.25,18.85,42.09,42.09,42.09s42.09-18.85,42.09-42.09c0-17.9-11.22-33.1-26.98-39.18,12.67,1.02,25.42,1.66,38.28,1.66,22.73,0,45.2-1.65,67.3-4.81-18.86,4.17-32.98,20.93-32.98,41.04,0,23.25,18.85,42.09,42.09,42.09s42.09-18.85,42.09-42.09-18.85-42.09-42.09-42.09c-1.97,0-3.85.32-5.74.58,98.41-14.79,189.21-60.38,260.89-132.05,39.43-39.43,70.92-84.67,93.78-133.76-.53,2.67-.83,5.43-.83,8.26,0,23.25,18.85,42.09,42.09,42.09s42.09-18.85,42.09-42.09-18.85-42.09-42.09-42.09Zm-168.69,133.95c-79.58,79.58-185.38,123.4-297.92,123.4s-218.34-43.83-297.92-123.4c-79.58-79.58-123.4-185.38-123.4-297.92s43.82-218.34,123.4-297.92,185.38-123.4,297.92-123.4,218.34,43.82,297.92,123.4c79.58,79.58,123.4,185.38,123.4,297.92s-43.83,218.34-123.4,297.92Z"/>
      <path class="cls-1" d="m954.8,820.61c-23.25,0-42.09,18.85-42.09,42.09s18.85,42.09,42.09,42.09,42.09-18.85,42.09-42.09-18.85-42.09-42.09-42.09Z"/>
      <path class="cls-1" d="m864.95,910.3c-23.25,0-42.09,18.85-42.09,42.09s18.85,42.09,42.09,42.09,42.09-18.85,42.09-42.09-18.85-42.09-42.09-42.09Z"/>
      <path class="cls-1" d="m753.44,977.4c-23.25,0-42.09,18.85-42.09,42.09s18.85,42.09,42.09,42.09,42.09-18.85,42.09-42.09-18.85-42.09-42.09-42.09Z"/>
    </g>
  </g>
</svg>