<?xml version="1.0" encoding="UTF-8"?>
<svg id="Layer_2" data-name="Layer 2" xmlns="http://www.w3.org/2000/svg" viewBox="0 0 1226.05 1157.15">
  <defs>
    <style>
      .cls-1 {
        fill: #231f20;
      }
    </style>
  </defs>
  <g id="Layer_1-2" data-name="Layer 1">
    <g>
      <path class="cls-1" d="m720.4,1087.81l-124.43-246.03-157.4,244.2,23.3-280.42-259.58,142.28,165.7-239.86-291.52,1.61,263.87-134.16-244.73-138.87,290.43,7.69-133.03-241.49,238.98,146.6,13.67-280.03,124.43,246.03,157.4-244.2-23.3,280.42,259.58-142.28-165.7,239.86,291.52-1.61-263.87,134.16,244.73,138.87-290.43-7.69,133.03,241.49-238.98-146.6-13.67,280.03Zm-122.15-289.74l104.43,206.48,11.45-234.54,200.16,122.79-111.65-202.67,241.32,6.39-204.19-115.86,218-110.84-241.35,1.33,137.18-198.57-214.46,117.55,19.44-233.96-130.79,202.91-104.43-206.48-11.45,234.54-200.16-122.79,111.65,202.67-241.32-6.39,204.19,115.86-218,110.84,241.35-1.33-137.19,198.57,214.46-117.55-19.44,233.96,130.79-202.9Z"/>
      <path class="cls-1" d="m735.16,1157.15l-141.09-278.97-179.57,278.59,26.51-319.11-297.16,162.88,189.45-274.23-333.31,1.84,302.07-153.58L23.57,416.53l331.33,8.78L204.06,151.48l271.32,166.44L490.89,0l141.09,278.97L811.55.38l-26.52,319.11,297.16-162.88-189.45,274.23,333.3-1.84-302.07,153.58,278.5,158.03-331.33-8.78,150.84,273.82-271.31-166.44-15.52,317.92Zm-135.01-395.47l87.77,173.54,9.6-196.65,167.82,102.95-93.84-170.34,200.42,5.31-170.42-96.7,179.81-91.42-199.56,1.1,113.43-164.2-176.88,96.95,16.22-195.27-108.62,168.52-87.77-173.54-9.6,196.65-167.82-102.95,93.84,170.34-200.42-5.31,170.42,96.7-179.81,91.42,199.57-1.1-113.44,164.2,176.88-96.95-16.22,195.27,108.62-168.51Z"/>
    </g>
  </g>
</svg>