<?xml version="1.0" encoding="UTF-8"?>
<svg id="Layer_2" data-name="Layer 2" xmlns="http://www.w3.org/2000/svg" viewBox="0 0 1137.64 1144.11">
  <defs>
    <style>
      .cls-1 {
        fill: #231f20;
      }
    </style>
  </defs>
  <g id="Layer_1-2" data-name="Layer 1">
    <path class="cls-1" d="m1095.74,627.86l-56.06-56.06,55.56-55.56c26.98-26.98,41.84-62.91,41.84-101.16s-14.86-74.18-41.84-101.16L830.17,48.86c-27.02-27.02-62.94-41.9-101.16-41.9s-74.14,14.88-101.16,41.9l-55.56,55.56-62.59-62.59c-55.78-55.78-146.54-55.78-202.32,0L42.33,306.9C15.35,333.88.49,369.8.49,408.05s14.86,74.18,41.84,101.16l62.59,62.59-63.09,63.09c-55.78,55.78-55.78,146.54,0,202.32l265.06,265.06c26.98,26.98,62.91,41.84,101.16,41.84s74.18-14.86,101.16-41.84l63.09-63.09,56.06,56.06c27.02,27.02,62.94,41.9,101.16,41.9s74.14-14.88,101.16-41.9l265.06-265.06c27.02-27.02,41.9-62.94,41.9-101.16s-14.88-74.14-41.9-101.16Zm-366.22,442.6c-20.4,0-39.58-7.95-54.01-22.37l-56.06-56.06,373.08-373.08,56.06,56.06c14.4,14.4,22.33,33.58,22.33,54.01s-7.93,39.61-22.33,54.01l-265.06,265.06c-14.42,14.43-33.61,22.37-54.01,22.37Zm-321.46,6.99c-20.43,0-39.61-7.93-54.01-22.33L88.98,790.05c-29.78-29.78-29.78-78.24,0-108.02l63.09-63.09,373.08,373.08-63.09,63.09c-14.4,14.4-33.58,22.33-54.01,22.33Zm-255.98-552.8h0s-62.59-62.59-62.59-62.59c-29.78-29.78-29.78-78.24,0-108.02L354.54,88.98c14.4-14.4,33.58-22.33,54.01-22.33s39.61,7.93,54.01,22.33l62.59,62.59-373.08,373.08h0ZM729.01,73.64c20.4,0,39.58,7.95,54.01,22.37l265.06,265.06c14.4,14.4,22.33,33.58,22.33,54.01s-7.93,39.61-22.33,54.01l-55.56,55.56h0s-373.08-373.08-373.08-373.08l55.56-55.56c14.43-14.43,33.61-22.37,54.01-22.37Zm216.36,498.16l-373.08,373.08-373.08-373.08,373.08-373.08,373.08,373.08Z"/>
  </g>
</svg>