<?xml version="1.0" encoding="UTF-8"?>
<svg id="b" data-name="Layer 2" xmlns="http://www.w3.org/2000/svg" width="52.718" height="51.307" viewBox="0 0 52.718 51.307">
  <g id="c" data-name="Layer 1">
    <g>
      <path d="M.792,22.172c.66-.692,1.453-1.257,2.334-1.707,.761-.39,1.565-.686,2.377-.967,.293-.101,.366-.239,.219-.509-.063-.116-.112-.239-.173-.357-.619-1.198-.607-2.333,.097-3.425,.765-1.186,2.052-1.511,3.366-1.807,.025-.006,.054-.003,.08,.004,.916,.266,1.782-.079,2.82,.054-.218-.446-.377-.77-.536-1.095-.39-.798-.607-1.604-.449-2.474,.189-1.043,.541-1.316,1.665-1.209,1.161,.111,2.165,.651,3.175,1.183,.475,.25,.951,.5,1.575,.828-.256-.666-.544-1.139-.813-1.621-.548-.985-.946-2.001-.901-3.116,.019-.472,.229-.781,.608-1.059,1.225-.896,3.353-.484,4.287,.276,.475,.386,.936,.789,1.389,1.172,.246-.12,.202-.31,.23-.482,.259-1.627,.555-3.213,1.717-4.509,1.562-1.744,3.787-1.648,5.295-.58,1.654,1.172,2.414,2.742,2.045,4.694-.074,.393-.375,.768-.214,1.218,.095,.002,.161,.024,.191,.002,.185-.134,.365-.274,.542-.418,1.53-1.246,3.199-2.287,5.152-2.867,1.429-.424,2.812-.339,4.07,.741,1.708,1.466,2.088,3.602,.447,5.284-.506,.518-1.072,.972-1.626,1.463,.246,.201,.45,.093,.641,.062,.782-.126,1.561-.266,2.341-.402,1.118-.195,2.243-.349,3.388-.416,1.446-.085,2.818,.344,4.181,.766,.578,.179,1.145,.485,1.605,.933,1.17,1.142,.952,2.896,.009,3.991-.853,.991-1.955,1.68-3.163,2.234-1.848,.849-3.825,1.355-5.844,1.757-.164,.033-.389-.018-.472,.258,.283,.175,.565,.375,.87,.532,.831,.43,1.532,1.027,2.207,1.646,.804,.737,1.486,1.562,1.78,2.608,.218,.778,.121,1.489-.431,2.062-.387,.402-.867,.699-1.42,.891-1.396,.485-2.841,.49-4.328,.209-1.292-.244-2.533-.685-3.842-1.137,.017,.36,.203,.591,.341,.835,.447,.792,.794,1.621,.922,2.496,.23,1.574-.637,2.659-2.174,2.838-.009,.001-.018,0-.027,.001,2.779,3.817,4.614,7.823,6.203,14.474,.387,1.619-.625,3.335-2.228,3.706h-.005c-1.423,.331-2.743-.546-3.088-1.981-1.822-7.586-4.849-12.153-7.471-15.253-.003,.02-.002,.04-.006,.061-.13,.847-.451,1.615-1.124,2.162-1.046,.849-2.778,.705-3.896-.283-.528-.467-.993-.985-1.391-1.56-.134-.194-.221-.472-.53-.532-.03,.092-.052,.137-.059,.186-.299,1.914-.752,3.749-2.058,5.267-.873,1.015-1.942,1.618-3.338,1.709-1.548,.102-2.797-.575-3.434-1.922-.717-1.517-1.128-3.098-.898-4.744,.039-.279,.163-.574,.033-.86-.273-.065-.367,.123-.509,.216-.928,.607-1.925,1.077-3.038,1.341-1.938,.459-4.371-.176-5.63-1.772-.495-.627-.709-1.308-.626-2.04,.103-.907,.278-1.798,.788-2.579,.127-.195,.331-.384,.264-.693-.262-.079-.516-.166-.775-.231-1.368-.343-2.402-1.127-3.089-2.311-.75-1.295-.495-2.361,.347-3.244Zm.73,.837c-.205,.608-.066,.982,.56,1.279,1.026,.487,2.119,.685,3.218,.588,1.819-.159,3.517-.639,5.02-1.607,.709-.457,1.467-.847,2.204-1.264,.134-.076,.271-.157,.42-.198,.236-.066,.481-.084,.622,.197,.134,.265-.07,.376-.244,.478-.953,.557-1.907,1.112-2.868,1.657-1.709,.971-3.184,2.177-4.398,3.694-.424,.53-.802,1.092-1.245,1.609-.51,.595-.76,1.302-.592,2.122,.203,.989,.929,1.56,1.966,1.496,.882-.054,1.712-.277,2.484-.67,1.486-.756,2.731-1.79,3.829-2.985,.99-1.077,1.882-2.23,2.646-3.474,.039-.064,.078-.131,.13-.185,.155-.161,.352-.227,.571-.111,.216,.115,.296,.302,.224,.528-.275,.862-.544,1.725-.826,2.584-.86,2.618-1.449,5.287-1.178,8.121,.042,.438,.094,.872,.36,1.264,.316,.468,.767,.678,1.315,.564,.928-.194,1.527-.808,2.054-1.494,.681-.886,1.189-1.866,1.539-2.927,.284-.862,.416-1.76,.482-2.67,.097-1.346,.099-2.698-.055-4.054-.036-.316,.047-.605,.063-.907,.018-.34,.314-.443,.623-.259,.23,.137,.315,.355,.384,.585,.545,1.803,1.203,3.57,2.077,5.271,.339,.661,.707,1.309,1.352,1.761,.712,.5,.99,.466,1.601-.075,.358-.317,.552-.716,.704-1.146,.588-1.659,.578-3.373,.21-5.128-.192-.917-.495-1.809-.751-2.712-.043-.15-.104-.298-.134-.45-.033-.164,.02-.309,.184-.377,.153-.063,.329-.056,.452,.064,.152,.149,.279,.324,.399,.5,1.01,1.484,2.095,2.916,3.286,4.278,.067,.076,.125,.158,.192,.233,.813,.915,1.779,1.645,2.79,2.329,.459,.311,.997,.445,1.521,.544,.311,.058,.593,.028,.842-.061,.558-.199,.93-.726,.948-1.443,.023-.924-.314-1.776-.798-2.585-.935-1.565-2.179-2.904-3.48-4.2-.476-.475-.979-.925-1.464-1.392-.135-.13-.279-.265-.369-.422-.143-.249,.034-.472,.325-.416,.155,.03,.311,.099,.452,.177,.716,.393,1.454,.74,2.165,1.027,1.165,.57,2.256,1.18,3.44,1.596,1.88,.66,3.774,1.159,5.756,1.045,.592-.034,1.154-.153,1.676-.399,.708-.334,.978-.961,.723-1.708-.075-.22-.182-.445-.327-.63-.76-.969-1.699-1.719-2.895-2.124-2.103-.713-4.274-1.073-6.437-1.463-1.041-.188-2.029-.558-3.035-.866-.152-.047-.302-.13-.432-.225-.158-.116-.278-.28-.206-.471,.077-.203,.278-.208,.47-.162,1.641,.395,3.258,.203,4.862,.055,2.619-.242,5.215-.617,7.661-1.491,1.55-.554,2.995-1.28,4.092-2.497,.349-.387,.6-.801,.617-1.342,.019-.58-.142-.807-.732-.921-.719-.138-1.449-.196-2.161-.138-2.727,.224-5.443,.493-8.088,1.121-1.532,.364-3.079,.682-4.594,1.102-.126,.035-.256,.063-.387,.08-.258,.034-.51-.017-.593-.289-.079-.26,.148-.347,.354-.408,1.065-.32,1.965-.903,2.857-1.504,1.286-.867,2.33-1.957,3.138-3.246,.319-.509,.531-1.089,.53-1.715-.002-.983-.651-1.664-1.678-1.8-.947-.125-1.795,.108-2.59,.517-1.844,.949-3.444,2.184-4.802,3.698-.487,.543-.999,1.066-1.427,1.657-.071,.098-.192,.165-.3,.232-.16,.1-.336,.148-.519,.012-.181-.134-.18-.3-.126-.486,.194-.677,.418-1.347,.559-2.037,.286-1.397,.397-2.808-.089-4.243-.12-.355-.287-.688-.536-.968-.823-.924-1.644-1.174-2.622-.378-1.306,1.064-1.969,2.459-2.126,4.116-.096,1.009-.184,2.02-.273,3.03-.009,.101,.021,.21-.004,.305-.059,.221-.131,.45-.412,.493-.295,.045-.45-.154-.56-.373-.262-.52-.501-1.049-.764-1.568-.594-1.172-1.447-2.097-2.721-2.635-.304-.128-.61-.211-.924-.29-.845-.214-1.25,.221-1.284,1.066-.022,.538,.169,1.065,.392,1.579,.441,1.019,1.069,1.955,1.542,2.958,.14,.296,.475,.643,.164,.914-.335,.292-.673-.029-.997-.234-.893-.565-1.737-1.203-2.703-1.659-.497-.235-1.015-.381-1.529-.541-.275-.086-.584-.097-.872-.019-.506,.137-.61,.36-.411,.847,.267,.653,.742,1.164,1.266,1.637,.681,.614,1.387,1.2,2.14,1.732,.259,.183,.629,.397,.496,.725-.143,.353-.532,.156-.846,.112-.653-.091-1.304-.431-1.967-.154-.06,.025-.157-.016-.234-.036-1.906-.497-3.698-.203-5.444,.403-.121,.042-.231,.115-.338,.184-.897,.581-.799,1.281-.217,1.849,.423,.413,.919,.66,1.471,.822,1.259,.368,2.536,.492,3.824,.473,.371-.005,.746-.042,1.116,.06,.155,.043,.309,.135,.309,.322,0,.179-.122,.27-.294,.296-.156,.023-.316,.035-.475,.043-1.546,.086-3.062,.272-4.474,.866-.695,.292-1.447,.447-2.197,.595-1.282,.253-2.439,.757-3.493,1.458-.493,.328-.937,.709-1.131,1.284Z"/>
      <path d="M25.535,13.24c2.222,.545,2.93,2.705,1.809,4.56-.536,1.113-1.371,1.926-2.387,2.539-2.09,1.263-4.259,1.896-6.568,1.275-1.248-.336-2.673-1.624-2.114-3.704,.208-.774,.626-1.447,1.197-2.024,2.336-2.357,5.035-3.39,8.062-2.646Zm-6.073,7.433c.069,.038,.139,.073,.208,.11,.569,.341,1.204,.374,1.846,.22,1.303-.314,2.53-.845,3.596-1.764,.629-.542,.977-1.23,.998-2.059,.026-1.004-.547-1.594-1.51-1.553-.592,.025-1.169,.204-1.732,.413-1.342,.499-2.602,1.168-3.633,2.262-.844,.895-.754,1.821,.226,2.37Z"/>
    </g>
  </g>
</svg>