<?xml version="1.0" encoding="UTF-8"?>
<svg id="b" data-name="Layer 2" xmlns="http://www.w3.org/2000/svg" width="43.911" height="45.876" viewBox="0 0 43.911 45.876">
  <g id="c" data-name="Layer 1">
    <path d="M3.03,36.05c.653-.038,1.283,.084,1.882,.317,.905,.353,1.802,.731,2.689,1.127,.78,.348,1.404,.918,1.993,1.522,.419,.43,.88,.802,1.356,1.166,.837,.639,1.77,.918,2.801,.765,1.67-.248,3.198,.204,4.692,.867,.485,.215,.958,.455,1.443,.671,.988,.439,2.005,.551,3.034,.171,1.244-.459,2.548-.522,3.846-.637,.418-.037,.839-.076,1.248-.165,.929-.2,1.761-.612,2.406-1.319,.92-1.008,1.988-1.815,3.168-2.49,1.262-.721,2.203-1.758,2.907-3.022,.359-.645,.615-1.302,.639-2.063,.04-1.301,.567-2.439,1.329-3.477,.497-.677,1.007-1.346,1.482-2.039,.441-.643,.74-1.352,.893-2.125,.098-.495,.044-.965-.125-1.429-.083-.228-.165-.458-.269-.677-.417-.872-.587-1.782-.611-2.755-.035-1.433-.062-2.873-.333-4.291-.185-.97-.516-1.876-1.144-2.651-.679-.839-1.159-1.772-1.413-2.823-.057-.235-.151-.462-.233-.69-.348-.971-.971-1.674-1.968-2.008-.733-.245-1.466-.492-2.202-.731-1.479-.479-2.707-1.322-3.585-2.604-.725-1.06-1.711-1.464-2.947-1.448-1.281,.017-2.489,.351-3.679,.776-1.042,.372-2.046,.837-3.034,1.332-1.227,.614-2.521,.931-3.886,1.004-1.525,.082-2.754,.728-3.683,1.949-.499,.655-.918,1.36-1.256,2.104-.644,1.418-1.578,2.603-2.757,3.607-.051,.043-.096,.092-.149,.132-1.393,1.058-2.082,2.469-2.176,4.21-.052,.963-.446,1.841-.852,2.704-.323,.687-.546,1.389-.511,2.169,.055,1.202,.449,2.237,1.323,3.085,.87,.844,1.85,1.504,3.002,1.897,.209,.071,.412,.158,.617,.24,.889,.354,1.444,.978,1.622,1.939,.096,.52,.23,1.033,.485,1.509,.299,.558,.735,.935,1.341,1.106,.383,.108,.772,.192,1.156,.295,1.674,.449,3.088,1.294,4.144,2.697,.252,.335,.526,.656,.816,.959,1.101,1.145,2.437,1.37,3.9,.902,.963-.308,1.798-.848,2.443-1.646,.292-.361,.582-.725,.856-1.099,.895-1.222,2.125-1.897,3.577-2.226,.516-.117,1.022-.279,1.535-.412,.561-.146,.853-.52,.938-1.075,.083-.546,.196-1.089,.236-1.638,.089-1.213,.45-2.336,1.022-3.402,.481-.896,.938-1.798,1.186-2.799,.39-1.574,.202-3.025-.787-4.338-.306-.406-.612-.813-.934-1.206-.553-.675-1.014-1.4-1.216-2.258-.225-.955-.825-1.538-1.735-1.831-.441-.142-.886-.275-1.333-.398-1.114-.306-1.936-.942-2.359-2.044-.047-.123-.11-.242-.175-.357-.38-.68-.902-.923-1.662-.754-.434,.096-.846,.26-1.215,.513-.182,.125-.366,.251-.531,.397-.801,.709-1.713,1.159-2.794,1.246-1.069,.086-1.719,.727-2.12,1.668-.112,.264-.193,.541-.286,.812-.376,1.089-1.087,1.856-2.174,2.262-.228,.085-.454,.173-.684,.25-.75,.251-1.062,.817-1.125,1.56-.04,.469,.043,.933,.159,1.378,.323,1.236,.409,2.47,.208,3.74-.158,.996,.311,1.772,1.225,2.187,.321,.146,.658,.258,.991,.377,.919,.329,1.596,.925,2.025,1.804,.155,.318,.315,.634,.489,.942,.536,.949,1.546,1.297,2.552,.86,.343-.149,.678-.333,.981-.551,.663-.476,1.396-.643,2.194-.589,.353,.024,.707,.041,1.057,.086,.792,.101,1.325-.249,1.652-.941,.179-.379,.336-.77,.474-1.166,.273-.778,.616-1.518,1.162-2.145,.438-.503,.504-1.077,.139-1.588-.714-1.003-.973-2.085-.939-3.304,.022-.799-.477-1.352-1.235-1.637-.165-.062-.33-.126-.499-.176-.615-.183-1.098-.529-1.484-1.052-.617-.838-1.332-.988-2.257-.53-.02,.01-.039,.021-.057,.033-1.107,.765-2.161,1.604-3.285,2.348-.372,.246-.563,.681-.651,1.127-.117,.59-.33,1.141-.585,1.684-.429,.914-.318,1.47,.46,2.11,.614,.505,1.254,.973,1.824,1.535,.436,.43,.895,.383,1.354-.035,.249-.226,.429-.508,.602-.789,.33-.536,.788-.887,1.399-1.038,.064-.016,.13-.028,.193-.048,.889-.292,1.282-.886,1.053-1.627-.229-.741-.832-1.498-1.825-1.205-.469,.138-.872,.083-1.242-.223-.237-.196-.467-.343-.76-.092-.27,.231-.441,.61-.28,.882,.273,.459,.422,.905,.271,1.442-.056,.198,.096,.319,.318,.316,.541-.008,.805-.418,.572-.898-.055-.113-.202-.184-.152-.379,.393-.127,.761-.017,1.099,.202,.34,.22,.448,.604,.301,.993-.097,.255-.272,.452-.487,.616-.653,.5-1.393,.661-2.193,.532-.787-.127-1.144-.64-1.016-1.422,.025-.151,.079-.298,.121-.447,.093-.331,.095-.648-.099-.954-.284-.448-.194-.882,.068-1.309,.44-.715,1.099-1.091,1.914-1.149,.601-.043,1.091-.234,1.556-.63,.671-.573,1.658-.356,2.109,.41,.1,.17,.168,.361,.234,.547,.154,.433,.4,.788,.814,1.007,.879,.464,.929,1.304,.552,2.046-.169,.333-.396,.638-.608,.948-.399,.583-.498,1.17-.063,1.781,.064,.09,.117,.188,.164,.288,.299,.625,.175,1.051-.423,1.394-.407,.234-.853,.37-1.318,.421-.78,.085-1.518,.298-2.202,.681-1.104,.619-2.088,.1-2.625-.752-.117-.186-.227-.382-.307-.587-.247-.625-.711-.993-1.339-1.186-.486-.15-.959-.332-1.417-.556-1.165-.569-1.44-1.787-1.317-2.659,.217-1.549,.958-2.74,2.329-3.507,.5-.28,.8-.676,.924-1.226,.044-.193,.108-.383,.174-.57,.327-.923,1.003-1.426,1.947-1.596,.394-.071,.793-.079,1.191-.038,.638,.065,1.22-.074,1.778-.399,1.066-.621,1.84-.459,2.594,.521,.215,.28,.4,.584,.596,.878,.304,.457,.711,.724,1.278,.677,.755-.062,1.201,.33,1.48,.983,.149,.348,.244,.709,.285,1.085,.091,.836,.367,1.599,.965,2.207,1.171,1.191,1.287,2.488,.48,3.926-.673,1.199-1.009,2.488-.95,3.878,.04,.96-.405,1.694-1.172,2.253-1.03,.75-2.196,1.149-3.448,1.25-1.228,.099-2.203,.613-2.945,1.574-1.236,1.602-2.84,1.3-4.112,.446-.48-.322-.883-.741-1.229-1.202-.756-1.009-1.69-1.805-2.791-2.409-1.288-.706-2.163-1.729-2.5-3.183-.075-.322-.194-.634-.288-.952-.279-.937-.777-1.727-1.544-2.345-.241-.194-.457-.418-.683-.629-1.122-1.046-1.385-2.309-.963-3.754,.266-.912,.755-1.691,1.386-2.388,.223-.246,.451-.488,.688-.72,.644-.631,1.1-1.379,1.42-2.217,.11-.289,.234-.573,.357-.857,.504-1.171,1.324-2.074,2.512-2.514,1.281-.474,2.294-1.178,2.931-2.418,.341-.664,.985-.932,1.716-.95,.419-.01,.847-.024,1.257,.044,1.16,.193,2.238-.027,3.283-.528,.456-.219,.919-.429,1.443-.459,.614-.036,1.189,.105,1.735,.361,1.706,.799,3.187,1.9,4.377,3.367,.445,.549,.838,1.141,1.252,1.714,.435,.602,.972,1.084,1.639,1.419,.198,.099,.387,.215,.584,.314,1.081,.543,1.558,1.461,1.61,2.627,.024,.529,.019,1.063-.012,1.592-.063,1.087,.191,2.106,.609,3.094,.172,.407,.357,.809,.553,1.205,.448,.904,.475,1.83,.145,2.768-.146,.416-.316,.826-.505,1.225-.804,1.699-1.612,3.395-2.431,5.086-.551,1.139-1.017,2.307-1.245,3.556-.231,1.267-.928,2.158-2.067,2.753-1.041,.544-2.147,.83-3.304,.886-1.893,.09-3.576,.727-5.124,1.793-.506,.349-1.021,.694-1.66,.792-.959,.148-1.842-.097-2.703-.469-.591-.256-1.125-.616-1.644-.992-.751-.543-1.572-.888-2.502-.97-1.632-.143-2.948-.865-3.944-2.169-.336-.439-.691-.864-1.013-1.313-.693-.966-1.535-1.766-2.541-2.399-.636-.401-1.251-.834-1.844-1.298-1.213-.949-2.001-2.167-2.361-3.662-.109-.451-.225-.901-.31-1.356-.306-1.645-.942-3.172-1.641-4.679-.335-.722-.649-1.453-.729-2.26-.177-1.78,.419-3.304,1.531-4.657,.381-.463,.826-.864,1.289-1.242,1.117-.91,1.852-2.065,2.256-3.44,.106-.36,.228-.716,.329-1.078,.693-2.479,2.232-4.295,4.432-5.557,2.335-1.339,4.84-2.027,7.558-1.796,.55,.047,1.104,.056,1.656,.079,1.446,.059,2.812-.244,4.093-.919,.45-.237,.892-.489,1.332-.744C25.534-.005,26.626-.125,27.774,.119c1.519,.323,2.9,.964,4.114,1.916,1.202,.942,2.512,1.617,3.977,2.052,2.543,.756,3.58,2.701,3.91,5.155,.094,.7,.148,1.405,.235,2.106,.104,.838,.48,1.555,1.016,2.196,.327,.392,.686,.753,1.071,1.086,1.776,1.542,2.129,3.482,1.572,5.664-.175,.684-.404,1.355-.623,2.028-.357,1.095-.321,2.175,.085,3.248,.094,.248,.178,.5,.261,.752,.356,1.075,.292,2.129-.143,3.171-.505,1.208-1.311,2.196-2.233,3.102-.537,.527-1.08,1.048-1.62,1.571-.6,.58-.942,1.275-.938,2.121,.005,1.038-.469,1.806-1.301,2.399-.67,.478-1.375,.891-2.124,1.221-1.142,.504-2.059,1.244-2.78,2.279-1.068,1.534-2.64,2.18-4.454,2.227-1.22,.031-2.359,.227-3.405,.906-1.189,.772-2.423,.692-3.658,.071-.377-.19-.733-.409-1.079-.648-.69-.48-1.403-.922-2.14-1.329-1.497-.827-3.058-1.116-4.732-.685-.235,.06-.48,.079-.717,.13-1.25,.267-2.362-.068-3.39-.772-.848-.581-1.551-1.311-2.18-2.119-.625-.803-1.213-1.634-1.912-2.378-.455-.484-.908-.969-1.495-1.301-.06-.034-.096-.086-.063-.236Z"/>
  </g>
</svg>