<?xml version="1.0" encoding="UTF-8"?>
<svg id="b" data-name="Layer 2" xmlns="http://www.w3.org/2000/svg" width="48.251" height="45.629" viewBox="0 0 48.251 45.629">
  <g id="c" data-name="Layer 1">
    <g>
      <path d="M37.711,17.393c.787,0,1.387,0,1.987,0,1.275,0,2.547-.012,3.752,.443,1.166,.441,1.373,.858,1.018,1.9-.296,.868-.929,1.499-1.729,2.039-.325,.22-.651,.439-1.098,.741,1.095,.376,1.772,1.105,2.815,1.302,.029,.005,.059,.018,.081,.034,1.145,.899,2.249,1.813,2.389,3.26,.129,1.333-.449,2.374-1.683,3.169-.121,.078-.233,.167-.356,.243-.286,.176-.284,.337-.048,.569,.657,.645,1.297,1.3,1.847,2.02,.636,.832,1.126,1.727,1.419,2.674,.374,1.209,.072,2.303-1.342,3.124-1.294,.751-2.723,.97-4.253,.627-.289-.065-.586-.107-.885-.161-.227,.25-.124,.52-.099,.759,.099,.956-.192,1.851-.561,2.728-.298,.707-.864,1.224-1.678,1.559-2.072,.851-4.807,.265-6.484-1.082-.963-.773-1.704-1.679-2.306-2.677-.092-.153-.088-.369-.391-.441-.277,.199-.308,.527-.414,.8-.628,1.61-1.854,2.855-3.351,3.894-1.329,.922-2.916,.941-4.393,.106-1.332-.753-2.075-1.814-2.411-3.157-.501-2.009,.004-3.9,.703-5.787,.018-.048,.02-.1,.038-.198-.336-.093-.566,.118-.799,.231-.692,.333-1.421,.584-2.185,.756-1.618,.365-3.405-.333-3.997-1.608-.381-.821-.3-1.675,.012-2.509,.428-1.146,1.17-2.154,1.924-3.156,.192-.255,.475-.476,.502-.856-.564,.021-1.041,.256-1.553,.366-1.266,.275-2.536,.523-3.852,.46-1.109-.053-2.133-.331-3.043-.905-1.426-.9-1.72-2.304-.675-3.628,.581-.736,1.354-1.325,2.207-1.833,.263-.157,.568-.278,.771-.598-1.528-.215-2.983-.407-4.387-.804-1.615-.457-3.041-1.153-4.169-2.264-.447-.44-.767-.94-.94-1.493-.247-.787,.025-1.482,.645-2.086,.834-.813,1.937-1.238,3.114-1.525,.989-.241,1.992-.449,3.036-.443,.383,.002,.766-.045,1.136-.068,.061-.291-.188-.353-.333-.461-1.786-1.334-3.478-2.743-4.863-4.402-.906-1.085-1.637-2.241-1.965-3.552-.363-1.449,.333-3.153,2.082-3.633,.688-.189,1.407-.196,2.071-.082,1.567,.269,3.146,.535,4.53,1.305,1.097,.61,2.129,1.289,3.133,2.002,.7,.498,1.398,.998,2.105,1.488,.173,.12,.318,.315,.666,.25-.293-.713-.617-1.398-.847-2.113-.748-2.32,.738-4.084,3.187-4.602,1.804-.382,3.216,.204,4.407,1.275,1.629,1.465,2.738,3.213,3.603,5.081,.1,.216,.205,.43,.319,.641,.019,.035,.095,.047,.19,.09,.394-.332,.291-.818,.421-1.212,.65-1.957,2.217-3.024,4.46-3.299,2.045-.251,4.294,.727,4.932,3.065,.474,1.738-.056,3.326-.646,4.933-.062,.17-.204,.322-.023,.549,.647-.132,1.312-.278,1.982-.403,1.317-.245,3.635,.398,4.38,1.802,.231,.435,.277,.818,.051,1.257-.535,1.038-1.456,1.773-2.509,2.408-.516,.311-1.046,.604-1.645,1.088Zm-22.068,3.325c.853,.079,1.761,.116,2.673,.101,.18-.003,.369,.008,.538,.056,.316,.089,.376,.377,.105,.535-.17,.1-.382,.154-.583,.208-.722,.193-1.453,.363-2.171,.568-1.958,.558-3.884,1.183-5.621,2.162-.898,.506-1.673,1.121-2.131,1.974-.513,.958-.105,1.919,.988,2.228,.569,.161,1.17,.297,1.786,.233,1.355-.139,2.689-.342,3.967-.786,1.999-.694,3.913-1.528,5.781-2.446,.209-.103,.426-.201,.654-.264,.183-.051,.362,.028,.48,.158,.127,.14,.104,.298-.014,.432-.109,.124-.246,.229-.366,.345-.722,.7-1.484,1.369-2.151,2.112-1.275,1.423-2.175,2.982-2.456,4.775-.073,.465-.088,.921,.101,1.382,.322,.786,.58,.95,1.543,.835,.872-.104,1.572-.517,2.251-.957,1.747-1.132,3.316-2.428,4.791-3.81,.188-.176,.385-.334,.683-.349,.4-.02,.64,.215,.481,.534-.141,.283-.209,.586-.408,.857-.857,1.162-1.557,2.396-2.16,3.669-.408,.862-.744,1.743-.911,2.665-.205,1.135-.212,2.272,0,3.406,.164,.878,.438,1.725,1.254,2.346,.482,.367,1.037,.391,1.593,.116,.466-.23,.743-.6,1.012-.98,1.74-2.453,2.545-5.168,3.055-7.967,.167-.918,.35-1.834,.526-2.752,.046-.241,.223-.373,.496-.374,.277-.001,.438,.154,.507,.375,.023,.074,.027,.154,.033,.231,.108,1.5,.391,2.978,.81,4.434,.464,1.616,1.158,3.154,2.234,4.555,.559,.728,1.264,1.329,2.107,1.801,.991,.555,2.006,.383,2.72-.421,.592-.666,.711-1.431,.517-2.218-.169-.683-.251-1.378-.395-2.063-.412-1.964-1.243-3.771-2.428-5.474-.666-.957-1.321-1.92-1.973-2.884-.119-.176-.263-.375,.007-.552,.286-.189,.519-.054,.718,.118,.126,.109,.219,.249,.312,.382,.512,.734,1.058,1.453,1.522,2.208,.983,1.603,2.412,2.854,4.126,3.87,1.036,.614,2.219,.958,3.486,1.005,.773,.029,1.104-.245,1.217-.897,.108-.617-.133-1.177-.45-1.712-.678-1.144-1.56-2.158-2.695-3.003-.665-.495-1.328-.996-1.863-1.595-1.087-1.217-2.488-2.113-3.972-2.932-.153-.084-.304-.171-.447-.267-.156-.106-.229-.247-.137-.411,.097-.171,.297-.181,.472-.146,.418,.084,.77,.298,1.134,.48,1.263,.634,2.589,1.133,4.025,1.4,.629,.117,1.249,.129,1.881-.044,.871-.239,1.331-.829,.746-1.789-.07-.114-.14-.233-.238-.33-1.41-1.389-3.029-2.515-5.171-2.976-.087-.019-.204-.028-.25-.079-.512-.57-1.332-.573-2.024-.802-.333-.111-.82-.117-.778-.507,.039-.363,.516-.38,.867-.423,1.02-.125,2.023-.321,3.015-.554,.763-.179,1.499-.418,2.102-.885,.45-.348,.462-.602,.033-.969-.244-.209-.556-.347-.872-.4-.591-.1-1.179-.215-1.793-.239-1.191-.047-2.357,.13-3.533,.217-.426,.032-.927,.162-1.107-.264-.167-.396,.345-.552,.636-.755,.989-.687,2.096-1.24,3.061-1.957,.487-.362,.949-.751,1.207-1.252,.405-.786,.231-1.377-.715-1.587-.352-.078-.697-.15-1.064-.178-1.539-.12-2.862,.314-4.058,1.098-.53,.347-1.041,.715-1.57,1.063-.223,.147-.48,.253-.748,.072-.256-.174-.208-.417-.151-.647,.024-.098,.11-.184,.154-.28,.437-.963,.875-1.927,1.305-2.892,.706-1.585,.775-3.174,.037-4.77-.552-1.195-1.493-1.36-2.787-.912-.392,.136-.73,.359-1.033,.625-1.225,1.075-1.849,2.414-2.292,3.825-.219,.697-.346,1.414-.506,2.124-.044,.195-.129,.347-.377,.382-.251,.036-.4-.091-.506-.26-.072-.113-.156-.232-.176-.355-.116-.744-.35-1.466-.549-2.194-.556-2.031-1.496-3.923-2.825-5.672-.573-.754-1.291-1.373-2.291-1.712-1.085-.368-2.081-.058-2.593,.837-.326,.57-.419,1.2-.367,1.817,.129,1.561,.595,3.055,1.415,4.462,.569,.975,1.156,1.938,2.042,2.74,.171,.155,.351,.343,.138,.542-.223,.209-.499,.134-.737-.02-.12-.078-.234-.166-.341-.258-1.278-1.109-2.642-2.14-3.968-3.205-2.288-1.839-4.832-3.386-7.411-4.897-.673-.394-1.425-.691-2.207-.91-.642-.179-.919-.049-1.202,.489-.264,.501-.231,.999-.087,1.519,.452,1.634,1.503,2.989,2.748,4.236,1.964,1.969,4.334,3.554,6.797,5.029,1.509,.904,3.008,1.853,4.834,2.279,.214,.05,.41,.152,.38,.373-.028,.209-.232,.301-.448,.33-.177,.024-.369,.029-.543-.002-1.155-.201-2.323-.337-3.45-.665-2.34-.68-4.673-1.392-7.122-1.75-1.394-.204-2.71,.03-3.965,.549-.24,.099-.462,.253-.651,.418-.641,.559-.699,1.26-.173,1.903,.387,.474,.882,.852,1.449,1.166,1.899,1.053,4.03,1.506,6.231,1.805,1.387,.189,2.781,.156,4.229,.194Z"/>
      <path d="M24.134,19.081c-.144-2.228,1.677-3.858,4.157-3.29,3.378,.773,5.509,3.008,6.594,6.275,.265,.8,.329,1.613,.132,2.418-.528,2.165-2.605,2.656-4.013,2.364-2.605-.54-4.419-2.157-5.83-4.309-.685-1.046-1.088-2.187-1.04-3.458Zm6.035,6.395c.088,0,.175,.002,.263,0,1.253-.031,1.823-.832,1.454-2.052-.451-1.492-1.348-2.705-2.415-3.803-.448-.461-.925-.9-1.497-1.207-.93-.499-1.803-.236-2.299,.692-.41,.766-.423,1.56-.083,2.355,.577,1.348,1.514,2.42,2.638,3.331,.554,.449,1.199,.722,1.939,.684Z"/>
    </g>
  </g>
</svg>