<?xml version="1.0" encoding="UTF-8"?>
<svg id="b" data-name="Layer 2" xmlns="http://www.w3.org/2000/svg" width="46.103" height="44.78" viewBox="0 0 46.103 44.78">
  <g id="c" data-name="Layer 1">
    <path d="M42.276,9.531c-.077,.246,.042,.363,.117,.486,1.2,1.963,1.988,4.091,2.484,6.325,.11,.496,.266,1.002,.218,1.529-.004,.042-.005,.091,.011,.128,.358,.844,.139,1.723,.149,2.585,.01,.86-.024,1.715-.13,2.578-.253,2.071-.805,4.045-1.665,5.935-2.141,4.708-5.598,8.112-10.278,10.288-1.669,.776-3.425,1.279-5.232,1.586-1.708,.29-3.44,.314-5.158,.165-1.106-.095-2.221-.247-3.294-.592-.561-.18-.7-.084-.737,.507-.064,1.024,.171,2.016,.382,3.007,.022,.105,.073,.204,.094,.309,.03,.151,.046,.309-.135,.386-.163,.069-.289-.007-.408-.114-.118-.107-.166-.246-.209-.393-.266-.897-.697-1.718-1.187-2.508-.534-.86-1.007-.955-1.886-.434-.825,.488-1.522,1.128-2.209,1.786-.187,.179-.382,.35-.586,.508-.123,.095-.277,.139-.413,.014-.107-.099-.104-.237-.063-.362,.082-.248,.233-.458,.387-.668,.52-.713,1.098-1.383,1.546-2.15,.377-.645,.353-1.127-.14-1.706-.55-.647-1.253-1.118-1.916-1.633-.358-.279-.682-.573-.96-.945-.307-.411-.713-.748-1.084-1.11-1.104-1.075-2.021-2.297-2.835-3.6-1.336-2.139-2.178-4.459-2.695-6.927-.421-2.013-.363-4.031-.278-6.052,.034-.806,.202-1.62,.418-2.409,.046-.168,.088-.328-.028-.517-.368,.095-.656,.318-.951,.526-.584,.412-1.097,.906-1.613,1.397-.156,.149-.313,.298-.481,.433-.153,.123-.336,.252-.519,.081-.172-.161-.085-.363,.011-.536,.304-.55,.73-1.012,1.096-1.518,.265-.367,.537-.727,.767-1.119,.374-.637,.342-1.15-.141-1.711-.568-.66-1.287-1.143-1.968-1.67-.153-.119-.305-.241-.452-.367-.183-.157-.399-.334-.266-.595,.152-.299,.449-.204,.691-.127,.72,.229,1.44,.461,2.09,.861,.296,.182,.613,.323,.951,.4,.501,.114,.773-.016,1.003-.477,.244-.49,.312-1.033,.392-1.561,.142-.937,.232-1.881,.338-2.823,.07-.616,.164-.811,.408-.751,.402,.099,.328,.463,.35,.745,.075,.968,.126,1.938,.193,2.907,.017,.25,.017,.511,.18,.717,.228-.002,.252-.187,.328-.301,.551-.823,1.076-1.664,1.646-2.474,.207-.295,.524-.51,.77-.781,1.915-2.099,4.152-3.751,6.738-4.938,1.324-.608,3.212-1.16,4.618-1.473,1.964-.437,3.947-.428,5.919-.296,1.822,.122,3.604,.576,5.318,1.238,1.595,.615,3.103,1.393,4.503,2.379,.258,.181,.493,.427,.851,.431,.11,.001,.21,.066,.244,.182,.161,.552,.717,.719,1.068,1.086,.173,.181,.309,.057,.319-.177,.039-.931-.045-1.854-.187-2.773-.007-.042-.027-.082-.035-.125-.045-.227-.167-.487,.159-.599,.2-.068,.453,.15,.507,.478,.099,.606,.36,1.152,.575,1.715,.145,.381,.325,.754,.528,1.108,.403,.702,.887,.838,1.636,.493,.871-.4,1.612-.993,2.352-1.588,.219-.175,.436-.353,.663-.517,.14-.102,.312-.204,.47-.061,.18,.163,.098,.362-.009,.529-.116,.18-.251,.349-.388,.514-.564,.678-1.192,1.3-1.696,2.03-.394,.57-.414,1.078-.002,1.662,.389,.55,.891,.992,1.39,1.437,.305,.272,.609,.546,.913,.818,.114,.102,.22,.212,.254,.366,.051,.233-.034,.381-.283,.403-.176,.016-.342-.032-.503-.1-.695-.295-1.391-.586-2.013-1.027-.295-.209-.612-.392-1.013-.453ZM12.852,4.353c.713,.159,.72,.165,.556,.835-.061,.25-.111,.493-.009,.74,.069,0,.116,.013,.151-.002,.934-.383,1.849-.811,2.809-1.128,.28-.092,.332-.304,.309-.564-.04-.45-.075-.901-.11-1.352-.039-.509-.069-.534-.527-.318-.994,.469-1.945,1.014-2.832,1.666-.105,.077-.192,.174-.334,.138-.034,.171-.193,.224-.308,.311-1.139,.865-2.149,1.866-3.099,2.93-.147,.164-.344,.311-.341,.545,.103,.069,.166,.049,.22,.016,.97-.605,1.969-1.158,2.995-1.662,.12-.059,.246-.131,.272-.259,.129-.625,.326-1.243,.246-1.895Zm22.219,9.322c-.027-.075-.07-.22-.13-.356-.287-.65-.573-1.3-.871-1.945-.337-.728-.234-.57-.904-.377-1.01,.291-2.004,.643-2.996,.994-1.642,.58-3.287,1.156-4.898,1.819-.427,.176-.48,.255-.353,.61,.371,1.032,.719,2.07,1.046,3.117,.118,.379,.205,.403,.562,.244,1.317-.588,2.633-1.179,3.946-1.775,.498-.226,.497-.234,.308-.76-.109-.303-.235-.6-.336-.906-.041-.124-.025-.265,.121-.331,.162-.073,.297-.023,.387,.125,.066,.111,.125,.228,.173,.347,.095,.24,.173,.487,.272,.725,.086,.206,.206,.291,.452,.176,.995-.464,2-.905,3.001-1.356,.12-.054,.237-.115,.22-.35Zm-6.095,14.87c-.003,.189,.05,.442-.195,.485-.285,.051-.323-.204-.372-.422-.104-.46-.223-.917-.331-1.376-.116-.49-.179-.535-.651-.357-1.326,.5-2.657,.982-4.008,1.411-.384,.122-.416,.185-.247,.549,.362,.78,.754,1.546,1.106,2.33,.153,.342,.382,.364,.679,.267,2.929-.953,5.778-2.091,8.449-3.642,.492-.285,.543-.381,.406-.94-.159-.65-.194-1.316-.29-1.973-.085-.585-.146-.632-.682-.386-1.231,.565-2.458,1.139-3.698,1.683-.709,.312-.611,.179-.484,.994,.01,.062,.062,.119,.068,.18,.04,.408,.254,.779,.248,1.196Zm-1.224-19.836c-.575,.064-1.04,.239-1.513,.374-.866,.247-1.725,.518-2.59,.768-.296,.086-.368,.24-.255,.525,.339,.859,.661,1.725,.998,2.585,.167,.427,.219,.444,.676,.272,.542-.205,1.08-.421,1.623-.625,2.111-.79,4.237-1.537,6.387-2.213,.387-.122,.426-.198,.239-.548-.304-.569-.641-1.121-.942-1.691-.13-.246-.276-.336-.562-.293-.913,.136-1.816,.314-2.717,.514-.272,.06-.471,.082-.514,.441-.033,.275-.234,.312-.468,.106-.137-.121-.248-.234-.363-.213Zm-8.68,7.988c.017,.107,.024,.172,.037,.235,.232,1.158,.563,2.291,.864,3.431,.071,.27,.253,.232,.457,.141,1.571-.701,3.142-1.403,4.718-2.091,.333-.145,.366-.318,.256-.654-.334-1.02-.642-2.049-1.034-3.049-.175-.447-.206-.468-.649-.28-.792,.335-1.582,.677-2.368,1.025-.649,.287-1.291,.59-1.938,.882-.18,.081-.37,.147-.343,.359Zm15.112,13.567c-.023-.543-.167-1.022-.162-1.524,.005-.516-.069-.555-.511-.309-.997,.556-2.015,1.067-3.052,1.545-1.7,.784-3.461,1.41-5.232,2.008-.416,.14-.427,.163-.249,.527,.217,.444,.465,.874,.683,1.318,.139,.283,.299,.336,.616,.239,2.67-.811,5.163-2.018,7.604-3.348,.206-.112,.355-.243,.303-.456Zm-14.772-9.685c.004,.044,.005,.021,0,.001-.319-1.135-.622-2.274-.884-3.424-.062-.271-.25-.286-.501-.164-1.354,.659-2.69,1.351-4.017,2.062-.249,.133-.331,.286-.252,.572,.229,.826,.418,1.664,.648,2.489,.214,.767,.229,.763,1,.46,.12-.047,.243-.086,.362-.134,1.074-.439,2.147-.878,3.219-1.321,.215-.089,.466-.156,.425-.541Zm-6.995-5.553c-.121-.07-.205-.041-.278,0-1.395,.77-2.727,1.64-4.059,2.511-.217,.142-.261,.348-.203,.564,.124,.459,.077,.879-.016,1.356-.123,.636,.01,1.326,.065,1.99,.03,.365,.184,.42,.52,.208,1.382-.872,2.766-1.741,4.199-2.528,.275-.151,.36-.358,.281-.64-.07-.25-.101-.502-.132-.759-.112-.912-.252-1.821-.377-2.701Zm5.667-2.83c.028,.201,.033,.265,.047,.328,.21,.985,.42,1.97,.634,2.955,.085,.391,.128,.432,.442,.283,1.457-.693,2.94-1.324,4.425-1.952,.287-.121,.335-.271,.226-.548-.354-.899-.699-1.802-1.033-2.709-.112-.303-.312-.326-.564-.234-1.313,.477-2.609,.996-3.886,1.562-.203,.09-.309,.224-.292,.315Zm-4.526,6.346c.125-.032,.189-.037,.243-.064,1.358-.695,2.716-1.39,4.073-2.089,.373-.192,.424-.303,.319-.721-.252-.996-.454-2.003-.627-3.015-.055-.321-.173-.323-.432-.21-1.301,.571-2.56,1.222-3.807,1.899-.272,.147-.345,.354-.282,.644,.054,.252,.108,.507,.12,.763,.046,.923,.203,1.827,.394,2.792Zm14.79,7.28c.252-.095,.434-.157,.611-.231,1.269-.532,2.52-1.103,3.752-1.715,.556-.276,.581-.283,.445-.891-.197-.877-.43-1.747-.66-2.616-.093-.35-.146-.37-.504-.212-.334,.148-.655,.326-.986,.481-1.07,.501-2.14,1.004-3.216,1.492-.249,.113-.405,.245-.325,.535,.286,1.03,.576,2.059,.884,3.158Zm-5.48,1.992c.035-.011,.076-.025,.117-.038,1.525-.453,3.015-1.006,4.498-1.579,.236-.091,.259-.26,.201-.47-.246-.889-.485-1.779-.74-2.665-.138-.477-.152-.477-.6-.306-1.205,.458-2.407,.921-3.612,1.379-.341,.129-.684,.253-1.031,.364-.215,.069-.269,.215-.2,.398,.349,.925,.694,1.852,1.125,2.744,.048,.1,.104,.191,.243,.173Zm-11.766,3.075c.595,.962,1.158,1.823,1.806,2.627,.127,.157,.267,.277,.492,.243,.937-.141,1.893-.034,2.828-.247,.295-.067,.394-.183,.414-.458,.025-.343,.077-.684,.123-1.026,.026-.195,.051-.412,.31-.417,.285-.006,.346,.224,.372,.442,.035,.299,.042,.602,.065,.903,.012,.163,.062,.309,.266,.287,.278-.03,.558-.055,.829-.12,.331-.08,.375-.196,.201-.484-.489-.811-.991-1.614-1.478-2.426-.136-.228-.311-.251-.548-.203-1.429,.295-2.863,.555-4.324,.649-.424,.027-.842,.14-1.355,.23Zm15.46-9.213c-.024-.104-.042-.211-.072-.313-.199-.679-.398-1.359-.603-2.036-.136-.447-.203-.486-.635-.296-1.535,.674-3.063,1.364-4.601,2.032-.33,.143-.396,.327-.277,.653,.222,.604,.408,1.221,.621,1.829,.16,.454,.186,.46,.637,.316,.225-.072,.45-.143,.673-.22,1.299-.451,2.585-.935,3.851-1.472,.229-.097,.454-.173,.406-.493Zm4.459-5.241c-.099,.039-.2,.074-.298,.118-1.293,.581-2.587,1.159-3.876,1.747-.539,.246-.549,.294-.371,.887,.197,.657,.396,1.313,.59,1.97,.157,.531,.163,.542,.698,.309,.63-.274,1.258-.553,1.879-.845,.719-.338,1.431-.692,2.147-1.039,.226-.11,.409-.225,.299-.539-.276-.789-.532-1.584-.796-2.377-.044-.132-.115-.23-.271-.231Zm-18.004,3.181c-.3,.168-.596,.332-.89,.5-1.213,.693-2.39,1.445-3.571,2.191-.283,.179-.414,.352-.338,.727,.115,.566,.235,1.131,.358,1.696,.047,.215,.139,.291,.361,.2,.258-.105,.528-.18,.79-.273,1.272-.452,2.546-.898,3.813-1.364,.51-.188,.514-.237,.362-.763-.185-.638-.377-1.273-.545-1.915-.085-.326-.085-.678-.34-.998Zm3.777,9.778c-.042-.134-.061-.241-.107-.334-.33-.675-.667-1.346-.999-2.021-.284-.579-.302-.587-.929-.416-.827,.224-1.654,.447-2.483,.665-.704,.186-1.407,.376-2.124,.515-.504,.097-.54,.185-.336,.646,.207,.471,.432,.936,.667,1.394,.223,.435,.281,.467,.762,.367,.718-.149,1.451-.149,2.175-.245,1.123-.149,2.233-.351,3.374-.571Zm17.345,1.901c-.292,.146-.503,.246-.709,.356-2.092,1.116-4.238,2.107-6.493,2.851-.163,.054-.326,.107-.484,.173-.169,.07-.222,.185-.118,.357,.257,.423,.506,.851,.762,1.275,.129,.213,.314,.179,.51,.111,.608-.212,1.219-.415,1.825-.631,.222-.079,.485-.134,.64-.289,.197-.197,.025-.487,.017-.737,0-.021-.011-.042-.011-.063-.002-.136,.024-.269,.171-.312,.17-.05,.293,.039,.363,.19,.035,.077,.036,.168,.066,.248,.14,.367,.174,.384,.568,.233,.966-.372,1.881-.852,2.802-1.318,.222-.112,.316-.267,.312-.51-.01-.623-.04-1.244-.223-1.933Zm-12.065-3.304c-.385-.97-.762-1.904-1.126-2.843-.101-.261-.284-.31-.515-.237-1.371,.43-2.739,.869-4.112,1.296-.212,.066-.29,.15-.182,.366,.406,.807,.806,1.617,1.206,2.427,.102,.207,.249,.262,.476,.202,.931-.246,1.869-.47,2.798-.723,.472-.129,.973-.177,1.455-.488Zm-4.214,1.905c.493,.952,1.086,1.82,1.65,2.705,.158,.247,.395,.257,.629,.198,1.121-.283,2.246-.558,3.338-.945,.381-.135,.387-.153,.206-.541-.364-.779-.752-1.548-1.109-2.331-.137-.3-.291-.34-.603-.241-.735,.231-1.495,.382-2.232,.609-.61,.188-1.271,.206-1.878,.546Zm-1.159-24.571c-1.197,.405-2.232,.866-3.264,1.332-.179,.081-.248,.208-.261,.401-.08,1.2-.22,2.396-.241,3.6-.007,.42,.05,.46,.445,.263,1.115-.554,2.221-1.125,3.339-1.673,.294-.144,.36-.339,.27-.626-.104-.333-.107-.678-.112-1.023-.01-.731-.229-1.441-.177-2.276Zm-6.743,7.214c.167,.023,.484,.02,.781-.153,.409-.239,.818-.479,1.238-.696,.245-.126,.327-.299,.319-.567-.035-1.187,.186-2.359,.213-3.544,.009-.417-.034-.461-.421-.266-1.02,.513-2.006,1.085-2.962,1.709-.165,.108-.32,.213-.36,.428-.158,.843-.327,1.684-.4,2.542-.024,.284,.079,.402,.339,.428,.364,.035,.729,.069,1.252,.118Zm27.287,8.686c-.004-.043-.004-.086-.014-.128-.218-.982-.431-1.966-.66-2.945-.082-.349-.152-.377-.497-.192-.927,.498-1.843,1.019-2.773,1.511-.292,.154-.337,.365-.254,.638,.279,.923,.52,1.855,.685,2.806,.047,.272,.222,.356,.472,.221,.927-.499,1.852-1.001,2.777-1.504,.16-.087,.275-.207,.263-.407Zm-17.703,.357c-.049,.014-.092,.022-.131,.038-1.453,.58-2.906,1.162-4.359,1.742-.194,.077-.177,.214-.116,.368,.22,.558,.437,1.118,.664,1.673,.093,.229,.252,.328,.513,.234,.301-.108,.614-.185,.92-.282,1.061-.336,2.12-.679,3.184-1.007,.255-.079,.355-.18,.256-.46-.25-.706-.477-1.42-.71-2.132-.038-.115-.096-.187-.219-.173Zm18.327-.49c1.122-.622,2.119-1.285,3.112-1.956,.153-.104,.133-.236,.093-.398-.114-.456-.183-.925-.314-1.375-.176-.606-.252-1.246-.58-1.85-.981,.593-1.93,1.174-2.888,1.74-.278,.164-.218,.392-.167,.619,.236,1.042,.48,2.083,.743,3.218Zm5.903-11.674c-.357-.556-.871-.997-1.088-1.648-.243-.727,.1-1.322,.472-2.028-.392,.165-.665,.278-.935,.396-.758,.331-1.511,.307-2.123-.616-.121-.183-.183-.436-.452-.556-.155,.585-.15,1.186-.509,1.675-.346,.471-.87,.72-1.373,1.044,1.945,.896,1.933,.674,2.528,3.246,.186-.418,.345-.806,.528-1.182,.439-.901,1.055-1.112,1.952-.691,.31,.146,.609,.322,1.001,.362ZM3.46,15.353c.33-.171,.573-.305,.823-.425,.818-.391,1.419-.262,2.022,.408,.165,.184,.271,.428,.542,.583,.155-.571,.083-1.153,.379-1.651,.299-.503,.835-.762,1.341-1.254-1.815-.163-2.475-1.311-2.75-2.832-.179,.341-.321,.645-.418,.963-.345,1.128-1.278,1.326-2.075,.913-.171-.089-.355-.158-.541-.208-.1-.027-.232-.162-.326,.022q1.371,1.641,1.002,3.48Zm13.528,20.47c-.188,.465-.348,.906-.544,1.332-.241,.526-.76,.818-1.314,.725-.272-.045-.527-.182-.795-.259-.208-.06-.4-.235-.724-.118,.471,.512,.996,.91,1.237,1.526,.265,.678,.017,1.295-.305,1.959,.403-.062,.63-.274,.894-.4,.877-.421,1.489-.293,2.124,.444,.144,.167,.231,.403,.503,.512,.13-.585,.078-1.164,.381-1.658,.295-.481,.808-.739,1.211-1.136-1.988-.871-1.679-.379-2.669-2.927ZM26.272,5.514c-.033-.083-.048-.148-.081-.202-.399-.637-.801-1.271-1.201-1.907-.11-.175-.253-.172-.444-.144-1.146,.166-2.256,.493-3.389,.718-.276,.055-.294,.191-.197,.412,.341,.787,.683,1.574,1.009,2.367,.094,.228,.211,.202,.4,.135,.545-.193,1.094-.376,1.648-.543,.635-.191,1.277-.358,1.915-.539,.164-.047,.33-.1,.341-.298ZM9.577,27.311c.072-.019,.134-.036,.197-.051,.565-.129,1.132-.245,1.693-.387,1.102-.278,2.2-.569,3.299-.858,.256-.067,.349-.218,.238-.481-.216-.515-.43-1.032-.628-1.554-.09-.237-.21-.278-.442-.185-.519,.207-1.047,.392-1.574,.579-1.053,.375-2.105,.751-3.162,1.115-.239,.082-.373,.191-.283,.461,.129,.387,.25,.777,.378,1.164,.045,.137,.138,.214,.283,.197ZM17.637,8.706c.094,0,.165,.019,.22-.003,1.112-.455,2.222-.914,3.333-1.372,.228-.094,.262-.234,.162-.46-.311-.707-.598-1.425-.906-2.133-.203-.467-.296-.517-.793-.375-.659,.188-1.304,.428-1.967,.602-.361,.095-.439,.292-.38,.613,.078,.424,.117,.853,.109,1.284-.012,.626,.153,1.225,.223,1.843Zm15.164,10.364c1.074-.592,2.124-1.172,3.174-1.749,.252-.138,.301-.333,.207-.597-.21-.585-.399-1.178-.612-1.762-.168-.463-.202-.478-.642-.287-.788,.342-1.572,.695-2.355,1.049-.957,.433-.879,.267-.54,1.25,.236,.683,.386,1.403,.768,2.096Zm9.619,9.163c.583-.343,1.052-.704,1.252-1.301,.224-.671,.39-1.359,.565-2.045,.251-.984,.311-1.994,.43-2.993,.069-.575,.146-1.178-.01-1.747-.18-.03-.246,.068-.319,.14-.603,.585-1.183,1.196-1.859,1.701-.269,.201-.303,.46-.233,.745,.135,.552,.118,1.112,.13,1.672,.003,.162-.061,.349,.104,.475,.15,.022,.25-.067,.35-.144,.205-.157,.396-.334,.61-.478,.193-.13,.42-.172,.564,.061,.142,.23-.054,.333-.216,.453-.381,.282-.748,.582-1.122,.873-.139,.108-.277,.224-.275,.415,.005,.701-.067,1.405,.029,2.175ZM5.111,23.965c.639-.455,1.293-.939,1.968-1.39,.252-.168,.323-.347,.304-.64-.072-1.094-.251-2.182-.186-3.283,.001-.021,0-.043-.002-.065-.036-.297-.117-.351-.366-.187-.646,.427-1.278,.876-1.92,1.309-.158,.107-.226,.238-.235,.427-.061,1.188,.069,2.363,.216,3.538,.014,.11,.064,.204,.221,.291ZM38.936,11.982c-.002-.021,.002-.046-.007-.064-.344-.716-.687-1.433-1.038-2.146-.066-.135-.196-.142-.335-.101-.925,.271-1.85,.537-2.775,.807-.286,.084-.352,.246-.219,.53,.356,.757,.696,1.522,1.027,2.291,.096,.224,.214,.304,.442,.2,.898-.409,1.798-.817,2.697-1.224,.127-.058,.215-.141,.207-.292Zm-4.479,15.151c1.129-.648,2.101-1.347,3.072-2.045,.117-.084,.157-.197,.139-.336-.109-.841-.085-1.699-.331-2.521-.056,0-.106-.015-.138,.002-.969,.509-1.934,1.025-2.905,1.529-.231,.12-.287,.29-.251,.527,.135,.908,.264,1.816,.413,2.844Zm8.836-13.743c-.797,.545-1.538,1.054-2.281,1.56-.192,.131-.214,.319-.154,.515,.275,.901,.515,1.81,.709,2.732,.073,.344,.211,.395,.492,.201,.619-.427,1.218-.884,1.846-1.295,.297-.195,.401-.409,.319-.748-.238-.975-.466-1.952-.931-2.965ZM9.971,30.233c-.288-.636-.524-1.166-.767-1.693-.215-.466-.239-.469-.733-.352-.375,.089-.753,.175-1.134,.232-.185,.028-.415,.035-.448-.239-.028-.232,.163-.281,.331-.323,.416-.105,.833-.207,1.253-.296,.225-.048,.282-.16,.212-.369-.11-.325-.21-.654-.316-.981-.078-.239-.22-.361-.488-.279-.615,.189-1.23,.384-1.851,.554-.327,.09-.411,.276-.302,.571,.372,1.011,.777,2.007,1.296,2.955,.102,.187,.23,.303,.444,.325,.817,.084,1.626,.031,2.504-.106Zm31.659-7.397c-.131,.036-.18,.036-.211,.061-.947,.746-1.879,1.511-2.871,2.196-.243,.168-.238,.391-.203,.629,.089,.598,.13,1.199,.124,1.804-.001,.12-.038,.265,.128,.346,.049-.014,.117-.019,.167-.051,.971-.642,1.874-1.375,2.793-2.087,.21-.162,.272-.359,.276-.614,.013-.753-.136-1.488-.203-2.283ZM26.498,6.284c-.311,.082-.625,.154-.933,.247-.944,.287-1.889,.572-2.828,.878-.395,.129-.41,.201-.256,.617,.127,.343,.262,.683,.394,1.024,.103,.266,.247,.333,.549,.237,1.267-.406,2.538-.801,3.837-1.099,.237-.054,.342-.169,.221-.413-.211-.424-.417-.851-.633-1.273-.069-.135-.158-.265-.35-.218Zm-4.828,29.046c1.096-.284,2.194-.563,3.288-.857,.198-.053,.26-.203,.153-.404-.263-.492-.52-.988-.782-1.48-.102-.191-.249-.291-.476-.214-1.135,.384-2.289,.699-3.453,.977-.194,.047-.272,.135-.159,.31,.351,.539,.714,1.07,1.146,1.549,.075,.083,.165,.135,.283,.118Zm16.69-10.865c1.088-.731,2.014-1.531,2.976-2.281,.144-.113,.205-.258,.203-.448-.005-.663-.162-1.297-.282-1.921-.197-.048-.283,.072-.387,.137-.839,.52-1.676,1.044-2.511,1.57-.41,.258-.476,.373-.353,.844,.088,.338,.119,.674,.127,1.018,.008,.345,.085,.677,.228,1.081ZM22.479,.746c-.851-.008-1.613,.261-2.4,.362-.312,.04-.395,.234-.29,.51,.191,.502,.404,.995,.587,1.5,.115,.317,.334,.369,.615,.299,.999-.249,1.997-.496,3.012-.672,.341-.059,.4-.197,.219-.489-.215-.347-.443-.687-.68-1.02-.27-.379-.552-.753-1.062-.49Zm14.359,16.032c.802-.391,1.444-.868,2.146-1.235,.498-.261,.771-.568,.585-1.159-.049-.156,.004-.342,0-.514-.007-.304-.072-.596-.201-.872-.087-.186-.216-.25-.415-.158-.898,.414-1.797,.825-2.697,1.233-.21,.095-.278,.215-.191,.454,.264,.724,.502,1.457,.772,2.252Zm-19.08-6.84c-.04,.374,.099,.699,.158,1.037,.064,.367,.111,.393,.468,.241,1.223-.523,2.448-1.042,3.71-1.467,.294-.099,.296-.265,.21-.494-.121-.321-.238-.644-.369-.962-.205-.497-.237-.508-.769-.305-1.003,.382-1.986,.813-2.972,1.236-.359,.154-.52,.355-.435,.715Zm-4.752,3.829c.477-.144,.803-.391,1.162-.565,.928-.449,1.855-.899,2.783-1.347,.215-.103,.485-.192,.398-.495-.115-.4-.12-.806-.161-1.212-.027-.267-.143-.388-.429-.251-1.202,.575-2.389,1.179-3.562,1.813-.18,.097-.304,.235-.289,.461,.033,.509,.062,1.019,.097,1.595Zm-5.064,3.013c.083,0,.134,.016,.164-.002,1.33-.837,2.654-1.683,4.023-2.457,.12-.068,.25-.157,.233-.284-.078-.56,.004-1.139-.152-1.734-.327,.137-.689,.194-.753,.513-.1,.508-.439,.577-.844,.621-1.021,.112-1.818,.721-2.499,1.377-.47,.452-.168,1.237-.204,1.874-.001,.02,.014,.04,.034,.091ZM28.64,2.666c-.913,.115-1.826,.224-2.737,.347-.268,.036-.299,.2-.168,.415,.368,.604,.742,1.205,1.1,1.815,.117,.199,.266,.269,.478,.219,.852-.201,1.702-.408,2.572-.53,.346-.048,.396-.183,.203-.484-.346-.541-.715-1.068-1.072-1.602-.091-.136-.209-.213-.375-.181ZM12.303,33.795c-.616-.926-1.176-1.766-1.732-2.607-.128-.194-.277-.308-.534-.265-.642,.108-1.291,.044-1.937,.068-.137,.005-.31-.066-.406,.159,.598,1.005,1.304,1.949,2.106,2.825,.209,.228,.378,.405,.666,.097,.069-.074,.244-.051,.371-.069,.463-.067,.926-.132,1.467-.208Zm29.48-7.327c-.098,.006-.151-.007-.179,.014-.967,.722-1.914,1.472-2.926,2.133-.188,.123-.219,.305-.214,.508,.015,.563-.03,1.12-.13,1.675-.021,.119-.056,.254,.05,.353,.05,0,.101,.016,.132-.002,1.049-.603,2.015-1.324,2.959-2.077,.086-.068,.172-.146,.176-.26,.026-.771,.286-1.53,.131-2.344Zm-4.04-.623c-.237,.007-.342,.084-.449,.156-.786,.527-1.559,1.075-2.364,1.57-.313,.192-.393,.416-.365,.741,.045,.513,.195,1.012,.173,1.535-.013,.308,.188,.301,.388,.184,.835-.489,1.665-.986,2.497-1.48,.166-.099,.234-.25,.226-.434-.032-.746-.069-1.492-.106-2.272Zm-3.203-21.594c-.1-.31-.299-.453-.446-.632-.123-.15-.296-.291-.262-.498,.047-.283-.112-.383-.32-.479-.237-.108-.472-.196-.742-.189-.69,.016-1.38,.004-2.069,.025-.337,.01-.684,.018-1.001,.195,.025,.083,.03,.152,.063,.202,.319,.486,.658,.96,.958,1.457,.171,.284,.382,.329,.694,.328,.546,0,1.055-.224,1.599-.2,.498,.022,.976-.105,1.525-.21Zm-7.978,32.366c-.244-.418-.478-.823-.716-1.227-.265-.449-.273-.472-.757-.333-.903,.259-1.813,.489-2.726,.708-.349,.083-.387,.187-.15,.49,.317,.405,.668,.783,1.003,1.173,.151,.175,.326,.155,.527,.096,.409-.121,.834-.195,1.235-.339,.514-.185,1.098-.182,1.585-.568Zm.851-30.546c-.025,.329,.179,.547,.299,.79,.159,.324,.225,.739,.522,.941,.329,.224,.7-.059,1.055-.106,.043-.006,.087-.002,.129-.01,.652-.121,1.305-.235,1.955-.368,.343-.07,.401-.191,.226-.493-.237-.408-.509-.796-.754-1.2-.105-.174-.227-.213-.427-.181-1.011,.162-2.013,.364-3.004,.626Zm7.529,27.16c.948-.429,1.722-.889,2.488-1.363,.249-.154,.319-.394,.326-.665,.013-.518,.032-1.035,.035-1.553,.002-.352-.078-.41-.366-.249-.771,.432-1.533,.879-2.296,1.323-.131,.077-.26,.17-.255,.346,.019,.685,.043,1.37,.069,2.16Zm1.169-26.592c-.263-.623-.633-1.07-.937-1.555-.115-.184-.287-.245-.502-.179-.355,.108-.724,.075-1.088,.097-.599,.036-1.183,.197-1.788,.214-.299,.009-.353,.162-.2,.436,.188,.337,.421,.651,.591,.996,.155,.315,.349,.424,.709,.392,1.046-.094,2.066-.362,3.215-.401Zm-1.571,.761c-.407,.129-.884,.128-1.348,.208-.292,.05-.328,.172-.171,.465,.294,.549,.606,1.089,.899,1.639,.127,.238,.245,.337,.553,.236,.834-.275,1.687-.492,2.53-.739,.457-.134,.508-.294,.254-.691-.113-.177-.255-.277-.466-.301-.363-.041-.729-.077-1.085-.152-.34-.071-.76-.041-.849-.536-.023-.128-.158-.122-.318-.128Zm-.189,27.891s.007,0,.01,0c0-.15,.004-.301,0-.451-.015-.501-.06-.531-.514-.317-.699,.329-1.388,.678-2.093,.993-.814,.363-.817,.35-.626,1.197,.033,.145,.032,.298,.05,.447,.053,.441,.133,.502,.524,.339,.752-.313,1.479-.68,2.202-1.056,.325-.169,.491-.394,.45-.765-.014-.127-.002-.257-.002-.386Zm-11.73,2.402c-.402-.479-.766-.897-1.111-1.331-.22-.276-.457-.312-.795-.221-.661,.179-1.335,.308-2.007,.444-.253,.051-.579,.054-.644,.322-.062,.26,.217,.446,.397,.626,.073,.073,.182,.112,.279,.159,1.268,.614,2.532,.438,3.881,0ZM28.411,2.047c-.407-.703-.669-1.426-1.615-1.328-.081,.008-.167-.039-.252-.053-.849-.138-1.698-.085-2.659-.057,.372,.668,.746,1.207,1.143,1.734,.13,.172,.308,.116,.476,.101,.941-.087,1.875-.22,2.906-.397Zm-11.202,2.403c.912-.257,1.671-.469,2.428-.687,.243-.07,.267-.219,.169-.446-.203-.472-.378-.957-.565-1.436-.175-.448-.206-.465-.711-.303-.347,.111-.687,.242-1.033,.354-.187,.06-.29,.165-.289,.369,.003,.685,.001,1.37,.001,2.149Zm3.466,31.045c-.022-.375-.289-.562-.466-.794-.283-.369-.409-.967-.879-1.056-.432-.081-.919,.132-1.381,.215-.021,.004-.043,.007-.064,.008-.221,.011-.296,.15-.291,.346,.011,.495,.046,.988,.123,1.479,.045,.287,.178,.418,.479,.367,.839-.142,1.675-.292,2.479-.565Zm23.865-16.968c0-.202,.018-.397-.004-.588-.04-.358-.156-.419-.46-.214-.659,.444-1.3,.916-1.957,1.363-.256,.174-.304,.412-.25,.676,.086,.42,.172,.837,.208,1.268,.03,.353,.169,.39,.454,.127,.538-.495,1.052-1.017,1.591-1.51,.341-.311,.575-.643,.417-1.122Zm-20.63,19.682c.351,.376,.672,.72,.994,1.063,.13,.139,.292,.175,.473,.135,.753-.164,1.507-.327,2.26-.493,.263-.058,.307-.212,.166-.425-.214-.323-.448-.633-.649-.964-.136-.224-.274-.268-.53-.185-.529,.172-1.085,.263-1.607,.452-.339,.123-.732,.099-1.106,.416ZM5.186,25.05c-.024,.294,.138,.541,.202,.811,.028,.118,.137,.144,.26,.107,.697-.21,1.395-.418,2.094-.624,.225-.066,.322-.21,.262-.437-.131-.498-.24-.999-.321-1.508-.047-.297-.191-.352-.454-.185-.635,.405-1.242,.851-1.823,1.332-.162,.134-.247,.293-.22,.503ZM40.601,14.422c.568-.217,1.019-.624,1.506-.964,1.091-.761,1.083-.773,.405-1.903-.011-.018-.019-.038-.03-.057-.109-.206-.251-.246-.479-.158-1.16,.449-1.271,.574-1.487,1.815-.026,.148-.037,.3-.073,.445-.072,.289-.018,.55,.157,.822ZM14.799,36.642c-.647-.726-1.271-1.427-1.897-2.127-.095-.106-.226-.141-.353-.111-.548,.13-1.109,.116-1.663,.17-.285,.027-.33,.173-.121,.382,.501,.5,.99,1.012,1.722,1.197,.372,.094,.734,.251,1.077,.426,.389,.198,.767,.238,1.235,.064Zm26.666-6.623c-.188-.056-.26,.037-.345,.096-.742,.515-1.477,1.039-2.226,1.542-.668,.449-.906,1.138-.632,2.043,1.04-.713,2.057-1.428,2.907-2.333,.328-.349,.409-.868,.295-1.348Zm-10.819,7.499c-.065-.335-.129-.67-.194-1.005-.068-.354-.113-.393-.474-.273-.669,.222-1.332,.461-1.995,.7-.334,.121-.36,.192-.158,.516,.192,.308,.421,.594,.62,.899,.138,.211,.299,.278,.543,.186,.419-.159,.843-.308,1.27-.442,.296-.093,.416-.279,.389-.581Zm9.409-4.22c-.343,.012-.516,.252-.738,.413-1.287,.934-2.596,1.832-3.976,2.624-.185,.106-.418,.19-.419,.444-.002,.309-.125,.618-.023,1.029,2.033-1.218,3.754-2.684,5.157-4.51Zm-5.093,2.39c.124,.068,.211,.036,.281-.007,.658-.403,1.314-.809,1.966-1.222,.086-.055,.202-.147,.209-.229,.041-.524,.277-1.038,.113-1.575-.062-.004-.113-.023-.144-.006-.736,.395-1.47,.794-2.205,1.19-.144,.077-.235,.188-.241,.353-.018,.507-.074,1.016,.021,1.496Zm-21.241-1.23c.527,.77,1.157,1.357,1.768,1.957,.238,.234,.539,.187,.628-.096,.193-.614,.312-1.249,.376-1.89,.017-.168-.068-.305-.267-.275-.803,.123-1.636-.017-2.505,.304Zm10.556,5.137c-.362-.531-.715-.846-1.041-1.179-.212-.216-.479-.182-.563,.096-.136,.449-.456,.521-.836,.562-.577,.062-1.158,.114-1.716,.285-.277,.085-.586,.157-.679,.505,.467,.236,.972,.255,1.438,.411,.142,.048,.335,.053,.367-.145,.06-.371,.326-.322,.583-.347,.765-.075,1.527-.182,2.448-.188Zm9.829-2.544c-.759,.356-1.489,.706-2.226,1.041-.494,.225-.505,.216-.406,.784,.029,.165-.055,.336,.047,.509,.625-.16,1.202-.439,1.772-.723,.972-.484,.903-.222,.886-1.49,0-.018-.021-.036-.074-.121ZM4.753,18.634c-.014,.097-.04,.192,.03,.256,.096,.087,.202,.038,.291-.023,.336-.229,.667-.467,1.004-.695,.887-.602,.89-.613,.336-1.546-.022-.037-.042-.075-.063-.112-.124-.23-.292-.241-.462-.068-.238,.243-.424,.557-.699,.74-.235,.156-.317,.325-.33,.569-.016,.3-.009,.602-.106,.879ZM35.843,4.886c.244,.586,.602,1.014,.892,1.482,.061,.098,.157,.143,.271,.14,.406-.011,.815,.002,1.217-.046,.302-.036,.352-.215,.145-.438-.424-.456-.92-.832-1.409-1.214-.132-.103-.275-.106-.426-.074-.208,.044-.416,.091-.69,.151Zm-10.027,35.136c.163,.423,.404,.617,.847,.463,.136-.048,.3-.027,.45-.022,.48,.016,.93-.165,1.404-.203,.308-.025,.349-.177,.19-.429-.309-.488-.317-.494-.88-.355-.333,.082-.667,.164-.992,.274-.325,.11-.702,0-1.02,.272Zm3.552-.029c.338-.002,.64-.099,.948-.186,.8-.225,.834-.293,.476-1.026-.058-.118-.147-.176-.251-.134-.484,.197-1.028,.256-1.478,.601,.186,.23,.232,.485,.305,.744ZM31.263,1.693c-.899-.262-1.727-.585-2.632-.672,.294,.858,.399,.934,1.209,.91,.322-.009,.644-.003,.966-.016,.139-.006,.304,.043,.458-.222Zm8.178,9.823c.047-.013,.094-.025,.141-.038,.038-.555-.046-1.102-.139-1.647-.025-.144-.088-.29-.167-.414-.159-.248-.367-.134-.566-.048-.151,.065-.271,.141-.174,.334,.302,.604,.604,1.209,.906,1.813Zm-31.492-1.58c-.456,.337-.685,.793-.907,1.248-.154,.317,.09,.751,.436,.827,.13,.028,.202-.027,.235-.145,.176-.627,.216-1.271,.236-1.93Zm17.308,30.638c-.157-.38-.425-.435-.749-.426-.844,.023-1.667,.259-2.516,.226,1.075,.165,2.143,.372,3.265,.2ZM41.473,9.912c-.332,.311-.426,.685-.372,1.131,1.022-.335,1.051-.424,.372-1.131Zm-6.608-6.309c.162,.195,.307,.409,.492,.578,.119,.109,.318,.076,.412-.045,.106-.136-.04-.241-.151-.293-.225-.106-.394-.332-.753-.24Zm7.413,26.431c.269-.38,.478-.713,.541-1.178-.509,.254-.737,.579-.541,1.178ZM5.25,16.056c.199,.013,.284-.118,.377-.225,.075-.086,.087-.189-.016-.271-.105-.083-.201-.044-.266,.05-.08,.118-.171,.24-.096,.446Zm33.108-7.348c-.031-.091-.104-.12-.19-.12-.071,0-.121,.033-.095,.113,.028,.085,.096,.134,.185,.132,.071-.002,.107-.05,.1-.124Z"/>
  </g>
</svg>