<?xml version="1.0" encoding="UTF-8"?>
<svg id="b" data-name="Layer 2" xmlns="http://www.w3.org/2000/svg" width="48.123" height="47.125" viewBox="0 0 48.123 47.125">
  <g id="c" data-name="Layer 1">
    <path d="M14.832,36.213c-1.401,.401-2.521,1.101-3.676,1.718-.921,.492-1.814,1.036-2.724,1.549-.276,.156-.562,.296-.854,.42-.222,.095-.456,.085-.602-.138-.103-.159-.088-.347,.008-.517,.291-.516,.648-.974,1.061-1.406,1.036-1.084,2.048-2.195,2.852-3.467,.321-.508,.831-1.107-.309-1.361-.346-.077-.314-.502-.269-.83,.084-.603-.245-.716-.736-.59-.351,.09-.686,.256-1.041,.316-.582,.098-.853-.237-.649-.803,.138-.383,.372-.73,.518-1.11,.267-.696,.151-1.039-.555-1.256-.732-.225-1.5-.344-2.26-.459-1.433-.217-2.872-.392-4.307-.597-.312-.044-.638-.094-.92-.222-.473-.214-.495-.675-.048-.934,.27-.156,.593-.219,.89-.33,1.614-.605,3.268-1.111,4.758-2.014,.515-.312,.959-.686,1.309-1.171,.266-.368,.204-.701-.196-.907-.564-.29-1.15-.539-1.726-.808-.257-.12-.496-.293-.499-.591-.003-.383,.299-.522,.624-.609,.526-.14,1.062-.253,1.575-.433,.721-.253,.802-.519,.31-1.062-.394-.436-.842-.828-1.293-1.206-.906-.757-1.843-1.477-2.742-2.242-.448-.381-.855-.815-1.248-1.253-.14-.155-.259-.387-.101-.621,.142-.211,.361-.281,.595-.242,.863,.142,1.631,.551,2.421,.894,1.124,.488,2.228,1.028,3.51,.961,.728-.038,1.558,.073,1.919-.715,.345-.752-.34-1.261-.738-1.772-.613-.787-1.323-1.498-1.964-2.264-.289-.345-.525-.737-.757-1.124-.096-.16-.048-.351,.091-.497,.143-.151,.336-.185,.494-.089,.425,.259,.845,.531,1.242,.831,1.015,.767,2.003,1.576,3.161,2.124,.951,.45,1.17,.319,1.281-.744,.152-1.454-.023-2.906-.09-4.355-.071-1.54-.254-3.075-.387-4.612-.012-.136-.017-.272-.031-.408-.048-.468-.044-1.044,.403-1.199,.598-.208,.651,.507,.87,.844,1.067,1.636,2.088,3.302,3.125,4.956,.413,.659,.912,1.245,1.499,1.756,.441,.384,.823,.295,1.16-.139,.398-.512,.615-1.115,.794-1.724,.307-1.044,.566-2.102,.86-3.15,.107-.38,.145-.943,.66-.895,.589,.055,.543,.636,.551,1.087,.019,1.045,.014,2.09,.036,3.135,.009,.407,.026,.821,.108,1.218,.188,.913,.312,.978,1.113,.493,.451-.273,.81-.374,1.189,.076,.489,.581,.965,.348,1.393-.076,.256-.254,.494-.538,.686-.842,1.235-1.96,2.59-3.843,3.718-5.87,.088-.159,.183-.314,.271-.473,.134-.244,.291-.52,.601-.452,.432,.094,.346,.488,.293,.78-.073,.399-.209,.789-.339,1.176-.764,2.282-1.426,4.594-1.997,6.931-.129,.528-.197,1.071-.293,1.606-.082,.455-.174,.947,.274,1.243,.433,.286,.893,.058,1.286-.161,.831-.466,1.646-.962,2.453-1.468,.538-.338,1.047-.723,1.579-1.07,.236-.154,.516-.25,.725,.03,.153,.205,.065,.435-.073,.627-.186,.258-.402,.495-.574,.762-.319,.495-.646,.989-.911,1.513-.243,.483-.541,1.046-.19,1.548,.388,.555,1.024,.432,1.625,.35,2.382-.325,4.752-.71,7.085-1.299,.132-.033,.26-.089,.394-.102,.233-.022,.47,0,.55,.273,.076,.261-.088,.439-.286,.554-.313,.182-.642,.34-.971,.493-1.812,.841-3.655,1.617-5.4,2.598-.677,.381-1.325,.804-1.839,1.391-.477,.545-.444,.833,.182,1.186,.47,.265,.997,.43,1.501,.635,.333,.135,.765,.21,.786,.646,.023,.46-.395,.548-.749,.647-.044,.012-.089,.021-.131,.036-1.367,.495-1.469,.975-.4,1.936,.616,.553,1.354,.906,2.092,1.263,2.746,1.326,5.677,2.186,8.469,3.395,.333,.144,.66,.302,.981,.47,.169,.089,.276,.257,.218,.446-.058,.19-.243,.257-.434,.261-.227,.005-.46,.028-.68-.014-1.459-.281-2.896-.128-4.325,.194-1.253,.282-2.523,.27-3.795,.261-1.59-.012-3.181-.018-4.771-.013-.304,0-.678-.097-.86,.252-.205,.392,.083,.705,.292,.98,.274,.359,.621,.661,.925,.999,.264,.293,.696,.551,.471,1.026-.195,.413-.632,.248-.978,.258-.318,.009-.637-.031-.954-.013-.616,.035-.823,.324-.601,.869,.1,.245,.281,.464,.449,.675,1.245,1.563,2.472,3.138,4,4.453,.652,.561,1.223,1.217,1.826,1.835,.19,.195,.376,.397,.542,.612,.216,.28,.545,.573,.198,.946-.289,.31-.591,.058-.859-.089-1.035-.568-2.064-1.146-3.094-1.723-1.783-.999-3.565-2-5.429-2.845-.289-.131-.58-.262-.876-.377-1.472-.57-1.837-.352-2.055,1.223-.148,1.069-.162,1.111-1.272,.757-.582-.185-.854,.027-1.073,.49-.274,.578-.449,1.187-.572,1.812-.288,1.469-.574,2.938-.868,4.405-.062,.311-.151,.617-.235,.923-.076,.279-.227,.525-.54,.52-.395-.006-.517-.319-.562-.65-.153-1.124-.264-2.255-.451-3.373-.248-1.483-.946-2.741-2.098-3.718-.617-.524-.846-.473-1.318,.182-.079,.109-.132,.238-.192,.361-.123,.255-.288,.499-.59,.492-.387-.009-.496-.332-.581-.648-.047-.175-.098-.348-.147-.522-.157-.556-.418-.811-.938-.327-.066,.062-.134,.123-.207,.178-.253,.19-.507,.442-.847,.21-.404-.276-.179-.629-.1-.979,.147-.645,.558-1.251,.324-2.117Zm-.53-32.041c-.068,.026-.136,.051-.204,.077,.28,1.465,.578,2.927,.836,4.396,.346,1.971,.613,3.951,.49,5.962-.123,2.022-1.416,3.416-3.661,2.789-1.536-.429-3.026-.958-4.487-1.59-.799-.345-1.602-.693-2.726-.788,.378,.332,.572,.513,.778,.682,1.546,1.267,3.106,2.519,4.552,3.903,.724,.693,1.432,1.408,1.837,2.347,.552,1.283,.185,2.248-1.104,2.757-.713,.281-1.472,.457-2.222,.63-1.982,.458-3.995,.791-5.989,1.377,.395,.424,.858,.367,1.3,.43,2.165,.308,4.354,.209,6.525,.408,1.046,.096,2.073,.259,3.049,.658,1.795,.734,2.287,2.141,1.338,3.854-.399,.719-.935,1.34-1.496,1.938-.787,.837-1.571,1.677-2.356,2.515,1.972-.679,3.994-1.079,5.707-2.246,.484-.33,1.033-.575,1.574-.809,1.571-.68,2.379-.294,2.847,1.355,.459,1.616,.824,3.256,1.101,4.913,.071,.423,.151,.828,.381,1.231,.235-.289,.218-.571,.271-.835,.337-1.69,.571-3.405,1.101-5.049,.897-2.78,2.127-3.155,4.339-1.329,1.999,1.65,4.036,3.247,6.173,4.714,.371,.254,.709,.618,1.392,.579-.424-.447-.728-.78-1.045-1.1-1.505-1.516-3.014-3.029-4.521-4.543-.515-.517-.981-1.076-1.346-1.709-.927-1.61-.407-2.734,1.392-3.072,.901-.17,1.817-.076,2.718-.174,3.294-.359,6.599-.549,9.908-.677,.317-.012,.682,.101,1.049-.26-.618-.221-1.122-.411-1.632-.581-3.016-1.005-6.037-1.997-8.986-3.187-1.012-.408-2.023-.834-2.825-1.611-1.001-.971-1.014-1.842-.01-2.797,.926-.88,1.966-1.611,3.091-2.222,.666-.361,1.324-.74,2.126-1.19-.431-.159-.633-.092-.849-.043-1.283,.29-2.56,.627-3.857,.831-3.294,.517-4.224-1.336-3.715-3.657,.146-.664,.324-1.325,.545-1.967,.399-1.159,.862-2.296,1.258-3.457,.316-.927,.717-1.836,.857-2.951-.606,.469-.78,1.055-1.051,1.564-.878,1.647-1.826,3.248-2.901,4.773-.796,1.129-1.762,2.087-2.963,2.774-1.683,.963-3.184,.626-4.237-1-.591-.912-1.092-1.887-1.577-2.862-.946-1.904-1.851-3.829-2.774-5.745Z"/>
  </g>
</svg>