<?xml version="1.0" encoding="UTF-8"?>
<svg id="b" data-name="Layer 2" xmlns="http://www.w3.org/2000/svg" width="42.716" height="43.097" viewBox="0 0 42.716 43.097">
  <g id="c" data-name="Layer 1">
    <path d="M6.706,43.035c-.818,.125-1.574,.035-2.321-.043-1.661-.173-2.59-1.579-2.15-3.177,.316-1.147,1.292-1.839,2.476-1.709,.646,.071,1.283,.216,1.926,.318,.748,.119,1.504,.216,2.218-.132,.608-.297,.666-.671,.142-1.087-.427-.339-.906-.618-1.384-.885-.721-.401-1.444-.799-2.067-1.341-1.251-1.088-1.962-2.462-2.007-4.127-.062-2.292,1.395-3.489,3.658-3.034,.637,.128,1.268,.293,1.895,.466,.489,.135,.957,.065,1.412-.101,1.002-.365,1.262-1.092,.708-2.015-.354-.59-.728-1.17-.904-1.839-.149-.563-.222-1.135-.114-1.728,.186-1.026-.057-1.973-.634-2.837-.747-1.116-1.557-2.178-2.652-2.982-.507-.372-1.056-.644-1.718-.545-.885,.132-1.249,.789-.801,1.551,.294,.499,.683,.942,1.042,1.401,.551,.704,1.087,1.421,1.396,2.268,.368,1.009,.501,2.045-.287,2.912-.84,.924-1.949,.934-3.051,.603C1.024,24.228-.275,22.187,.049,19.62c.094-.746,.22-1.49,.351-2.231,.237-1.344-.015-2.657-.235-3.971-.109-.648-.146-1.296-.09-1.946,.19-2.216,2.346-3.277,4.208-2.07,.641,.416,1.15,.978,1.593,1.592,.441,.611,.846,1.248,1.263,1.877,.629,.949,1.344,1.818,2.244,2.527,.614,.484,1.311,.745,2.079,.799,1.512,.106,2.436-1.227,1.777-2.582-.33-.677-.758-1.306-1.097-1.978-.962-1.905-1.334-3.881-.592-5.956,.498-1.394,1.383-2.514,2.529-3.435C16.98-.086,21.284-.87,24.864,1.19c2.028,1.167,3.247,2.839,3.128,5.257-.049,.99-.366,1.945-.727,2.878-.484,1.25-1.143,2.417-1.67,3.645-.474,1.105-.912,2.224-.919,3.453-.002,.306,.016,.621,.084,.918,.068,.298,.196,.649,.503,.729,.392,.102,.467-.331,.626-.564,.429-.626,.861-1.237,1.513-1.66,1.125-.731,2.303-.66,3.302,.244,.457,.414,.875,.871,1.309,1.31,.341,.345,.725,.631,1.169,.826,.907,.398,1.726,.295,2.449-.42,.633-.627,1.239-1.287,1.982-1.791,.72-.488,1.473-.843,2.384-.825,1.037,.021,1.754,.484,2.232,1.379,1.397,2.616-.36,6.191-3.3,6.737-1.582,.294-3.07,.052-4.465-.735-.596-.336-1.158-.734-1.746-1.087-.47-.282-.94-.57-1.437-.798-1.239-.567-2.397-.508-3.386,.543-.047,.05-.105,.09-.149,.142-1.326,1.541-2.902,1.626-4.648,.82-.433-.2-.89-.365-1.352-.485-1.225-.318-2.186,.304-2.428,1.537-.42,2.142,1.578,4.327,3.748,4.092,.819-.089,1.612-.308,2.414-.489,1.533-.346,3.067-.741,4.666-.353,.612,.149,1.177,.377,1.681,.742,1.175,.851,1.553,2.088,1.047,3.451-.191,.513-.445,1.003-.658,1.508-.283,.67-.475,1.363-.422,2.098,.055,.768,.458,1.056,1.174,.806,.417-.146,.811-.368,1.201-.583,.664-.365,1.349-.671,2.09-.842,2.139-.492,4.3,.927,4.683,3.078,.282,1.581-.445,2.94-1.918,3.598-.633,.283-1.305,.441-1.984,.501-2.286,.204-4.574,.457-6.868,.099-.369-.058-.742-.15-1.085-.292-1.003-.414-1.473-1.171-1.455-2.252,.009-.519,.145-1.014,.265-1.514,.184-.766,.403-1.529,.505-2.307,.241-1.839-.776-3.237-2.485-3.553-.537-.099-1.016,.047-1.504,.2-.659,.206-1.26,.544-1.857,.878-1.72,.962-3.515,1.051-5.372,.506-1.051-.309-2.103-.618-3.152-.932-.833-.249-1.687-.285-2.547-.252-.729,.027-1.32,.356-1.791,.891-.665,.754-.555,1.446,.302,1.958,.444,.266,.936,.418,1.431,.564,.624,.185,1.258,.354,1.853,.608,1.812,.774,2.818,2.404,2.751,4.308-.038,1.073-.547,1.809-1.48,2.286-.745,.381-1.549,.531-2.371,.616-1.84,.189-3.679,.386-5.47,.373ZM25.613,8.797c-.017-.221-.003-.536-.069-.834-.212-.96-.87-1.212-1.672-.663-1.237,.847-2.264,3.495-1.923,4.966,.039,.167,.07,.339,.138,.494,.31,.71,.83,.869,1.485,.432,.253-.169,.489-.383,.679-.62,.866-1.074,1.346-2.296,1.363-3.776Zm-6.157,4.143c-.029-1.134-.311-2.113-.75-3.052-.286-.612-.743-1.066-1.343-1.363-.878-.434-1.57-.059-1.699,.902-.208,1.554,.793,3.619,2.129,4.407,.397,.234,.811,.412,1.26,.197,.512-.246,.354-.758,.403-1.09Z"/>
  </g>
</svg>