<svg id="Layer_1" data-name="Layer 1" xmlns="http://www.w3.org/2000/svg" viewBox="0 0 800 800"><defs><style>.cls-1{fill:#222;}</style></defs><path class="cls-1" d="M66.4,602.49c-6.84-12.26-15.1-28.09-21.81-41.9C55,583.34,57.19,587.38,66.4,602.49Z"/><path class="cls-1" d="M197.06,733.21c.76.45,1.53.91,2.32,1.36l1.07.57c-2.08-1.25-4-2.41-5.8-3.52Z"/><path class="cls-1" d="M102,651.83l.13.14-.2-.24A.86.86,0,0,0,102,651.83Z"/><path class="cls-1" d="M256.81,763l-5.12-2.11C253.39,761.58,255.09,762.29,256.81,763Z"/><path class="cls-1" d="M70.19,608.4c.67,1,1.35,2,2,3L70.6,609Z"/><path class="cls-1" d="M66.45,602.59l.13.2-.18-.3Z"/><path class="cls-1" d="M101.9,651.73C92.7,640,81.32,624.54,72.24,611.39,87.6,634.25,90.81,638.75,101.9,651.73Z"/><path class="cls-1" d="M70.19,608.4l-1.78-2.62C69,606.65,69.55,607.53,70.19,608.4Z"/><path class="cls-1" d="M257.66,763.32l.12,0-1-.39Z"/><path class="cls-1" d="M194.65,731.62c-8.29-5.45-14.13-9.28-18.69-12.36C182,723.58,187.34,727.13,194.65,731.62Z"/><path class="cls-1" d="M176,719.26c-6.28-4.53-13.29-9.91-24-18.15A265.58,265.58,0,0,0,176,719.26Z"/><path class="cls-1" d="M231.17,751.69c-6-2.94-12.73-6.53-23.63-12.31C218,745.24,222.81,747.82,231.17,751.69Z"/><path class="cls-1" d="M202,736.14l-1.57-.91,7.12,4.15-4.23-2.52Z"/><path class="cls-1" d="M104.39,654.66l1.11,1.28-.94-1.1Z"/><path class="cls-1" d="M144,694.36l1.39,1.2c.37.32.76.64,1.16,1l-2.64-2.25Z"/><path class="cls-1" d="M41.62,554.37c-.37-.77-.73-1.55-1.08-2.3C40.86,552.84,41.23,553.6,41.62,554.37Z"/><path class="cls-1" d="M148.22,698l3.71,3.1-2.43-2.05Z"/><path class="cls-1" d="M21.6,304.5c-.05.18-.08.36-.13.54.23-.82.47-1.67.71-2.54Z"/><path class="cls-1" d="M11.19,367.4c.11-1.27.24-2.54.37-3.81-.09.73-.18,1.45-.27,2.14S11.21,366.84,11.19,367.4Z"/><path class="cls-1" d="M19.46,486.72C16.91,472.94,14,455.15,12,440.12,13.27,452.76,15.33,465.37,19.46,486.72Z"/><path class="cls-1" d="M41.62,554.37c.94,2,1.94,4.09,3,6.22-.67-1.48-1.39-3-2.14-4.68C42.16,555.4,41.88,554.88,41.62,554.37Z"/><path class="cls-1" d="M23.79,296.94c1.88-6.4,4.37-14.52,7.86-25.89C29,278.63,26.27,288.31,23.79,296.94Z"/><path class="cls-1" d="M11.16,433c.27,2.29.56,4.69.88,7.16-.17-1.79-.33-3.59-.48-5.41C11.43,434.14,11.3,433.56,11.16,433Z"/><path class="cls-1" d="M136.45,112.36l-.6.59c.44-.4.87-.82,1.32-1.22Z"/><path class="cls-1" d="M9.81,400.42q0,6.51.21,13l.84,15.68c.15,1.09.32,2.11.51,3.1-.65-8.94-1-18.75-1.55-32.24C9.82,400.1,9.81,400.26,9.81,400.42Z"/><path class="cls-1" d="M22.18,302.5c.52-1.78,1.06-3.65,1.61-5.56C23.2,299,22.67,300.78,22.18,302.5Z"/><path class="cls-1" d="M13.42,348c-.74,5.15-1.35,10.35-1.86,15.57C12.15,358.79,12.76,353.37,13.42,348Z"/><path class="cls-1" d="M38.8,547.91C34.1,535,28.53,518.49,24.13,504,30.37,526.93,31.74,530.49,38.8,547.91Z"/><path class="cls-1" d="M21.24,494.22c.88,3.1,1.85,6.38,2.89,9.78-.49-1.77-1-3.67-1.55-5.7A34.08,34.08,0,0,1,21.24,494.22Z"/><path class="cls-1" d="M47.88,232.36c2.55-5.18,5.69-11.48,9.74-19.58C54.54,218.53,51.14,225.51,47.88,232.36Z"/><path class="cls-1" d="M39.08,548.59c.37.9.8,1.79,1.26,2.69l-1.54-3.37Z"/><path class="cls-1" d="M82,174.4c3-4.1,6.44-8.91,10.7-14.79C89.36,164,85.68,169.14,82,174.4Z"/><path class="cls-1" d="M258,763.46l.3.12c2.16.84,4.41,1.65,6.72,2.45l-7.27-2.67Z"/><path class="cls-1" d="M20.33,490.48a35.16,35.16,0,0,0,1.17,3.8c-.64-2.36-1.31-4.86-2-7.56Z"/><path class="cls-1" d="M717.44,626.41c-3.33,4.55-7.39,10-12.59,17.06C708.83,638.48,713.17,632.5,717.44,626.41Z"/><path class="cls-1" d="M602,733.78l5.51-3.4-2.39,1.46C604.08,732.49,603.05,733.14,602,733.78Z"/><path class="cls-1" d="M653.35,696.65l7.23-6.33c-3.72,3.22-6.93,6-9.85,8.44C651.64,698.06,652.52,697.35,653.35,696.65Z"/><polygon class="cls-1" points="704.85 643.47 704.85 643.47 704.85 643.48 704.85 643.47"/><path class="cls-1" d="M600,734.94c.36-.21.71-.44,1.07-.66l-1.6,1Z"/><path class="cls-1" d="M674,677.34c-3.69,3.59-8,7.8-13.41,13C664.78,686.5,669.37,682,674,677.34Z"/><path class="cls-1" d="M594.59,738.11c-8,4.34-13.65,7.42-18.35,9.88C582,745.1,588,741.89,594.59,738.11Z"/><path class="cls-1" d="M734.17,198.44l-.68-1.15,6.44,11Q737.13,203.31,734.17,198.44Z"/><path class="cls-1" d="M596.12,737.28h0l1.29-.77c-.46.27-1,.53-1.43.79l-1.39.81Z"/><path class="cls-1" d="M576.24,748c-11,5.53-21.14,9.89-32.55,14.8C559.94,756,565.65,753.55,576.24,748Z"/><path class="cls-1" d="M788.71,434.24c0,.2-.08.42-.12.62-.9,8.32-2.35,18.62-4.75,35.54C785.93,459.66,787.32,445.1,788.71,434.24Z"/><path class="cls-1" d="M738.45,594.2c.12-.2.23-.41.34-.6l-.61,1.06Z"/><path class="cls-1" d="M256.81,37c-1.57.61-3.14,1.23-4.71,1.88l9.78-3.85Z"/><path class="cls-1" d="M137.17,111.73l.06-.06Z"/><path class="cls-1" d="M145.47,104.36q-2.83,2.43-5.61,4.92l6.86-6C146.29,103.64,145.88,104,145.47,104.36Z"/><path class="cls-1" d="M774.67,508.41c-1.89,6.14-4.33,13.81-7.64,24.25C769.64,525.58,772.26,516.78,774.67,508.41Z"/><path class="cls-1" d="M740.48,590.63l.52-1c-.74,1.33-1.46,2.66-2.21,4Z"/><polygon class="cls-1" points="767.03 532.66 767.03 532.66 767.03 532.66 767.03 532.66"/><path class="cls-1" d="M442.07,787.94c-2.77.3-5.55.56-8.35.8l-1.74.16C435,788.67,439,788.23,442.07,787.94Z"/><path class="cls-1" d="M386.56,790l-6.49-.26C382,789.8,384.33,789.88,386.56,790Z"/><path class="cls-1" d="M405.43,790.17l-8.43,0C400.63,790.23,401.94,790.24,405.43,790.17Z"/><path class="cls-1" d="M380.07,789.7c-4.1-.25-6.75-.42-8.76-.56C374.93,789.44,376.29,789.51,380.07,789.7Z"/><path class="cls-1" d="M414,790l-8.58.2C408.94,790.14,410.34,790.1,414,790Z"/><path class="cls-1" d="M423,789.54l.19,0L414,790C416.7,789.87,420.28,789.67,423,789.54Z"/><path class="cls-1" d="M346.54,786.53c1.86.26,3.76.5,5.66.73L343.07,786Z"/><path class="cls-1" d="M332.05,784.24c-2.53-.47-5.94-1.12-11.29-2.15C325.62,783.1,327.62,783.5,332.05,784.24Z"/><path class="cls-1" d="M343.07,786c-5.14-.83-8.48-1.37-11-1.8C336.51,785.07,338.26,785.33,343.07,786Z"/><path class="cls-1" d="M466.07,784.56c18.55-3.47,27.21-5.53,40.19-9.24-12.69,3.61-24.49,6.24-36.45,8.44C468.57,784.05,467.33,784.32,466.07,784.56Z"/><path class="cls-1" d="M521.3,770.85l9.05-3.12-3.17,1-1,.36Z"/><path class="cls-1" d="M298.71,776.79l-5.26-1.39Z"/><path class="cls-1" d="M517.79,772c1.21-.41,2.4-.85,3.6-1.28-5,1.63-9.81,3.12-14.5,4.46C510.17,774.21,513.72,773.17,517.79,772Z"/><path class="cls-1" d="M530.35,767.73c1.19-.4,2.36-.8,3.49-1.2Z"/><path class="cls-1" d="M452.12,786.72l.17,0,10.58-1.59c1.28-.23,2.55-.49,3.82-.78-4.81.85-9.66,1.64-14.62,2.4Z"/><path class="cls-1" d="M539.39,764.46l4.3-1.67c-3.78,1.44-7.43,2.77-11,4C535,766.06,537.26,765.27,539.39,764.46Z"/><path class="cls-1" d="M506.89,775.15l-.63.17Z"/><path class="cls-1" d="M13.42,348q.49-3.5,1.05-7c.31-2.35.63-4.85,1-7.52C14.71,337.89,14,342.92,13.42,348Z"/><path class="cls-1" d="M656.43,106c.76.7,1.48,1.41,2.16,2.11l6.15,5.28Z"/><path class="cls-1" d="M778.76,305.78c-.35-1.38-.73-2.82-1.14-4.3.55,2.35,1.14,4.95,1.79,7.93A30.73,30.73,0,0,0,778.76,305.78Z"/><path class="cls-1" d="M779.66,309.47a31.11,31.11,0,0,1,.66,4.13c1.2,5.62,2.64,12.49,4.47,21.22Z"/><path class="cls-1" d="M761.57,253.13c-.2-.6-.43-1.2-.68-1.8Z"/><path class="cls-1" d="M761.57,253.13c.31.88.57,1.77.8,2.65,1.81,4.6,3.92,10,6.47,16.52Z"/><path class="cls-1" d="M788.84,367c-.07-.83-.16-1.71-.25-2.58.11,1.71.22,3.54.33,5.55C788.93,369,788.92,368,788.84,367Z"/><path class="cls-1" d="M784.79,334.82c1.12,8.83,2.88,20.3,3.8,29.63C787.88,353.83,787,348,784.79,334.82Z"/><path class="cls-1" d="M731.52,194.1c-.64-1-1.31-2-2-3.07,1,1.51,1.94,3,2.88,4.55C732.12,195.09,731.83,194.59,731.52,194.1Z"/><path class="cls-1" d="M137.23,111.67c1.69-1.53,3.41-3,5.14-4.52C140.76,108.55,139.06,110.06,137.23,111.67Z"/><path class="cls-1" d="M699.34,149.77c.63.82,1.21,1.64,1.76,2.46l7.16,8.52Z"/><path class="cls-1" d="M699.34,149.77c-.44-.57-.9-1.14-1.39-1.71Z"/><polygon class="cls-1" points="664.74 113.41 664.74 113.41 664.74 113.41 664.74 113.41"/><path class="cls-1" d="M733.32,197.29c-1-1.67-2.1-3.32-3.16-5,1.13,1.86,2.36,3.9,3.7,6.15C733.69,198.08,733.51,197.68,733.32,197.29Z"/><path class="cls-1" d="M735.08,200.16c.26.52.5,1.05.73,1.57,2,3.38,4.29,7.2,6.9,11.59Q739,206.66,735.08,200.16Z"/><path class="cls-1" d="M789.14,370.9l.08,2.23C789.22,372.39,789.2,371.65,789.14,370.9Z"/><path class="cls-1" d="M759.44,247.86l-1.94-4.22c1,2.47,2.13,5.24,3.4,8.42A31.75,31.75,0,0,0,759.44,247.86Z"/><path class="cls-1" d="M768.84,272.3c2.62,8.67,6.19,19.77,8.78,29.18C775.07,290.64,773.24,285.17,768.84,272.3Z"/><path class="cls-1" d="M319.56,18.27c-2.78.6-6.05,1.33-10.17,2.24,1.19-.32,2.39-.62,3.59-.91-2.37.54-4.73,1.11-7.07,1.76C288.2,26,285,27.07,267.43,33c-2.4.83-5.56,2.09-7.94,3,2.14-.8,4.29-1.56,6.45-2.3a378.74,378.74,0,0,1,54.71-15.61Z"/><path class="cls-1" d="M105.5,655.94c2.61,2.9,5.56,6.06,8.65,9.29l-1.06-1.2C110.8,661.6,108.3,658.93,105.5,655.94Z"/><path class="cls-1" d="M365.32,788.64l-2.92-.25c3.82.37,5.28.51,8.91.75l-4.42-.36Z"/><path class="cls-1" d="M135.85,113c-1.82,1.67-3.64,3.34-5.42,5-3.29,3.2-6.94,7-10.62,10.84C124,124.65,129.1,119.6,135.85,113Z"/><path class="cls-1" d="M607.51,730.38h0Z"/><path class="cls-1" d="M790.2,400.64,789,430.37a33.71,33.71,0,0,1-3.75,12.79q1.05-13.56,1.08-27.42t-1-27.51a33.5,33.5,0,0,0,3.78-13.38c-.08-1.73-.16-3.34-.24-4.85a33.21,33.21,0,0,1-3.81,14.64,371.22,371.22,0,0,0-8.37-53.44,31.61,31.61,0,0,0,3.58-17.6c-.32-1.48-.62-2.87-.91-4.19a31.34,31.34,0,0,1-3.49,18.35,375.74,375.74,0,0,0-16.24-50.85,29.44,29.44,0,0,0,2.69-21.13q-.78-2-1.47-3.72a29.29,29.29,0,0,1-2.53,21.6,387.25,387.25,0,0,0-23.44-47.57,27.35,27.35,0,0,0,.88-24.36c-.67-1.13-1.32-2.22-1.95-3.26a27.19,27.19,0,0,1-.7,24.62,397.77,397.77,0,0,0-30-43.66,24.87,24.87,0,0,0,.14-23.46,355.51,355.51,0,0,1,26.87,36.35c-.85-1.4-1.64-2.69-2.4-3.92l1.76,2.63-2.31-3.53c-6.42-10.32-10-15.15-19-26.75,2.3,3.21,4.86,6.76,7.49,10.44q-6.39-8.58-13.29-16.77c-.42-.73-.88-1.46-1.36-2.19l-2.31-2.74c.53.78,1,1.57,1.48,2.35a358.55,358.55,0,0,0-35.87-36.11,38.27,38.27,0,0,0-5.81-7.6c-.81-.69-1.62-1.39-2.43-2.07a37.69,37.69,0,0,1,5.7,7.48,361.88,361.88,0,0,0-41.14-30.47c-2.44-4.3-6.57-8.58-12.43-12.77,7.8,5.13,13.33,8.79,17.82,11.87C620,77.79,613.45,73.36,606,68.73q-1.54-1-3.24-2l1,.65-1.88-1.15c7.78,4.92,13.07,10,16,15.08a365.08,365.08,0,0,0-45.78-24.22c-2.53-4.47-7.37-8.91-14.69-13.2,12,5.45,27.94,12.84,39.71,19.46-1.52-.9-3.05-1.79-4.63-2.71h0c-7.46-4-13-6.88-17.63-9.28-6.34-3.08-12.8-6-19.39-8.57-2.13-1.18-4.43-2.32-6.85-3.42,7.52,3.2,12.7,5.43,17.08,7.43-5.79-2.77-11.4-5.19-20.15-8.79l-.71-.29-2.47-1,.5.21-.73-.3-1.28-.47a111.32,111.32,0,0,1,11.74,5.51,290.94,290.94,0,0,0-45-13.22,101.29,101.29,0,0,0-19.69-7.84A189.33,189.33,0,0,1,511.36,26c5.63,1.81,12.6,4.1,18.93,6.27C520,28.51,517,27.59,507.1,24.75c-.76-.22-1.52-.41-2.28-.62l-3.36-.89q-7.43-1.86-15.07-3.13a226.89,226.89,0,0,0-26.23-5.66c.63.08,1.26.18,1.89.28,3.56.63,7.94,1.41,12,2.17C464.36,15,463.47,14.91,457,14l2.52.38-1.21-.18c-.75-.12-1.51-.22-2.26-.33l-3.25-.44c1.29.18,2.59.36,3.86.56a86.35,86.35,0,0,0-25.83.88c-5-.77-10.42-1.35-16-1.72a20.81,20.81,0,0,1,11-2.48l6,.47c-6.17-.52-7.13-.57-11.82-.81l3.75.21a17.94,17.94,0,0,0-10,2.54c-5.61-.34-11.4-.47-17.21-.37-1.07-1.93-2.12-2.86-3.15-2.84-2.66,0-4.12.08-7.33.2l5.33-.16c1.3,0,2.64.89,4,2.82-5.8.13-11.61.49-17.27,1.09a50,50,0,0,0-18.31-1.9c-5.23.52-6.89.73-11.78,1.39l-2.16.34c1.19-.18,2.37-.36,3.6-.52q3.54-.48,7.12-.88a54.47,54.47,0,0,1,20.42,1.69c-1.29.14-2.57.3-3.84.47-4.27.58-8.21,1.27-11.77,2.06a147.14,147.14,0,0,0-33.81.49c2.83-.63,5.81-1.22,8.89-1.78q-3.63.63-7.13,1.27l-3.92.81-1.79.29-2.92.59c1-.17,2-.34,3-.49a145.87,145.87,0,0,0-22.33,6.84,250.15,250.15,0,0,0-35.36,9.26c-2.53.92-5.11,1.87-7.75,2.87A254,254,0,0,1,300.1,25a51.36,51.36,0,0,0-13.92,8.23A338.73,338.73,0,0,0,238,48.41c4.59-4.1,11.19-8,19.63-11.63l-2.83,1.08c-8.54,3.67-15.22,7.64-19.88,11.8A334.49,334.49,0,0,0,190.59,71.9a65.23,65.23,0,0,1,8.26-6.16l-3.09,1.87,2.8-1.74c-1,.6-2,1.2-2.91,1.81-2.2,1.34-4.42,2.72-6.72,4.19l6.57-4.09a63.73,63.73,0,0,0-7.69,5.81q-7.78,4.77-15.3,10c4.06-3,8.09-5.86,11.88-8.52C168.4,86.12,161,91.36,151,99.79l.13-.11-.52.43c-2.05,1.73-4.22,3.58-6.61,5.66-6.74,6.45-10.34,13.18-10.56,20A381.32,381.32,0,0,0,97,163.23c.2-6.51,3.13-12.95,8.63-19.21,4.24-4.53,9.26-10,14.23-15.19-11.53,11.59-15.75,16.56-27.11,30.78l10.37-12.68c-5.31,6.18-8.15,12.54-8.35,18.95a373.26,373.26,0,0,0-30.47,42.31,30.23,30.23,0,0,1,5-15.29c3.78-5.54,8.23-12.1,12.71-18.5-12.49,17.37-15.13,21.75-24.38,38.38L66.22,198a29.35,29.35,0,0,0-3.77,13.16A366.55,366.55,0,0,0,38.6,257.63a30.14,30.14,0,0,1,2.54-11c2-4.31,4.36-9.25,6.74-14.26-8.52,17.33-10.3,22-16.23,38.69l8-21a30.23,30.23,0,0,0-2.42,10.74,360.12,360.12,0,0,0-16.58,50.12,30.52,30.52,0,0,1,.79-5.9c-2.64,9.68-3.77,15.73-6,28.5l4.85-23.45a29.07,29.07,0,0,0-.46,4.25q-3.18,13.19-5.37,26.72c-1.76,13.55-2.85,22.08-3.52,28.88l0-.33c0,.11,0,.22,0,.34-1,10-1.08,16.31-1.15,29.4,0,.2,0,.39,0,.59q0-13.62,1.08-27c.34,10,5.69,20.08,16.41,30q-1,13.69-1,27.55t.94,27.39C18,448,13.43,443,11.37,432.18c.06.85.12,1.69.19,2.53,2.25,9.82,3.92,15,15.92,26.71a360.37,360.37,0,0,0,8.09,52.43c-7-6.47-11.65-13-14.07-19.57.37,1.4.73,2.73,1.08,4,2.48,6.34,7,12.67,13.79,18.92a346.51,346.51,0,0,0,15.69,48.87,54.19,54.19,0,0,1-11.72-14.81l2.11,4.63a56,56,0,0,0,10.88,13.27A337.53,337.53,0,0,0,76,613.92a53.45,53.45,0,0,1-9.43-11.13l1.11,1.81L70.6,609a59.11,59.11,0,0,0,7.11,7.77,333.49,333.49,0,0,0,29.05,40.07A58,58,0,0,1,102.1,652l2.46,2.87a57.29,57.29,0,0,0,4.31,4.42c1.38,1.61,2.8,3.19,4.22,4.77l4.18,4.44-3.12-3.24q7.06,7.82,14.62,15.15c5,5,9.19,8.82,15.1,13.89-10.31-9.75-23.74-23-33.3-33.48a104.47,104.47,0,0,0,16.54,11.39,191.23,191.23,0,0,0,22.25,10.64,272.12,272.12,0,0,0,29.92,31.95,165.9,165.9,0,0,1-19.58-9.36,93.67,93.67,0,0,1-13.19-8.89c1,.81,1.94,1.66,3,2.54a96.06,96.06,0,0,0,12.5,8.35,169,169,0,0,0,19.39,9.27,255.43,255.43,0,0,0,34.33,25.7,142.62,142.62,0,0,1-15.27-7.24l2.86,1.72a141.4,141.4,0,0,0,14.8,7,247.1,247.1,0,0,0,22.14,12c-3.56-1.59-6.49-2.92-9.08-4.12,5.08,2.51,9.59,4.56,15.57,7.09,1.85.82,3.7,1.62,5.58,2.39l-1.88-.83,1.25.52L249,759.7l-1.28-.57a239.3,239.3,0,0,1-27.22-14.33A289.7,289.7,0,0,0,263,757.27a150.41,150.41,0,0,0,28.75,16.1A252.23,252.23,0,0,1,265.05,766l3.08,1.12c-1.79-.61-3.53-1.22-5.15-1.79,2,.77,4.19,1.51,6.39,2.24,10.82,3.93,13.66,4.79,24.08,7.8-6.69-2.06-14.94-4.73-22.44-7.27,6.94,2.23,14.54,4.25,22.69,6a137.41,137.41,0,0,0,21.62,6.74c-4.93-1.18-11.09-2.7-16.61-4.13,12.62,3.34,13.57,3.53,22.05,5.3l-2.3-.48a133.23,133.23,0,0,1-22.31-6.89c12.52,2.66,26.25,4.82,40.74,6.43a51.85,51.85,0,0,0,18.46,6.48l-3.15-.37c4.42.57,5.85.71,10.2,1.13l-3.47-.35-.36,0c2.22.24,4.48.45,6.75.64l1.57.14c7.42.61,15,1,22.78,1.22a3.11,3.11,0,0,0,.6.09l-3.71-.13c5.13.2,6.18.21,10.44.24l-4.74-.06a1.65,1.65,0,0,1-.48-.1c10.69.22,21.55,0,32.29-.61-.3,0-.6.07-.91.09,3.51-.18,5-.3,8.82-.62h0l-6.89.51c.37,0,.73-.06,1.1-.11q3.78-.24,7.53-.56c11-1,11.83-1.14,18.32-2h0c-8.18,1.1-16.59,1.92-25.09,2.46a24.47,24.47,0,0,0,11.67-5.82c12.09-.78,24.06-1.94,35.7-3.5q5.17-.71,10.09-1.48a92.11,92.11,0,0,1-17.75,5.94l3.12-.56a98.51,98.51,0,0,0,17.45-5.83,304.11,304.11,0,0,0,37.37-8.39c-1.07.4-2.16.76-3.24,1.15l4.74-1.58.59-.21.46-.15q2.72-.93,5.51-1.92c-1.17.39-2.36.77-3.58,1.15a205.78,205.78,0,0,0,34.75-17.53c12.84-4,23.58-8.43,32.12-13.15l3.52-2.06c-8.79,5-20,9.63-33.46,13.82a222.06,222.06,0,0,0,31.24-24.45c16.31-5.07,29.83-10.72,40.35-16.76a294,294,0,0,1-36.53,26.43c1.31-.79,2.66-1.6,4-2.44s2.48-1.56,3.71-2.35c4.59-3.11,8.52-5.78,12-8.16q9.69-7,18.84-14.68a90.76,90.76,0,0,0,7.72-5.16C640.3,707,635.12,711.06,631,714.2c5.88-4.22,10.81-8,16.9-13.09.84-.64,1.64-1.28,2.42-1.92l-1.86,1.46,2.25-1.89a92.39,92.39,0,0,1-8.72,5.9,306.54,306.54,0,0,0,33.1-33.34,86.89,86.89,0,0,0,17.16-13.07c-5.55,5.92-11.94,12.68-18.28,19.09,14-13.64,18.3-18.49,30.86-33.86l-7.92,9.57c-4.69,5.46-11.34,10.79-19.82,15.89a315.43,315.43,0,0,0,27.69-38.86c11.06-6.65,19.27-13.66,24.45-20.85-3.61,5.3-7.68,11.29-11.81,17.18,10.16-13.9,13.47-19.07,20.74-31.75l-5.48,9.21c-5,8.12-13.86,16-26.27,23.48a329.65,329.65,0,0,0,21.66-43.8c13.84-8.33,23.55-17.16,28.78-26.24-.93,2.17-1.91,4.31-2.88,6.46l-1.64,3.53.74-1.5c-.88,1.92-1.8,3.82-2.72,5.72l-2.21,4.73q3.87-7.62,7.37-15.45c4.66-9.7,6.82-15.41,11.5-28.14l-6.71,17.23c-.34.83-.73,1.66-1.15,2.48a351.75,351.75,0,0,0,16.42-49.49,37.77,37.77,0,0,0,2.2-5.29c-1,3.39-2,7.06-3.12,10.82,5-16.27,6.1-21.57,9.17-38l-4.52,21.38a35.43,35.43,0,0,1-2.9,7.69A356.11,356.11,0,0,0,785,446.73a78.37,78.37,0,0,0,3.6-11.87c1.23-11.21,1.45-18.84,1.61-34.22Zm-6.14-14.07c-5.63,9.76-16.06,19.26-30.95,28.21a415.41,415.41,0,0,0-7.67-54.1c14.56-8.75,24.76-18,30.27-27.59A372.18,372.18,0,0,1,784.06,386.57ZM402.48,24.77a222.92,222.92,0,0,1,41.17-6.46,50.19,50.19,0,0,1,9.69,3.86,324.14,324.14,0,0,0-50.45,2.76A1.75,1.75,0,0,0,402.48,24.77Zm.43.17A332.64,332.64,0,0,1,454,22.55,13.27,13.27,0,0,1,459,27a396,396,0,0,0-55.88-1.91A.5.5,0,0,0,402.91,24.94ZM377.73,681.13q-.83-18.63-1.45-40c33.19.67,66.93.06,100.27-1.9q-2.22,21.4-5.14,40.15C440.26,681.19,408.74,681.75,377.73,681.13Zm93.3.68c-2,12.35-4.16,23.77-6.54,34.18-28.18,1.66-56.7,2.17-84.75,1.61q-1-15.54-1.9-34C408.69,684.19,440,683.63,471,681.81ZM376.2,638.29q-.61-21.52-1-45.59c34.83.69,70.23.06,105.21-2q-1.43,24.07-3.6,45.68C443.37,638.35,409.51,639,376.2,638.29Zm191-230.94c-25.92,3.48-52.59,6.07-79.54,7.81-1-18.39-2.2-36.64-3.71-54.65,25.78-1.66,51.29-4.14,76.09-7.47q11-1.49,21.51-3.15c3.31,17.82,6,35.92,8.15,54.17Q578.73,405.8,567.2,407.35Zm22.91.32c2,18.27,3.43,36.69,4.17,55.16q-11.24,1.77-23,3.36c-26.56,3.58-53.89,6.23-81.51,8-.33-18.51-1-37-1.88-55.41,27-1.74,53.74-4.33,79.72-7.83Q579.11,409.42,590.11,407.67ZM367.66,535.11c-35.63-.9-70.61-3.15-103.92-6.66q-.33-13.34-.31-27.2t.41-27.73c33.31,3.51,68.29,5.76,103.92,6.66q-.11,13.89-.14,27.75T367.66,535.11ZM170.19,395.9c2.64-18.17,6-36.15,10.09-53.82,26.68,5.68,55.93,10.29,86.81,13.72-2.48,17.92-4.54,36.11-6.14,54.44C228.67,406.65,198.09,401.84,170.19,395.9Zm90.45,18c-1.55,18.33-2.64,36.8-3.24,55.29-33.08-3.67-64.42-8.61-93-14.69,1-18.43,2.75-36.8,5.28-55C197.64,405.44,228.29,410.26,260.64,413.86ZM181.09,338.6q6.24-26.44,14.49-51.84c24.84,5.29,52.07,9.58,80.81,12.77q-5,25.86-8.8,52.73C236.82,348.84,207.68,344.26,181.09,338.6ZM264,469.86c.58-18.49,1.62-37,3.09-55.31,32.55,3.43,66.74,5.63,101.56,6.51-.37,18.41-.65,36.94-.81,55.46C332.19,475.62,297.23,473.37,264,469.86Zm3.39-58.93q2.31-27.51,5.87-54.47c31.06,3.28,63.69,5.38,96.93,6.21-.59,18.05-1.08,36.34-1.46,54.75C333.93,416.55,299.82,414.35,267.34,410.93Zm6.34-58c2.41-17.89,5.23-35.52,8.4-52.77,28.92,3.05,59.29,5,90.23,5.78-.77,17.41-1.46,35.17-2.06,53.18C337.14,358.28,304.63,356.19,273.68,352.92Zm3.37-56.78c-28.59-3.18-55.68-7.44-80.38-12.7,5.56-16.84,11.74-33.25,18.5-49.11,22.47,4.78,47.1,8.66,73.11,11.55C284.18,262.16,280.43,279,277.05,296.14Zm-60.53-65q10.24-23.68,22.11-45.62c19.64,4.19,41.16,7.57,63.88,10.1-4.78,15.07-9.27,30.77-13.41,47C263.29,239.77,238.83,235.92,216.52,231.17Zm106.06-81c19.07,2,39.1,3.3,59.5,3.81-1.23,13.88-2.41,28.49-3.52,43.73-24.22-.61-48-2.14-70.64-4.53C312.53,178.15,317.42,163.77,322.58,150.15Zm-19.12,42.53c-22.5-2.5-43.82-5.86-63.26-10,8-14.49,16.42-28.32,25.33-41.36,16.38,3.49,34.34,6.31,53.29,8.42C313.42,163.34,308.29,177.69,303.46,192.68Zm143.82-42.52c-20.27,1.2-40.79,1.56-61,1.16,1-13.79,2-26.82,3.06-39,15.92.32,32.11,0,48.11-.91C440.89,123.5,444.16,136.46,447.28,150.16Zm-19-74.45c8.51-.55,16.94-1.37,25.13-2.47,2.43-.33,4.8-.67,7.11-1a332.89,332.89,0,0,1,25.14,31.64q-4.92.78-10.09,1.48C464,106.88,452,108,439.9,108.82,436.17,96.87,432.3,85.79,428.31,75.71Zm19.59,77.17c3.09,13.8,6,28.35,8.79,43.53-24.38,1.43-49.06,1.87-73.34,1.39.87-15.25,1.8-29.87,2.77-43.75C406.57,154.46,427.35,154.09,447.9,152.88Zm-67.15,95.63c.75-16.43,1.57-32.37,2.43-47.69,24.51.49,49.43,0,74.06-1.41,2.73,15.26,5.29,31.13,7.65,47.51C436.91,248.56,408.6,249.07,380.75,248.51Zm84.61,1.68c2.33,16.44,4.46,33.37,6.37,50.68-31,1.83-62.33,2.39-93.18,1.77.62-17.36,1.31-34.35,2.05-50.85C408.66,252.36,437.18,251.85,465.36,250.19Zm-83-99c-20.14-.51-39.91-1.78-58.73-3.77,5.18-13.52,10.62-26.29,16.28-38.18,14.85,1.57,30.45,2.57,46.34,3C384.87,124.42,383.57,137.45,382.33,151.23Zm89.78,153.06c1.88,17.36,3.54,35.09,5,53.07-33.34,2-67.08,2.56-100.27,1.9.47-18,1-35.78,1.63-53.19C409.44,306.69,441,306.13,472.11,304.29Zm5.24,56.62c1.38,18,2.53,36.29,3.4,54.67-35,2.06-70.38,2.7-105.2,2,.31-18.41.7-36.7,1.16-54.76C410,363.49,443.88,362.88,477.35,360.91Zm-6.43-111.07c21.72-1.39,43.2-3.48,64.08-6.29q9.29-1.25,18.12-2.64c5.52,16.1,10.57,32.73,15.11,49.76q-9.72,1.53-19.93,2.91c-23,3.09-46.58,5.38-70.45,6.92C475.77,283.2,473.45,266.27,470.92,249.84ZM534,240.33c-20.73,2.79-42.06,4.86-63.62,6.25-2.56-16.37-5.34-32.23-8.31-47.47,19-1.22,37.74-3,56-5.49q8.11-1.1,15.83-2.32c6.47,14.86,12.52,30.37,18.1,46.4Q543.24,239.1,534,240.33ZM517,190.67c-18.07,2.43-36.66,4.23-55.45,5.44-3-15.16-6.2-29.69-9.56-43.48,15.83-1,31.49-2.54,46.71-4.59q6.76-.9,13.21-1.93c7.31,13.36,14.25,27.49,20.77,42.27Q525,189.58,517,190.67Zm-19.58-45.28c-15,2-30.47,3.52-46.1,4.53-3.38-13.69-6.94-26.63-10.64-38.7,12.32-.8,24.52-2,36.38-3.57q5.26-.72,10.28-1.51c8,11.6,15.76,24.09,23.12,37.35Q504.06,144.5,497.38,145.39ZM462.53,71.88a213.65,213.65,0,0,0,26.3-5.9,354,354,0,0,1,37,29,303.93,303.93,0,0,1-37.36,8.39A331.5,331.5,0,0,0,462.53,71.88Zm25.21-8a309.32,309.32,0,0,0-40.2-22.17,48.2,48.2,0,0,0,9.56-4,372,372,0,0,1,48.41,18.76A89.35,89.35,0,0,1,487.74,63.84Zm-1.43.44A206.66,206.66,0,0,1,460.76,70,242,242,0,0,0,433,45a110.88,110.88,0,0,0,13.75-3.08A304.87,304.87,0,0,1,486.31,64.28Zm-27.48,6c-2.24.36-4.54.69-6.9,1-8,1.07-16.14,1.87-24.41,2.4A266.11,266.11,0,0,0,415.14,47c4.45-.28,8.85-.71,13.13-1.29,1.27-.17,2.51-.35,3.71-.54A238.2,238.2,0,0,1,458.83,70.32ZM436.8,109c-15.7.93-31.59,1.21-47.22.9,1.06-12.06,2.17-23.24,3.3-33.44,11,.22,22.19,0,33.25-.63C429.81,85.94,433.37,97,436.8,109Zm-50.31.83c-15.59-.39-30.9-1.38-45.48-2.92A366.14,366.14,0,0,1,358.7,74.37c10.26,1.08,21,1.78,32,2C389.26,86.61,387.85,97.79,386.49,109.84Zm-48.35-3.23c-14.48-1.61-28.21-3.77-40.73-6.43A334,334,0,0,1,328,69.62c8.81,1.88,18.48,3.4,28.68,4.53A356.67,356.67,0,0,0,338.14,106.61ZM337,109c-5.93,11.86-11.63,24.59-17.07,38.09-18.71-2.08-36.43-4.87-52.59-8.31a418.69,418.69,0,0,1,28.15-36.34C308.21,105.12,322.2,107.33,337,109Zm-72.84,29.09a288.84,288.84,0,0,1-42.48-12.47A415.22,415.22,0,0,1,259.43,92,227.36,227.36,0,0,0,293,101.86,419.27,419.27,0,0,0,264.12,138.06Zm-1.8,2.56q-13.68,19.5-25.94,41.24a350.47,350.47,0,0,1-51.1-15,450,450,0,0,1,34-38.87A293.6,293.6,0,0,0,262.32,140.62ZM307,196.14c22.87,2.41,46.88,4,71.33,4.57-1.1,15.32-2.13,31.25-3.08,47.68-27.79-.7-55.07-2.46-81.05-5.19C298.17,227,302.45,211.23,307,196.14Zm68.48,225.07c34.9.7,70.38.07,105.43-2,.85,18.4,1.43,36.91,1.72,55.42-35.84,2.11-72.12,2.76-107.81,2.05C375,458.16,375.19,439.63,375.49,421.21ZM478.26,303.92c24-1.55,47.74-3.85,70.82-7q10.27-1.38,20-2.92c4.47,17.08,8.41,34.57,11.78,52.34q-10.44,1.65-21.43,3.13c-24.71,3.32-50.12,5.79-75.81,7.44C482.11,339,480.3,321.26,478.26,303.92Zm96.43-10.78c28-4.64,52.85-10.26,74.14-16.65,6.58,16.62,12.4,33.7,17.38,51.11-22.78,6.83-49.34,12.86-79.34,17.81C583.38,327.66,579.3,310.2,574.69,293.14Zm-.92-3.37q-7-25.51-15.6-49.68A543.51,543.51,0,0,0,625.24,225q12.21,23.29,22.28,48.19A597.81,597.81,0,0,1,573.77,289.77ZM557,236.89c-5.77-16-12-31.47-18.7-46.3a477.2,477.2,0,0,0,58.61-13.15A505.51,505.51,0,0,1,623.61,222,539.58,539.58,0,0,1,557,236.89Zm-20-49.22c-6.74-14.74-13.91-28.83-21.46-42.15a398.09,398.09,0,0,0,48.89-11,465.18,465.18,0,0,1,30.61,40.09A470.34,470.34,0,0,1,537,187.67Zm-23-44.77a438.94,438.94,0,0,0-23.88-37.22,308.87,308.87,0,0,0,38.07-8.55,411.37,411.37,0,0,1,34.06,34.94A393.41,393.41,0,0,1,514.05,142.9ZM528,94.36a357.25,357.25,0,0,0-37.66-28.83,92.23,92.23,0,0,0,18.29-7.6A395,395,0,0,1,554,83.57,131.1,131.1,0,0,1,528,94.36ZM506.4,55.93a375.14,375.14,0,0,0-48.82-18.51,13.77,13.77,0,0,0,5-4.55,405.11,405.11,0,0,1,53.1,14.61C514,50.41,510.86,53.25,506.4,55.93ZM459.13,31.87a404.75,404.75,0,0,0-56-6.54.21.21,0,0,0,0-.19,399.36,399.36,0,0,1,56,2.2A4.78,4.78,0,0,1,459.13,31.87Zm-.16.29a13,13,0,0,1-4.69,4.28,358.34,358.34,0,0,0-51.35-10.92.42.42,0,0,0,.19-.18A404.26,404.26,0,0,1,459,32.16Zm-5.15,4.55a44.9,44.9,0,0,1-9,3.74,268.88,268.88,0,0,0-42.29-14.76,2,2,0,0,0,.38-.16A352.82,352.82,0,0,1,453.82,36.71Zm-9.73,4a104.36,104.36,0,0,1-12.95,2.91A172.61,172.61,0,0,0,402,25.82a4.46,4.46,0,0,0,.54-.12A262.49,262.49,0,0,1,444.09,40.67Zm-13.92,3.07c-1.14.18-2.31.35-3.5.51-4,.54-8.18.94-12.37,1.21a125.14,125.14,0,0,0-13-19.56l.52,0,.14,0A167.55,167.55,0,0,1,430.17,43.74ZM425.4,73.86c-10.74.63-21.6.82-32.29.61,1.14-10.06,2.31-19.13,3.51-27.08,5.75.12,11.6,0,17.38-.33A279.49,279.49,0,0,1,425.4,73.86Zm-34.4.56c-10.66-.26-21.13-.94-31.1-2A228.92,228.92,0,0,1,378.75,46.3c5.37.56,11,.92,16.74,1.07C394,55.31,392.46,64.37,391,74.42Zm-33.06-2.2c-9.91-1.1-19.29-2.58-27.85-4.4a261.8,261.8,0,0,1,32.62-24c4.61,1,9.66,1.78,15,2.37A226.55,226.55,0,0,0,357.94,72.22Zm-29.53-4.77a154.19,154.19,0,0,1-22.5-6.6A335.78,335.78,0,0,1,349.7,40.06a83.54,83.54,0,0,0,12.11,3.56A266.39,266.39,0,0,0,328.41,67.45Zm-2.14,1.8A336.67,336.67,0,0,0,295,99.64,224.6,224.6,0,0,1,262.05,90a372.91,372.91,0,0,1,41.06-27.54A158.88,158.88,0,0,0,326.27,69.25Zm-66.06,20a107.08,107.08,0,0,1-12.48-6,58.53,58.53,0,0,1-9.28-6.39,405.38,405.38,0,0,1,48-23.67A40.74,40.74,0,0,0,293,57.73a75.05,75.05,0,0,0,8.78,4.2A376.86,376.86,0,0,0,260.21,89.25Zm-15.38-4.06a111.23,111.23,0,0,0,12.72,6.09,414.12,414.12,0,0,0-38.29,33.36,138.82,138.82,0,0,1-16.12-7.7,74.51,74.51,0,0,1-12-8.26,416.73,416.73,0,0,1,44.21-30A59.68,59.68,0,0,0,244.83,85.19Zm-44.3,34a140.87,140.87,0,0,0,16.33,7.8,450.35,450.35,0,0,0-34.44,38.69A165,165,0,0,1,163,156.44a90.23,90.23,0,0,1-14.41-9.93,425.53,425.53,0,0,1,39.77-35.66A76.26,76.26,0,0,0,200.53,119.22Zm-17.35,50.35c14.8,5.8,32.23,10.87,51.6,15.15-8.08,14.54-15.65,29.75-22.64,45.5-22-4.86-41.81-10.62-58.62-17.21A478.72,478.72,0,0,1,183.18,169.57Zm27.58,63.8c-6.91,15.83-13.24,32.21-18.94,49-24.37-5.39-46.3-11.77-64.92-19.06A494.56,494.56,0,0,1,151.7,216C168.64,222.66,188.59,228.47,210.76,233.37Zm-20,52.34c-5.61,16.86-10.57,34.15-14.83,51.75C149.65,331.67,126.05,324.8,106,317a493.22,493.22,0,0,1,19.42-50.41C144.16,273.87,166.21,280.29,190.71,285.71ZM175.05,341c-4.17,17.65-7.63,35.61-10.33,53.76-27.52-6.09-52.28-13.29-73.3-21.52a487.3,487.3,0,0,1,13.51-52.83C125,328.23,148.73,335.13,175.05,341ZM164.2,398.29q-3.88,27.25-5.4,54.95c-28.2-6.23-53.58-13.62-75.12-22.05a473.36,473.36,0,0,1,7-54.46C111.8,385,136.62,392.2,164.2,398.29Zm0,59.81c28.6,6.09,60,11,93.07,14.71q-.41,13.86-.43,27.73t.33,27.2c-33.11-3.68-64.47-8.62-93.07-14.71q-.6-13.38-.58-27.23T164.22,458.1Zm93.06,73.14q.81,26.55,3,50.89c-32.35-3.59-63-8.42-90.95-14.37q-3.7-24.56-5.08-51.21C192.87,522.63,224.21,527.57,257.28,531.24Zm3.34,54.11q2.33,24.17,6,45.92c-30.88-3.44-60.13-8-86.81-13.72a436.66,436.66,0,0,1-9.9-46.54C197.76,577,228.35,581.77,260.62,585.35Zm3.22-53.4c33.28,3.51,68.23,5.76,103.84,6.66q.13,26.49.61,50.72c-34.83-.87-69-3.07-101.56-6.5Q264.62,558.52,263.84,532Zm104.51,60.59q.48,24,1.27,45.6c-33.23-.83-65.86-2.94-96.93-6.21q-3.45-21.7-5.67-45.88C299.5,589.47,333.6,591.67,368.35,592.54ZM369.73,641c.54,14.24,1.17,27.61,1.88,40-30.93-.77-61.31-2.73-90.23-5.78q-4.67-18.87-8.23-40.44C304.11,638,336.61,640.13,369.73,641Zm2,42.48q1.1,18.46,2.44,34c-28-.7-55.47-2.47-81.63-5.23A353.58,353.58,0,0,1,282,677.68C310.77,680.72,341,682.66,371.76,683.44Zm.71-380.94c-30.78-.77-61-2.72-89.76-5.75,3.23-17.2,6.81-34,10.72-50.31,26.17,2.76,53.64,4.53,81.64,5.23C374.12,268.16,373.25,285.15,372.47,302.5Zm2.22,205.59q0-13.86.12-27.76c35.71.72,72,.07,107.89-2q.19,13.89.17,27.75t-.28,27.18c-35.87,2.11-72.17,2.76-107.89,2Q374.67,522,374.69,508.09Zm107.84,28.63q-.54,26.5-1.92,50.77c-35.06,2.06-70.53,2.7-105.44,2q-.35-24.19-.45-50.72C410.4,539.48,446.68,538.83,482.53,536.72Zm.59,102.08c25.69-1.65,51.11-4.12,75.81-7.44q11-1.47,21.44-3.13a394.65,394.65,0,0,1-12,40.87q-9.76,1.54-20,2.92c-23.08,3.11-46.83,5.41-70.83,7C479.66,666.5,481.52,653.08,483.12,638.8Zm76.41-10.3c-24.8,3.34-50.31,5.81-76.09,7.47q2.35-21.59,3.89-45.69c27-1.74,53.62-4.33,79.55-7.81q11.52-1.56,22.49-3.29-3.27,24.27-8.33,46.18Q570.55,627,559.53,628.5Zm7.72-49.26c-26,3.49-52.7,6.09-79.72,7.82q1.47-24.22,2.07-50.77c27.62-1.78,54.95-4.43,81.51-8q11.82-1.59,23-3.36-1.2,26.58-4.37,51Q578.81,577.67,567.25,579.24Zm4-54.46c-26.59,3.57-53.93,6.23-81.58,8q.27-13.34.29-27.19t-.18-27.75c27.64-1.78,55-4.43,81.57-8q11.82-1.59,23.07-3.37.48,13.86.46,27.72t-.57,27.22Q583.08,523.18,571.25,524.78Zm16.3-175.86c30.11-5,56.77-11,79.64-17.87a544.26,544.26,0,0,1,12,53.31c-23.91,7.17-51.77,13.49-83.26,18.69C593.78,384.8,591,366.72,587.55,348.92Zm92.28,39A527.69,527.69,0,0,1,686,442.64C661.52,450,633,456.46,600.7,461.79c-.76-18.46-2.22-36.88-4.31-55.14C627.94,401.44,655.87,395.11,679.83,387.93Zm-79,77.51c32.29-5.34,60.86-11.82,85.38-19.17q.74,13.8.71,27.67t-.81,27.26C661.6,508.55,633,515,600.74,520.37q.56-13.37.58-27.22T600.84,465.44Zm83.67-78.94c23.43-7.3,42.88-15.42,58-24.1a419.62,419.62,0,0,1,7.61,54.14c-15.47,8.87-35.35,17.18-59.32,24.64A516.58,516.58,0,0,0,684.51,386.5Zm-.62-3.56a532.07,532.07,0,0,0-12.24-53.26c22.37-7,40.94-14.71,55.37-23a433.13,433.13,0,0,1,14.75,52.21C726.68,367.55,707.28,375.66,683.89,382.94Zm-13.23-56.7a536.83,536.83,0,0,0-17.68-51c20.83-6.48,38.11-13.69,51.54-21.4a445.49,445.49,0,0,1,21.31,49.51C711.45,311.58,693,319.31,670.66,326.24Zm-19-54.28A529.84,529.84,0,0,0,629,223.89c18.84-5.87,34.47-12.4,46.63-19.37a450.66,450.66,0,0,1,27.28,46.15C689.55,258.33,672.37,265.51,651.65,272ZM643,158.3c10.23-6.15,17.39-12.67,21.26-19.38a406,406,0,0,1,35.85,39.27c-4.39,7.62-12.54,15-24.15,22A446.37,446.37,0,0,0,643,158.3Zm30.62,43.28c-12.07,6.93-27.59,13.41-46.29,19.23a502.15,502.15,0,0,0-27.13-44.38c16.47-5.12,30.13-10.83,40.75-16.92A449,449,0,0,1,673.64,201.58ZM598.3,173.65a460,460,0,0,0-31.12-39.94c13.73-4.28,25.13-9,34-14.12a436.78,436.78,0,0,1,37.48,37.3C628.13,162.93,614.6,168.58,598.3,173.65ZM565,131.24a411.74,411.74,0,0,0-34.63-34.76,134,134,0,0,0,26.47-11,419.9,419.9,0,0,1,41.71,31.82C589.81,122.33,578.56,127,565,131.24ZM555.26,82.8a396,396,0,0,0-45.74-25.41c4.59-2.76,7.81-5.69,9.54-8.7a408,408,0,0,1,49.76,21.75C566.35,74.72,561.78,78.88,555.26,82.8ZM516,46.9a406.46,406.46,0,0,0-53.25-14.34,5.09,5.09,0,0,0,0-4.81A385.83,385.83,0,0,1,516,38,9.48,9.48,0,0,1,516,46.9Zm-53.4-19.47a14.08,14.08,0,0,0-5.3-4.76,310.13,310.13,0,0,1,48.57,5.85c4.91,2.88,8.16,5.86,9.86,8.85A383.33,383.33,0,0,0,462.59,27.43ZM401.22,25.9a127.5,127.5,0,0,1,12,19.63c-5.44.32-10.94.42-16.36.31,1.2-7.81,2.43-14.49,3.68-19.93C400.76,25.92,401,25.91,401.22,25.9Zm-5.43,19.91c-5.4-.13-10.71-.47-15.76-1a131.84,131.84,0,0,1,19.81-18.93c.21,0,.43,0,.65,0C398.9,31.34,397.33,38,395.79,45.81ZM379,44.7c-5-.56-9.77-1.31-14.11-2.23a204.4,204.4,0,0,1,34.29-16.7l.58.1A134.34,134.34,0,0,0,379,44.7Zm-15-2.42a78.13,78.13,0,0,1-11.4-3.35,303.43,303.43,0,0,1,46-13.3,3.35,3.35,0,0,0,.47.14A210.65,210.65,0,0,0,364.07,42.28Zm-12-3.6a36.51,36.51,0,0,1-4.33-2.07,19.85,19.85,0,0,1-3.21-2.22,383.67,383.67,0,0,1,53.87-8.95l.13.09.18.09A307.64,307.64,0,0,0,352,38.68Zm-7.88-4.58a6.7,6.7,0,0,1-2.49-4.55,408.64,408.64,0,0,1,56.58-4.31.28.28,0,0,0,.1.18A386.54,386.54,0,0,0,344.15,34.1ZM398.35,25a369.9,369.9,0,0,0-54-.51,25.56,25.56,0,0,1,6.86-4.05,289.28,289.28,0,0,1,47.45,4.39A1,1,0,0,0,398.35,25Zm0,0a.28.28,0,0,0-.1.18,408.77,408.77,0,0,0-56.58,4A6.57,6.57,0,0,1,344,24.81,373.32,373.32,0,0,1,398.34,25ZM344.43,37.6a39.6,39.6,0,0,0,4.6,2.19,339.58,339.58,0,0,0-44.38,20.56,74.11,74.11,0,0,1-8.54-4.09,39.4,39.4,0,0,1-6.34-4.37A394.07,394.07,0,0,1,341,35.24,20.81,20.81,0,0,0,344.43,37.6ZM289.11,51.31c-3.21-3-4.81-6-4.91-9A401.59,401.59,0,0,1,338,30.1a7.07,7.07,0,0,0,2.65,4.83A394.3,394.3,0,0,0,289.11,51.31Zm-3.29,1.31A406.93,406.93,0,0,0,237.49,76c-4.69-4.33-7-8.75-7.18-13.12a398.35,398.35,0,0,1,50.45-19.53C280.87,46.46,282.51,49.57,285.82,52.62ZM234.4,77.81a418.17,418.17,0,0,0-44.48,29.76c-6.06-5.59-9.08-11.29-9.27-16.94a396.39,396.39,0,0,1,46.43-26.2C227.23,68.89,229.62,73.39,234.4,77.81Zm-47.27,31.92a424.47,424.47,0,0,0-40,35.45c-7.29-6.73-10.93-13.59-11.16-20.38a391.58,391.58,0,0,1,41.76-32.24C177.93,98.28,181,104.06,187.13,109.73Zm-41,39.3a91.53,91.53,0,0,0,14.55,10,169.05,169.05,0,0,0,19.58,9.36,474.41,474.41,0,0,0-30,43.28A191.25,191.25,0,0,1,128,201.07a103.81,103.81,0,0,1-16.54-11.4A428.21,428.21,0,0,1,146.16,149ZM126,204a193.2,193.2,0,0,0,22.41,10.72,489.33,489.33,0,0,0-25.14,47.16A213.24,213.24,0,0,1,98.63,250.1a114.56,114.56,0,0,1-18.32-12.62,424.28,424.28,0,0,1,29-45A104.4,104.4,0,0,0,126,204ZM97,253.25a211.46,211.46,0,0,0,24.76,11.84,490.65,490.65,0,0,0-19.67,50.31A228.14,228.14,0,0,1,75.6,302.72a122.51,122.51,0,0,1-19.71-13.58A415.15,415.15,0,0,1,78.6,240.56,116,116,0,0,0,97,253.25ZM74.4,306.08A229.7,229.7,0,0,0,101,318.8a480.86,480.86,0,0,0-13.69,52.75A239.4,239.4,0,0,1,59.5,358.26,129.21,129.21,0,0,1,38.82,344a403.55,403.55,0,0,1,15.8-51.56A123.13,123.13,0,0,0,74.4,306.08ZM58.75,361.76a238.85,238.85,0,0,0,27.87,13.33,466,466,0,0,0-7.15,54.42A245,245,0,0,1,51,415.89a132.62,132.62,0,0,1-21.19-14.61A391.69,391.69,0,0,1,38,347.48,130,130,0,0,0,58.75,361.76Zm24.69,73.06c21.55,8.44,46.95,15.82,75.17,22.06q-.66,13.83-.69,27.7t.59,27.24c-28.22-6.24-53.62-13.63-75.18-22.07q-.81-13.44-.79-27.3T83.44,434.82Zm75.24,80.51a508,508,0,0,0,5.21,51.24c-27.58-6.1-52.4-13.32-73.47-21.56a404.94,404.94,0,0,1-6.86-51.73C105.1,501.71,130.48,509.1,158.68,515.33Zm5.72,54.5a430.16,430.16,0,0,0,10.13,46.58c-26.32-5.82-50-12.71-70.12-20.58A361.84,361.84,0,0,1,91.1,548.31C112.12,556.54,136.88,563.74,164.4,569.83Zm11,49.49A350.58,350.58,0,0,0,190,660.77c-24.5-5.42-46.55-11.83-65.27-19.16a326.66,326.66,0,0,1-19.25-42.8C125.53,606.65,149.13,613.52,175.36,619.32Zm5.21,1.13c26.58,5.66,55.73,10.24,86.49,13.66q3.7,21.55,8.63,40.48c-28.74-3.19-56-7.48-80.81-12.76A355.89,355.89,0,0,1,180.57,620.45Zm95.77,56.62a347,347,0,0,0,11.08,34.61c-26-2.89-50.64-6.77-73.11-11.55A282.52,282.52,0,0,1,196,664.37C220.67,669.63,247.75,673.89,276.34,677.07Zm11.88,36.69A221.56,221.56,0,0,0,301.5,742c-22.72-2.52-44.25-5.91-63.88-10.09a221.82,221.82,0,0,1-22-29.62C238,707,262.41,710.89,288.22,713.76Zm5.12.55c26,2.74,53.25,4.5,81,5.19.91,10.22,1.89,19.43,2.95,27.56-24.46-.61-48.47-2.16-71.33-4.57A224.13,224.13,0,0,1,293.34,714.31Zm84.2,34.34c1.06,8,2.2,14.9,3.4,20.66-20.41-.51-40.43-1.8-59.51-3.81a131.64,131.64,0,0,1-14.53-21.37C329.54,746.51,353.31,748,377.54,748.65Zm2.33-29c27.86.56,56.17,0,84.15-1.6q-3.61,15.42-7.8,27.74c-24.62,1.45-49.54,1.89-74.06,1.4C381.34,739.05,380.58,729.84,379.87,719.63Zm75.8,27.74a144.38,144.38,0,0,1-8.92,20.86c-20.54,1.21-41.33,1.58-61.78,1.17-.93-5.75-1.81-12.66-2.64-20.64C406.61,749.25,431.28,748.81,455.67,747.37Zm4.81-.3c18.79-1.21,37.38-3,55.46-5.44q8-1.08,15.68-2.29a150.91,150.91,0,0,1-20.89,22.13q-6.45,1-13.21,1.93c-15.22,2-30.88,3.56-46.71,4.58A140.28,140.28,0,0,0,460.48,747.07Zm56.59-7.1c-18.24,2.45-37,4.28-56,5.5a281.15,281.15,0,0,0,8.46-27.78c21.56-1.39,42.88-3.46,63.62-6.24q9.21-1.25,18-2.63a214,214,0,0,1-18.24,28.84Q525.18,738.88,517.07,740Zm17.06-30.61c-20.88,2.8-42.36,4.89-64.08,6.29,2.59-10.43,5-21.86,7.09-34.22,23.88-1.54,47.5-3.83,70.46-6.92q10.2-1.37,19.92-2.91a295.8,295.8,0,0,1-15.27,35.11Q543.42,708.11,534.13,709.36Zm38.94-38.65a599.76,599.76,0,0,0,73.74-16.56,285.05,285.05,0,0,1-22.44,36.69,545.88,545.88,0,0,1-67.07,15A293.89,293.89,0,0,0,573.07,670.71Zm.93-2.51a388.39,388.39,0,0,0,12.34-40.93c30-5,56.57-11,79.35-17.81a330.55,330.55,0,0,1-17.56,42.1A602.68,602.68,0,0,1,574,668.2Zm13-43.81q5.21-21.9,8.59-46.22c31.49-5.2,59.35-11.52,83.26-18.69a384.15,384.15,0,0,1-12.21,47C643.81,613.37,617.15,619.42,587,624.39Zm9-49.46q3.24-24.43,4.52-51c32.26-5.33,60.81-11.81,85.31-19.15a438.33,438.33,0,0,1-6.39,51.47C655.55,563.38,627.63,569.72,596.07,574.93Zm94.62-71.66c24-7.46,43.85-15.77,59.31-24.64a373.76,373.76,0,0,1-7.8,52c-15.12,8.68-34.57,16.8-58,24.09A435,435,0,0,0,690.69,503.27Zm.22-3.53q.8-13.41.82-27.27T691,444.81c24-7.46,43.89-15.78,59.36-24.65q.9,13.72.88,27.59t-1,27.34C734.79,484,714.89,492.28,690.91,499.74Zm67.79-221a379.45,379.45,0,0,1,16.2,50.93c-5.5,9.53-15.68,18.8-30.2,27.54a431.89,431.89,0,0,0-14.88-52.13C743.71,296.69,753.45,287.82,758.7,278.71ZM734,227.77a387.72,387.72,0,0,1,23.38,47.69c-5.23,9.08-14.93,17.91-28.78,26.24a443.15,443.15,0,0,0-21.48-49.41C720.06,244.51,729.12,236.26,734,227.77Zm-1.76-3c-4.86,8.44-13.88,16.65-26.74,24.38a448.06,448.06,0,0,0-27.52-46c11.7-7,19.91-14.5,24.33-22.18A397.55,397.55,0,0,1,732.25,224.76Zm-31.16-71.37a24.67,24.67,0,0,1-.14,23.29,403.73,403.73,0,0,0-36-39.09,21.7,21.7,0,0,0,.12-20.5A360.39,360.39,0,0,1,701.09,153.39ZM621.32,84.2a366.18,366.18,0,0,1,41.26,30.68,21.5,21.5,0,0,1-.13,20.3,408.27,408.27,0,0,0-41.23-33.87A18.13,18.13,0,0,0,621.32,84.2Zm40.42,52.3c-3.83,6.64-10.93,13.1-21,19.19a439.62,439.62,0,0,0-37.8-37.11c8.53-5.13,14.5-10.57,17.73-16.17A411.52,411.52,0,0,1,661.74,136.5Zm-89.2-78.57a371.42,371.42,0,0,1,45.91,24.45,17.9,17.9,0,0,1-.1,16.88,409.6,409.6,0,0,0-45.88-28A14.12,14.12,0,0,0,572.54,57.93Zm45.21,42.43c-3.18,5.52-9.08,10.89-17.5,16A421,421,0,0,0,558.19,84.7c6.64-4,11.29-8.23,13.81-12.59A410.28,410.28,0,0,1,617.75,100.36ZM569.28,69.59a406.89,406.89,0,0,0-49.89-21.5,9.74,9.74,0,0,0,.05-9.2,377.11,377.11,0,0,1,49.91,17.63A13.85,13.85,0,0,1,569.28,69.59Zm-.39-13.93a371.91,371.91,0,0,0-49.77-17.38c-1.75-3.08-5.1-6.15-10.16-9.12A298.31,298.31,0,0,1,554.47,42.7C561.65,46.92,566.41,51.28,568.89,55.66ZM504.56,27.78a301.61,301.61,0,0,0-48-5.51,53.16,53.16,0,0,0-10.3-4.1,198,198,0,0,1,39.14,2A97.94,97.94,0,0,1,504.56,27.78Zm-46.1-13.56a220.74,220.74,0,0,1,25.48,5.51,190.46,190.46,0,0,0-38.45-1.79,118.77,118.77,0,0,0-13.71-3A92,92,0,0,1,458.46,14.22Zm-15.57,3.87a216.13,216.13,0,0,0-40.44,6.67,3.77,3.77,0,0,0-.53-.12A117.33,117.33,0,0,1,430,15.3,114,114,0,0,1,442.89,18.09ZM414,13.54c5.25.34,10.33.89,15.08,1.62a111.32,111.32,0,0,0-27.17,9.48,6.07,6.07,0,0,0-.63-.07A47.53,47.53,0,0,1,414,13.54Zm-1.05-.07c-3.82,2.32-7.73,6-11.71,11.1-.22,0-.45,0-.68,0a56,56,0,0,0-3.82-11.43C402.18,13,407.64,13.15,412.92,13.47Zm-17.29-.33a48.57,48.57,0,0,1,4.86,11.41c-.23,0-.46,0-.68.05a75.17,75.17,0,0,0-20.44-10.44C384.69,13.6,390.17,13.26,395.63,13.14Zm-20.92,1.58c1.19-.16,2.4-.3,3.61-.44A79.46,79.46,0,0,1,399.76,24.6l-.15,0-.46.08a172.6,172.6,0,0,0-35.53-8C367,15.92,370.68,15.27,374.71,14.72Zm-11.94,2.14a179.44,179.44,0,0,1,36.35,7.85,3.18,3.18,0,0,0-.46.14,282.1,282.1,0,0,0-46.88-4.62A70.26,70.26,0,0,1,362.77,16.86Zm-36.93.43a153.83,153.83,0,0,1,34.59-.66,75.65,75.65,0,0,0-11.67,3.57,259.75,259.75,0,0,0-44.61,3.73A142.54,142.54,0,0,1,325.84,17.29ZM303,24.42a264.7,264.7,0,0,1,45.14-4,26.57,26.57,0,0,0-7.27,4.3,349.63,349.63,0,0,0-51.39,7.65A50,50,0,0,1,303,24.42ZM288.86,33a354.93,354.93,0,0,1,51.67-7.9A7,7,0,0,0,338,29.78a401,401,0,0,0-53.82,12C284.3,38.76,285.88,35.81,288.86,33ZM237.12,49.22a343.91,343.91,0,0,1,48.44-15.47c-3.07,2.92-4.7,6-4.8,9A395.65,395.65,0,0,0,230.31,62C230.44,57.68,232.77,53.36,237.12,49.22ZM189.45,73A336.77,336.77,0,0,1,234,50.49c-4.43,4.22-6.8,8.62-6.94,13.06a395.72,395.72,0,0,0-46.44,26C180.83,83.88,183.82,78.31,189.45,73Zm-42.89,30.58q6.27-5.26,12.82-10.22l2.37-1.79q12-9,24.9-16.88c-5.69,5.42-8.73,11.07-8.92,16.78a388.75,388.75,0,0,0-41.76,32C136.19,116.68,139.8,110,146.56,103.54Zm-13.17,23.57c.23,6.86,3.91,13.78,11.27,20.58a425.21,425.21,0,0,0-34.91,40.46c-8.36-7.72-12.54-15.59-12.8-23.39A386.5,386.5,0,0,1,133.39,127.11ZM94.72,167.43c.26,7.85,4.47,15.78,12.89,23.56a424.15,424.15,0,0,0-29.19,44.8c-9.26-8.55-13.88-17.27-14.17-25.9A375.9,375.9,0,0,1,94.72,167.43Zm-32.27,45.4c.3,8.68,5,17.44,14.26,26a410.54,410.54,0,0,0-22.85,48.47c-10-9.21-14.94-18.58-15.26-27.87A368.73,368.73,0,0,1,62.45,212.83ZM37.27,262.65c.31,9.33,5.31,18.74,15.31,28A399.71,399.71,0,0,0,36.69,342.1c-10.46-9.66-15.68-19.49-16-29.24A360.89,360.89,0,0,1,37.27,262.65ZM10,387.47v0Zm1.19-18.1a362.06,362.06,0,0,1,8.65-53.1c.33,9.76,5.57,19.62,16,29.3a391.2,391.2,0,0,0-8.29,53.76C16.88,389.44,11.53,379.36,11.19,369.37Zm17.27,63.07q0-13.86,1-27.56A132.22,132.22,0,0,0,50.71,419.5a244.51,244.51,0,0,0,28.52,13.64q-.87,13.75-.9,27.63t.8,27.3A245.47,245.47,0,0,1,50.6,474.43a132.54,132.54,0,0,1-21.2-14.61Q28.44,446.31,28.46,432.44Zm1.2,30.93A133.53,133.53,0,0,0,50.85,478,245.14,245.14,0,0,0,79.36,491.6a400.25,400.25,0,0,0,7,51.76A239.83,239.83,0,0,1,58.43,530a129.26,129.26,0,0,1-20.72-14.29A362,362,0,0,1,29.66,463.37Zm8.84,55.75a129.21,129.21,0,0,0,20.68,14.25A239.38,239.38,0,0,0,87,546.67a360.07,360.07,0,0,0,13.5,47.59,228.25,228.25,0,0,1-26.61-12.72A124,124,0,0,1,54.1,567.91,345.65,345.65,0,0,1,38.5,519.12ZM55.36,571a123,123,0,0,0,19.71,13.58,228.93,228.93,0,0,0,26.51,12.68,326.34,326.34,0,0,0,19.5,42.9,211.46,211.46,0,0,1-24.76-11.84A116,116,0,0,1,77.9,615.62,338.45,338.45,0,0,1,55.36,571Zm69.78,98.82a104.6,104.6,0,0,1-16.66-11.48A331.64,331.64,0,0,1,79.6,618.41,114.56,114.56,0,0,0,97.92,631a210,210,0,0,0,24.63,11.78,297.65,297.65,0,0,0,25,37.71A193,193,0,0,1,125.14,669.81Zm1-25.55c18.62,7.29,40.55,13.67,64.93,19.06a281.87,281.87,0,0,0,18.78,35.85c-22.16-4.9-42.11-10.7-59.05-17.33A293.83,293.83,0,0,1,126.19,644.26Zm26.45,39.87c16.81,6.58,36.62,12.34,58.63,17.21a223.9,223.9,0,0,0,22.49,29.73c-19.37-4.28-36.8-9.35-51.6-15.14A269.25,269.25,0,0,1,152.64,684.13Zm65.49,59.21a250.37,250.37,0,0,1-33.88-25.52,349,349,0,0,0,51.11,15A179.8,179.8,0,0,0,261.17,756,293.08,293.08,0,0,1,218.13,743.34Zm21-9.69c19.45,4.14,40.77,7.49,63.27,10a132.2,132.2,0,0,0,15.24,21.45c-19-2.11-36.92-4.93-53.29-8.42A174.83,174.83,0,0,1,239.17,733.65Zm55.05,40.26A145.51,145.51,0,0,1,266.14,758c16.17,3.44,33.89,6.23,52.6,8.31a77.25,77.25,0,0,0,17,14.2C321,778.83,307,776.63,294.22,773.91Zm28.23-7.24c18.82,2,38.59,3.26,58.73,3.76a81.14,81.14,0,0,0,3.8,13.32c-15.89-.4-31.49-1.4-46.34-3A73.93,73.93,0,0,1,322.45,766.67Zm33.66,21.07.5,0h.07Zm1.26.11a47.79,47.79,0,0,1-17.61-6.39c14.58,1.54,29.88,2.53,45.48,2.92,1.33,3.08,2.72,4.94,4.15,5.52C378.41,789.62,367.63,788.93,357.37,787.85Zm67.43,1.47c-11.05.65-22.24.85-33.24.63-1.12-.57-2.2-2.43-3.24-5.5,15.64.31,31.53,0,47.23-.9A21.78,21.78,0,0,1,424.8,789.32Zm11.43-6.41c-16,.94-32.19,1.23-48.11.91a100.78,100.78,0,0,1-3-13.3c20.18.41,40.7,0,61-1.15A57.6,57.6,0,0,1,436.23,782.91ZM486,777.64q-5,.79-10.28,1.51c-11.86,1.59-24.05,2.77-36.38,3.57a58.45,58.45,0,0,0,10.75-13.6c15.63-1,31.08-2.5,46.11-4.52q6.67-.9,13-1.91A109.84,109.84,0,0,1,486,777.64Zm40.94-9a311.25,311.25,0,0,1-38.07,8.54,114.53,114.53,0,0,0,24-15.08,390.34,390.34,0,0,0,48.26-10.83A200.1,200.1,0,0,1,527,768.64ZM563.3,749.9a396.67,396.67,0,0,1-48.89,11A154.34,154.34,0,0,0,536,738.63a472.29,472.29,0,0,0,58-13A218.38,218.38,0,0,1,563.3,749.9Zm32.62-26.11A476.89,476.89,0,0,1,537.32,737,215,215,0,0,0,556.16,708a541.3,541.3,0,0,0,66.58-15A246.3,246.3,0,0,1,595.92,723.79Zm44-17.93c-10.62,6.1-24.28,11.8-40.74,16.93a250.59,250.59,0,0,0,27.27-30.87c18.7-5.82,34.22-12.3,46.29-19.22A301.47,301.47,0,0,1,640,705.86Zm34.81-35.54c-12.16,7-27.79,13.51-46.63,19.37A286.78,286.78,0,0,0,651,652.89c20.71-6.45,37.9-13.62,51.26-21.29A313.55,313.55,0,0,1,674.76,670.32Zm29.07-41.44c-13.44,7.71-30.72,14.93-51.54,21.41a329.59,329.59,0,0,0,17.85-42.19c22.29-6.94,40.79-14.66,55.16-22.92A328.09,328.09,0,0,1,703.83,628.88Zm22.68-46.72c-14.43,8.28-33,16-55.37,23a378.11,378.11,0,0,0,12.42-47.1c23.39-7.27,42.79-15.38,57.88-24A349.17,349.17,0,0,1,726.51,582.16Zm31.24-26.43.1-.22c.36-.71.7-1.43,1-2.15Zm.44-1.55c-5.25,9.11-15,18-28.88,26.33a348,348,0,0,0,15.05-48.21c14.53-8.74,24.71-18,30.2-27.54A349,349,0,0,1,758.19,554.18Zm17.21-52.82c-5.51,9.55-15.71,18.84-30.27,27.6A373.29,373.29,0,0,0,753,476.87c14.88-8.95,25.31-18.45,30.94-28.21A358,358,0,0,1,775.4,501.36Zm8.83-56.27c-5.63,9.78-16.07,19.28-31,28.24q1-13.49,1-27.34t-.88-27.59c14.89-9,25.33-18.47,31-28.24q1,13.65,1,27.52T784.23,445.09Z"/><path class="cls-1" d="M741,589.62q4.93-8.89,9.37-18.1l2-4.22C749.55,572.91,745.94,580,741,589.62Z"/><path class="cls-1" d="M608.83,729.49l-1.31.88A231.8,231.8,0,0,0,631,714.2c-3,2.19-6.34,4.49-10.19,7.13Q614.92,725.56,608.83,729.49Z"/><path class="cls-1" d="M690.51,139.76c-9.13-10.55-13.72-15-25.77-26.35C672.5,121.12,682.33,131,690.51,139.76Z"/><path class="cls-1" d="M321.83,17.78c-2.39.41-4.77.9-7.12,1.43,1.61-.34,3.22-.65,4.85-.94Z"/><path class="cls-1" d="M757.5,243.64C752.71,232,750,226.78,743.11,214c-.14-.23-.27-.44-.4-.67q3.63,6.59,7,13.35Z"/><path class="cls-1" d="M790.2,400.64l-1-27.51c0,.58,0,1.15-.06,1.72.3,6.52.62,14.72,1,25.79Z"/><path class="cls-1" d="M329.28,16.4c3.6-.73,6.11-1.2,9-1.67-6.41,1-10.14,1.69-16.49,3.05l1.74-.28C325.45,17.12,327.35,16.76,329.28,16.4Z"/><path class="cls-1" d="M504.82,24.13l1.73.46c-6-1.69-8.62-2.41-13.77-3.62,2.2.56,4.93,1.28,8.68,2.27C502.59,23.52,503.71,23.83,504.82,24.13Z"/><path class="cls-1" d="M448,12.75c-4.61-.6-6-.73-10.43-1.16l6.27.66C445.27,12.4,446.65,12.58,448,12.75Z"/><path class="cls-1" d="M695.46,145.15c-1.55-1.72-3.22-3.53-5-5.39,2.38,2.75,5.07,5.92,8.28,9.73A43.37,43.37,0,0,0,695.46,145.15Z"/><path class="cls-1" d="M338.32,14.73c2.59-.41,5.6-.87,9.41-1.44C343.64,13.9,340.83,14.32,338.32,14.73Z"/><path class="cls-1" d="M314.65,19.22h0Z"/><path class="cls-1" d="M336.41,15.13q4.56-.78,9.39-1.53Q340.93,14.31,336.41,15.13Z"/><path class="cls-1" d="M313,19.6l1.67-.38Z"/><path class="cls-1" d="M257.78,36.71l-.14.07.55-.21Z"/><path class="cls-1" d="M377.12,10.45c2-.11,4.72-.24,8.87-.43C382.17,10.16,380.79,10.21,377.12,10.45Z"/><path class="cls-1" d="M368,11.08c4.3-.3,7.05-.5,9.1-.63C373.41,10.64,371.92,10.76,368,11.08Z"/><path class="cls-1" d="M358.68,12c.36,0,.71-.05,1.06-.09l8.28-.79Z"/><path class="cls-1" d="M393.32,9.82Z"/><path class="cls-1" d="M255.07,37.75l-1,.41.78-.3Z"/><path class="cls-1" d="M149.72,100.74c-.62.51-1.21,1-1.78,1.53.86-.73,1.75-1.44,2.62-2.16l.39-.32Z"/><path class="cls-1" d="M184.39,75l4.54-3.15C187.47,72.87,186,73.93,184.39,75Z"/><path class="cls-1" d="M144.08,105.64c-.58.5-1.14,1-1.71,1.51l1.58-1.38Z"/><path class="cls-1" d="M202.22,63.68c-1.17.68-2.29,1.37-3.37,2.06,1.74-1,3.44-2,5.12-3Z"/><path class="cls-1" d="M204,62.72c6.67-3.67,11.64-6.4,15.65-8.57C214.63,56.73,209.45,59.55,204,62.72Z"/><path class="cls-1" d="M252,39l-.67.3,2.75-1.1Z"/><path class="cls-1" d="M246.08,41.43a277.33,277.33,0,0,0-26.46,12.72c11.09-5.72,21.24-10.25,31.66-14.89C249.54,40,247.8,40.68,246.08,41.43Z"/><path class="cls-1" d="M393.4,9.82h0Z"/><path class="cls-1" d="M507.25,24.79l-.7-.2.55.16Z"/><path class="cls-1" d="M537,34.62c-2.08-.75-4.36-1.55-6.72-2.36,2.85,1,6.27,2.29,10.54,3.85C539.59,35.61,538.32,35.11,537,34.62Z"/><path class="cls-1" d="M479.24,17.89c6.33,1.42,10.4,2.34,13.54,3.08C487.48,19.61,485.26,19.15,479.24,17.89Z"/><path class="cls-1" d="M541.7,36.42l.41.16.23.09Z"/><path class="cls-1" d="M651.31,101.58c-11.13-9.2-16-13.08-25.2-19.41,10.95,7.87,20.3,15.57,30,23.89A57.75,57.75,0,0,0,651.31,101.58Z"/><path class="cls-1" d="M656.43,106c-.66-.62-1.35-1.24-2.08-1.85Z"/><path class="cls-1" d="M588.65,58.47c-10.42-5.64-15.56-8.34-23-11.71,2.87,1.37,5.79,2.83,9.16,4.56C579.5,53.59,584.12,56,588.65,58.47Z"/><path class="cls-1" d="M599.48,64.69,598.26,64l-1.17-.65c1.64,1,3.25,1.93,4.81,2.88C601.11,65.69,600.32,65.19,599.48,64.69Z"/><path class="cls-1" d="M474.05,16.9l5.19,1C477.64,17.57,475.88,17.24,474.05,16.9Z"/><path class="cls-1" d="M403,9.78c4,.08,6.53.12,8.46.17C408,9.82,406.65,9.81,403,9.78Z"/><path class="cls-1" d="M411.46,10l8.47.33C416.31,10.1,414.91,10,411.46,10Z"/><path class="cls-1" d="M395.89,9.81l7.11,0C400.89,9.77,398.28,9.79,395.89,9.81Z"/><path class="cls-1" d="M448,12.75l4.73.63C451.2,13.16,449.62,13,448,12.75Z"/><path class="cls-1" d="M431.75,11.09l5.85.5C435.85,11.43,433.8,11.26,431.75,11.09Z"/><path class="cls-1" d="M453.44,13.45l2.57.37.92.12Z"/><path class="cls-1" d="M456.93,13.94Z"/></svg>