<svg id="Layer_1" data-name="Layer 1" xmlns="http://www.w3.org/2000/svg" viewBox="0 0 800 800"><defs><style>.cls-1{fill:#222;}</style></defs><path class="cls-1" d="M615.88,526.33q7.35,4,14.62,7.82c4.84,2.56,9.67,5.1,14.47,7.58s9.57,4.93,14.33,7.32l-9.44-32.79Q643,512.8,636,509.18t-13.95-7.33q-7-3.74-14.09-7.56t-14.24-7.73l7.35,31.78Q608.53,522.38,615.88,526.33Z"/><path class="cls-1" d="M529.75,373.55l10.9,5.92,10.87,5.95,10.83,5.95,1.85,1,1.84,1,1.84,1c.62.33,1.23.67,1.84,1l-5.37-23.63-1.78-1-1.79-1-1.78-1-1.79-1-10.49-5.78-10.53-5.78q-5.28-2.88-10.57-5.75T515,344.87l3.79,22.81Q524.29,370.61,529.75,373.55Z"/><path class="cls-1" d="M625,563.24q7.65,4.1,15.22,8.11t15.07,7.87q7.5,3.87,14.92,7.6L660,551.3q-7.16-3.6-14.37-7.34t-14.51-7.6q-7.29-3.87-14.65-7.83l-14.81-8,8,34.42Q617.31,559.13,625,563.24Z"/><path class="cls-1" d="M545,458.3l12.16,6.55,12.12,6.58L581.31,478l2.06,1.12,2,1.12,2.06,1.12,2,1.12-6.67-29.32-2-1.09-2-1.08-2-1.09-2-1.08-11.66-6.38-11.7-6.37-11.74-6.34q-5.88-3.15-11.78-6.28l4.69,28.34Q538.86,455,545,458.3Z"/><path class="cls-1" d="M534.45,399.77l11.3,6.12L557,412l11.22,6.15,1.91,1.05,1.91,1.05,1.91,1,1.9,1.05L570.09,397l-1.85-1-1.84-1-1.85-1-1.85-1-10.85-6-10.89-6q-5.46-3-10.93-5.93c-3.65-2-7.31-3.94-11-5.88l4.06,24.47Q528.79,396.73,534.45,399.77Z"/><path class="cls-1" d="M539.5,428l11.72,6.32,11.67,6.36L574.52,447l2,1.09,2,1.08,2,1.08,2,1.08-6.19-27.22-1.91-1L572.42,422,570.51,421l-1.91-1-11.24-6.16-11.29-6.16q-5.64-3.07-11.32-6.13t-11.36-6.08l4.36,26.29Q533.63,424.79,539.5,428Z"/><path class="cls-1" d="M624.59,326.76q-5.15-2.24-10.32-4.63t-10.39-4.95q-5.22-2.54-10.48-5.22l5.54,19q5.4,2.74,10.76,5.36t10.69,5.07q5.33,2.46,10.61,4.76t10.55,4.4l-6.7-19.49Q629.74,329,624.59,326.76Z"/><path class="cls-1" d="M550.84,491.12q6.33,3.39,12.65,6.8t12.6,6.82l12.56,6.83,2.14,1.16,2.14,1.16,2.13,1.17,2.13,1.15L590,484.51l-2.05-1.12-2.06-1.12-2.06-1.13L581.75,480l-12.11-6.59q-6.06-3.32-12.15-6.6t-12.19-6.57q-6.1-3.27-12.24-6.5l5.08,30.64Q544.5,487.74,550.84,491.12Z"/><path class="cls-1" d="M654.73,417.84q-5.84-2.5-11.69-5.21t-11.76-5.55q-5.91-2.85-11.86-5.86l7.14,24.5q6.15,3.11,12.24,6t12.14,5.72q6,2.77,12.06,5.36t12,5l-8.65-25.14Q660.55,420.35,654.73,417.84Z"/><path class="cls-1" d="M694.17,537q-6.72-2.87-13.47-5.94t-13.56-6.33q-6.79-3.25-13.66-6.68l9.57,32.85q7.13,3.54,14.18,6.91t14.06,6.55q7,3.18,14,6.13t13.88,5.68l-11.58-33.68Q700.88,539.9,694.17,537Z"/><path class="cls-1" d="M638.71,369.44q-5.46-2.37-11-4.9c-3.67-1.69-7.34-3.44-11-5.23s-7.39-3.64-11.12-5.53l6.26,21.49c3.84,1.93,7.65,3.83,11.46,5.67s7.59,3.64,11.37,5.38,7.53,3.42,11.29,5,7.49,3.18,11.22,4.67l-7.58-22Q644.18,371.8,638.71,369.44Z"/><path class="cls-1" d="M631.44,347.45q-5.31-2.29-10.64-4.76t-10.7-5.09q-5.37-2.61-10.79-5.36l5.88,20.17q5.58,2.83,11.1,5.52t11,5.22c3.66,1.68,7.3,3.32,10.94,4.89s7.26,3.09,10.87,4.53L642,351.86C638.49,350.46,635,349,631.44,347.45Z"/><path class="cls-1" d="M646.46,392.86q-5.64-2.43-11.31-5.05t-11.39-5.38q-5.71-2.78-11.48-5.69L619,399.66q5.94,3,11.84,5.85t11.74,5.54q5.85,2.68,11.66,5.2t11.59,4.81l-8.08-23.52Q652.1,395.31,646.46,392.86Z"/><path class="cls-1" d="M683.21,503.91q-6.47-2.76-13-5.73t-13.06-6.12q-6.57-3.15-13.17-6.46l8.86,30.4q6.84,3.42,13.63,6.67T680,529q6.74,3.06,13.44,5.92t13.35,5.48L696.1,509.22Q689.68,506.68,683.21,503.91Z"/><path class="cls-1" d="M673,473.17q-6.24-2.67-12.52-5.54t-12.59-5.92q-6.33-3-12.7-6.25l8.22,28.22q6.6,3.3,13.14,6.44t13,6.11q6.5,3,12.94,5.72t12.87,5.3l-10-28.95C681.34,476.67,677.19,475,673,473.17Z"/><path class="cls-1" d="M663.56,444.54q-6-2.6-12.08-5.37t-12.17-5.73q-6.1-2.94-12.26-6.05l7.66,26.28q6.36,3.19,12.67,6.24t12.57,5.9q6.25,2.87,12.48,5.53t12.41,5.13l-9.26-27Q669.58,447.14,663.56,444.54Z"/><path class="cls-1" d="M688.84,595.94q7.33,3.49,14.64,6.79T718,609.09q7.25,3.07,14.45,5.89l-12.54-36.47Q713,575.78,706,572.82t-14-6.15q-7-3.18-14.09-6.56t-14.21-6.93l10.37,35.58Q681.49,592.44,688.84,595.94Z"/><path class="cls-1" d="M525.36,349.1q5.28,2.85,10.54,5.74c3.51,1.91,7,3.84,10.51,5.76l10.47,5.77,1.79,1,1.78,1,1.78,1,1.77,1-5-22.1-1.72-.95-1.73-.95-1.73-1-1.73-.95-10.15-5.61-10.19-5.6-10.22-5.57q-5.13-2.78-10.26-5.53l3.54,21.33Q520.09,346.25,525.36,349.1Z"/><path class="cls-1" d="M549,192q-4.41-2.37-8.87-4.8t-8.95-4.94c-3-1.66-6-3.35-9-5l2.89,12.52,9.26,5.15q4.6,2.55,9.16,5.05t9.08,4.9q4.5,2.41,9,4.73l-3.73-12.95Q553.45,194.34,549,192Z"/><path class="cls-1" d="M518.48,175.13l-1.31-.73-1.3-.73-1.31-.74-7.68-4.3q-3.84-2.16-7.7-4.3l-7.73-4.28c-2.58-1.42-5.16-2.84-7.75-4.24l2,12,7.93,4.33,7.91,4.38,7.88,4.4,7.86,4.4,1.34.75,1.33.75,1.34.75,1.33.74-2.84-12.49Z"/><path class="cls-1" d="M459.92,193.49q5,2.47,10.09,5t10.07,5.2q5,2.64,10,5.34l-2.26-14q-4.89-2.62-9.79-5.21t-9.82-5.08q-4.92-2.5-9.85-4.92t-9.87-4.73l1.27,13.54Q454.86,191,459.92,193.49Z"/><path class="cls-1" d="M556.76,220.13q-4.63-2.48-9.32-5T538,209.92q-4.72-2.61-9.51-5.29l3.21,13.86q4.89,2.73,9.74,5.41t9.64,5.3q4.8,2.61,9.55,5.15t9.46,5L566,225Q561.4,222.59,556.76,220.13Z"/><path class="cls-1" d="M498.63,200.08q4.17,2.28,8.32,4.59l8.3,4.61,8.27,4.62,1.41.79,1.41.79,1.41.78c.46.27.93.53,1.4.79L526,203.22l-1.37-.76-1.38-.77-1.37-.77-1.38-.77-8.07-4.52-8.1-4.51q-4.05-2.25-8.12-4.48t-8.15-4.45l2.21,13.34Q494.47,197.78,498.63,200.08Z"/><path class="cls-1" d="M552.8,205.71q-4.51-2.42-9.08-4.91t-9.18-5.06l-9.27-5.16,3.05,13.16q4.77,2.67,9.49,5.28t9.39,5.17q4.68,2.55,9.31,5t9.22,4.85l-3.92-13.61Q557.33,208.13,552.8,205.71Z"/><path class="cls-1" d="M521.48,188.46l-1.34-.75L518.8,187l-1.34-.75q-3.93-2.2-7.87-4.4l-7.89-4.41L493.78,173l-7.95-4.34,2.1,12.67q4.08,2.21,8.14,4.43l8.11,4.49,8.08,4.5q4,2.25,8.06,4.51l1.37.77,1.38.76,1.37.77,1.36.77-3-13.14Z"/><path class="cls-1" d="M458.3,179q4.92,2.42,9.83,4.92c3.27,1.66,6.54,3.36,9.81,5.07s6.52,3.45,9.77,5.2l-2.14-13.3q-4.77-2.57-9.54-5.08t-9.57-5q-4.8-2.45-9.59-4.8t-9.62-4.62l1.2,12.85Q453.39,176.54,458.3,179Z"/><path class="cls-1" d="M517.42,304.8l9.88,5.4,9.85,5.43,9.82,5.43,1.67.93,1.67.93,1.67.92,1.67.92-4.42-19.44-1.62-.9-1.62-.9-1.63-.9-1.62-.9-9.54-5.28-9.57-5.29L514,285.9q-4.81-2.62-9.64-5.21l3.11,18.76Q512.47,302.12,517.42,304.8Z"/><path class="cls-1" d="M501.34,215.15l8.54,4.71,8.53,4.74,8.49,4.73,1.45.81,1.44.81,1.45.81,1.44.8L529.36,218l-1.4-.78-1.41-.79-1.41-.79-1.41-.79-8.29-4.62q-4.14-2.33-8.31-4.63t-8.34-4.6l-8.36-4.55,2.33,14.06Q497.05,212.8,501.34,215.15Z"/><path class="cls-1" d="M513.81,284.69q4.8,2.61,9.58,5.25l9.56,5.27,9.52,5.28,1.62.9,1.62.9,1.62.89,1.61.9-4.16-18.29-1.57-.87-1.57-.88-1.58-.87c-.52-.3-1-.59-1.58-.88l-9.25-5.14L519.94,272q-4.65-2.56-9.32-5.11l-9.35-5.06,2.92,17.65Q509,282.07,513.81,284.69Z"/><path class="cls-1" d="M521.26,326.23c3.4,1.84,6.81,3.7,10.2,5.56s6.79,3.72,10.17,5.59L551.76,343l1.73,1,1.73.95c.57.32,1.14.64,1.72.95s1.14.64,1.72.95L554,326.08l-1.67-.92-1.67-.93-1.68-.92-1.67-.93-9.84-5.44-9.87-5.44q-4.95-2.72-9.9-5.41t-9.94-5.36l3.31,20Q516.15,323.46,521.26,326.23Z"/><path class="cls-1" d="M504.19,231.08l8.79,4.84,8.76,4.86,8.73,4.86,1.48.83,1.49.83,1.48.82,1.48.83-3.5-15.39-1.44-.81-1.45-.81-1.44-.81-1.45-.81-8.51-4.74-8.54-4.74-8.56-4.72q-4.29-2.35-8.59-4.67l2.46,14.85Q499.79,228.67,504.19,231.08Z"/><path class="cls-1" d="M510.41,265.77q4.66,2.53,9.31,5.1L529,276l9.24,5.13,1.58.87,1.57.88,1.57.87,1.57.87-3.93-17.25-1.52-.85-1.53-.85-1.53-.85-1.53-.86-9-5-9-5q-4.53-2.5-9.05-5t-9.08-4.92l2.75,16.64Q505.76,263.23,510.41,265.77Z"/><path class="cls-1" d="M507.21,247.92q4.53,2.47,9,5l9,5q4.5,2.49,9,5l1.54.85,1.52.85,1.53.85,1.52.85L536.64,250l-1.48-.83-1.49-.82-1.49-.83-1.49-.84L522,241.8l-8.77-4.86q-4.39-2.43-8.81-4.84c-2.93-1.61-5.88-3.21-8.82-4.8l2.6,15.7C501.17,244.63,504.2,246.27,507.21,247.92Z"/><path class="cls-1" d="M332.56,303.14c-2.8-.2-5.6-.36-8.4-.46s-5.59-.16-8.38-.16c-1.65,0-3.3,0-5,.06s-3.3.09-4.95.17-3.29.17-4.94.28-3.29.25-4.94.41l-3.51,22.41q2.55-.24,5.1-.42c1.71-.12,3.41-.22,5.12-.3s3.41-.13,5.11-.17,3.42-.06,5.13-.06q4.33,0,8.67.16c2.89.11,5.79.27,8.68.48s5.8.48,8.7.79,5.8.67,8.7,1.08l1.7-22.46c-2.81-.39-5.61-.74-8.42-1.05S335.36,303.35,332.56,303.14Z"/><path class="cls-1" d="M360.3,160.43c-2.19-.32-4.39-.59-6.57-.83s-4.38-.44-6.57-.61-4.37-.28-6.56-.36-4.36-.13-6.54-.13c-1.29,0-2.58,0-3.87.05s-2.58.07-3.87.13-2.57.14-3.86.23-2.57.2-3.86.32l-2.12,13.55c1.32-.13,2.64-.23,4-.33s2.64-.17,4-.23,2.64-.11,4-.14,2.64,0,4,0q3.36,0,6.72.12c2.24.09,4.48.21,6.73.38s4.49.37,6.74.62,4.49.53,6.74.85Z"/><path class="cls-1" d="M359.2,174.93c-2.25-.32-4.5-.61-6.75-.85s-4.51-.46-6.75-.62-4.5-.3-6.75-.38-4.48-.13-6.73-.13c-1.32,0-2.65,0-4,.05s-2.65.07-4,.14-2.65.13-4,.23-2.64.2-4,.33L314.09,188c1.35-.12,2.71-.24,4.07-.33s2.72-.18,4.08-.24,2.72-.11,4.08-.14,2.72,0,4.09,0q3.45,0,6.91.13t6.92.39c2.31.17,4.63.38,6.94.63s4.62.55,6.94.88Z"/><path class="cls-1" d="M358,190.27c-2.32-.33-4.63-.62-7-.87s-4.63-.47-6.94-.64-4.63-.3-6.94-.39-4.62-.13-6.93-.13c-1.36,0-2.73,0-4.09,0s-2.73.08-4.09.14-2.72.14-4.09.24-2.72.21-4.08.34l-2.38,15.2c1.4-.14,2.8-.25,4.2-.35s2.79-.18,4.19-.25,2.81-.11,4.21-.14,2.8-.05,4.21-.05q3.56,0,7.12.14t7.13.39q3.57.27,7.14.66t7.14.89Z"/><path class="cls-1" d="M362.32,133.68q-3.12-.45-6.23-.79c-2.08-.23-4.15-.42-6.23-.58s-4.14-.27-6.21-.34-4.14-.12-6.21-.12c-1.22,0-2.45,0-3.67,0s-2.44.07-3.66.13-2.45.13-3.66.21-2.44.19-3.66.31l-1.91,12.16c1.25-.12,2.5-.22,3.75-.31s2.5-.16,3.75-.22,2.51-.1,3.76-.13,2.5,0,3.76,0q3.18,0,6.36.13c2.12.08,4.25.2,6.37.35s4.25.36,6.38.59,4.26.5,6.38.81Z"/><path class="cls-1" d="M361.33,146.69q-3.19-.45-6.39-.81c-2.13-.23-4.26-.43-6.39-.58s-4.26-.28-6.38-.36-4.25-.13-6.38-.13c-1.25,0-2.51,0-3.76.05s-2.51.07-3.77.13-2.5.13-3.75.22-2.51.19-3.76.31l-2,12.83c1.28-.12,2.57-.23,3.85-.32s2.57-.16,3.86-.22,2.57-.11,3.86-.14,2.57,0,3.86,0c2.18,0,4.35,0,6.53.12s4.37.21,6.55.37,4.37.36,6.55.6,4.37.52,6.56.83Z"/><path class="cls-1" d="M356.82,206.54q-3.58-.51-7.16-.9c-2.39-.26-4.77-.48-7.16-.66s-4.76-.31-7.14-.4-4.76-.13-7.13-.13c-1.41,0-2.82,0-4.22.05s-2.81.08-4.21.14-2.81.15-4.21.25-2.8.21-4.2.35l-2.53,16.12c1.44-.13,2.88-.25,4.32-.35s2.89-.19,4.33-.26,2.89-.11,4.33-.15,2.9,0,4.34,0c2.45,0,4.89,0,7.34.14s4.9.23,7.35.41,4.91.41,7.36.68,4.91.57,7.37.92Z"/><path class="cls-1" d="M354.13,242.15q-3.81-.54-7.62-1c-2.53-.28-5.07-.51-7.6-.7s-5.07-.32-7.6-.42-5.06-.14-7.59-.14c-1.49,0-3,0-4.48.05s-3,.08-4.48.15-3,.16-4.47.26-3,.23-4.47.37L303,259c1.54-.14,3.07-.27,4.61-.38s3.07-.19,4.61-.26,3.08-.13,4.61-.16,3.08-.05,4.63-.05c2.6,0,5.21,0,7.82.14s5.21.25,7.83.44,5.22.43,7.84.71,5.23.61,7.85,1Z"/><path class="cls-1" d="M355.51,223.8q-3.69-.53-7.38-.93c-2.46-.27-4.91-.49-7.37-.67s-4.91-.32-7.36-.41-4.91-.14-7.36-.14c-1.45,0-2.89,0-4.34,0s-2.9.08-4.34.15-2.9.15-4.34.25-2.89.22-4.33.36L306,239.61c1.49-.14,3-.27,4.46-.37s3-.19,4.46-.26,3-.12,4.48-.16,3,0,4.47,0c2.52,0,5.05,0,7.57.15s5.06.23,7.58.42,5.06.42,7.6.69,5.06.59,7.6.95Z"/><path class="cls-1" d="M190,227.49q3.23-5.09,6.5-9.88t6.62-9.34q3.35-4.53,6.75-8.8t6.87-8.27l4.31-12.88q-3.39,3.9-6.72,8.08T207.75,195q-3.25,4.43-6.46,9.13t-6.35,9.65Z"/><path class="cls-1" d="M244.51,137.17q-3.36,3.17-6.66,6.58t-6.55,7.08l-3.86,11.62q3.31-3.73,6.69-7.23T241,148.5q3.45-3.24,7-6.22c2.33-2,4.69-3.89,7.07-5.7l3.25-11.07q-3.48,2.67-6.91,5.58T244.51,137.17Z"/><path class="cls-1" d="M363.25,121.32q-3-.43-6.07-.77t-6.07-.56q-3-.22-6.06-.34c-2-.08-4-.12-6.05-.12-1.19,0-2.38,0-3.57,0s-2.39.07-3.58.12-2.37.13-3.56.21-2.38.18-3.57.3l-1.81,11.55c1.22-.12,2.43-.22,3.65-.31s2.44-.16,3.66-.21,2.44-.1,3.66-.13,2.44,0,3.66,0q3.09,0,6.2.12t6.2.35q3.1.22,6.21.57c2.08.22,4.15.49,6.23.78Z"/><path class="cls-1" d="M195.25,212.91q3.15-4.95,6.34-9.64t6.46-9.12q3.27-4.44,6.58-8.6t6.71-8.07l4.09-12.25q-3.3,3.83-6.55,7.9t-6.43,8.4q-3.19,4.33-6.32,8.92t-6.2,9.44Z"/><path class="cls-1" d="M618.13,307.24q-5-2.17-10-4.51T598,297.92q-5.07-2.48-10.18-5.08l5.22,17.91q5.25,2.67,10.45,5.21t10.38,4.94c3.44,1.59,6.88,3.14,10.3,4.62s6.84,2.92,10.24,4.29l-6.32-18.39Q623.14,309.42,618.13,307.24Z"/><path class="cls-1" d="M216.91,168.71q-3.1,4.23-6.16,8.72t-6.06,9.22l-4.46,12.4q3.08-4.85,6.19-9.42t6.31-8.91q3.18-4.32,6.42-8.39c2.17-2.72,4.35-5.34,6.55-7.89l3.9-11.66q-3.24,3.74-6.4,7.72T216.91,168.71Z"/><path class="cls-1" d="M274.35,114.71c-2.43,1.41-4.83,2.89-7.21,4.46s-4.74,3.22-7.08,5l-3.2,11q3.58-2.66,7.23-5.06t7.38-4.55q3.72-2.16,7.5-4c2.53-1.27,5.07-2.45,7.64-3.55l2.55-10.67c-2.52,1.08-5,2.23-7.47,3.47S276.77,113.31,274.35,114.71Z"/><path class="cls-1" d="M364.13,109.57q-3-.43-5.92-.75t-5.91-.55q-3-.22-5.91-.33t-5.9-.12c-1.16,0-2.33,0-3.49,0s-2.32.07-3.48.13-2.32.12-3.48.2-2.32.18-3.48.29l-1.72,11c1.19-.11,2.37-.21,3.56-.3s2.37-.15,3.56-.21,2.38-.09,3.57-.12,2.38,0,3.57,0q3,0,6,.11t6.05.34q3,.23,6.05.56t6.06.77Z"/><path class="cls-1" d="M315.78,99.13c-1.66.32-3.33.67-5,1.06s-3.32.81-5,1.27c-1.24.34-2.48.7-3.71,1.08s-2.46.78-3.68,1.19-2.44.85-3.65,1.31-2.42.92-3.62,1.41l-2.5,10.65c1.23-.5,2.46-1,3.7-1.44s2.49-.91,3.74-1.34,2.51-.83,3.77-1.22,2.52-.75,3.8-1.1q2.54-.7,5.09-1.3t5.1-1.08c1.71-.33,3.41-.62,5.12-.89s3.42-.49,5.13-.68l1.69-10.46c-1.67.19-3.34.42-5,.67S317.45,98.81,315.78,99.13Z"/><path class="cls-1" d="M352.65,261.72q-3.93-.56-7.86-1t-7.86-.72c-2.62-.19-5.23-.34-7.85-.43s-5.22-.15-7.83-.15c-1.55,0-3.09,0-4.63.05s-3.09.09-4.63.16-3.08.16-4.62.27-3.08.23-4.62.38l-3.05,19.51c1.58-.15,3.17-.28,4.76-.39s3.17-.21,4.76-.28S312.4,279,314,279s3.18-.06,4.77-.06c2.7,0,5.39.05,8.09.16s5.39.25,8.1.44,5.4.45,8.1.74,5.41.63,8.12,1Z"/><path class="cls-1" d="M586,210.21q-4.28-1.87-8.57-3.89t-8.63-4.14q-4.32-2.13-8.69-4.38l3.78,13c3,1.52,5.94,3,8.9,4.47s5.89,2.87,8.83,4.24,5.85,2.69,8.77,4,5.82,2.51,8.71,3.68l-4.58-13.33Q590.3,212.08,586,210.21Z"/><path class="cls-1" d="M590.71,224.36q-4.38-1.91-8.79-4t-8.84-4.25q-4.44-2.17-8.91-4.48l4,13.64q4.58,2.35,9.12,4.59t9.05,4.34q4.51,2.1,9,4.06t8.93,3.77l-4.81-14Q595.07,226.28,590.71,224.36Z"/><path class="cls-1" d="M595.63,239.23q-4.5-2-9-4.07t-9.07-4.35q-4.54-2.24-9.13-4.58l4.18,14.36q4.7,2.4,9.36,4.69t9.29,4.45q4.63,2.16,9.23,4.17t9.17,3.86L604.58,243Q600.11,241.2,595.63,239.23Z"/><path class="cls-1" d="M581.57,196.74c-2.79-1.22-5.57-2.49-8.37-3.8s-5.61-2.66-8.43-4.05-5.64-2.82-8.48-4.28l3.6,12.36q4.35,2.24,8.68,4.37t8.61,4.14q4.29,2,8.56,3.88t8.51,3.6l-4.37-12.7C587.12,199.14,584.35,198,581.57,196.74Z"/><path class="cls-1" d="M612,288.82q-4.87-2.11-9.76-4.39t-9.81-4.69q-4.94-2.4-9.9-4.94l4.93,16.9q5.1,2.6,10.15,5.07c3.38,1.65,6.73,3.25,10.08,4.8s6.69,3.06,10,4.51,6.65,2.83,10,4.17l-6-17.36Q616.9,290.94,612,288.82Z"/><path class="cls-1" d="M600.81,254.89q-4.6-2-9.25-4.18t-9.3-4.45q-4.66-2.3-9.38-4.7l4.42,15.14q4.82,2.46,9.61,4.81t9.54,4.56q4.75,2.22,9.47,4.28t9.42,4L610,258.76Q605.42,256.9,600.81,254.89Z"/><path class="cls-1" d="M545.46,178.93q-4.31-2.31-8.66-4.69l-8.74-4.82-8.83-4.94L522,176.4l9,5q4.5,2.49,8.94,4.93t8.85,4.79q4.41,2.35,8.78,4.62L554,183.45Q549.77,181.23,545.46,178.93Z"/><path class="cls-1" d="M606.27,271.4q-4.72-2.06-9.49-4.28t-9.56-4.57q-4.79-2.34-9.62-4.82l4.66,16q4.95,2.52,9.87,4.94t9.81,4.67q4.88,2.28,9.73,4.39t9.68,4.06l-5.65-16.41Q611,273.47,606.27,271.4Z"/><path class="cls-1" d="M560.92,235.31q-4.75-2.53-9.56-5.16t-9.66-5.3L532,219.43,535.33,234q5,2.81,10,5.55c3.32,1.83,6.62,3.65,9.9,5.43s6.55,3.55,9.81,5.28,6.49,3.43,9.71,5.09l-4.35-15.11Q565.69,237.85,560.92,235.31Z"/><path class="cls-1" d="M391.47,364.61q-7-2-14.06-3.73t-14-3.13q-7-1.41-14-2.49l-1.83,26.05q7.28,1.11,14.55,2.57t14.57,3.23q7.28,1.78,14.56,3.86t14.57,4.43l-.23-26.51Q398.49,366.63,391.47,364.61Z"/><path class="cls-1" d="M391.17,392.77c-4.87-1.38-9.74-2.68-14.61-3.86s-9.73-2.27-14.6-3.25-9.73-1.83-14.59-2.57l-2,28.18q7.58,1.16,15.15,2.67t15.16,3.35q7.57,1.84,15.16,4T406,425.89l-.26-28.68Q398.47,394.86,391.17,392.77Z"/><path class="cls-1" d="M184.5,242.82q3.3-5.19,6.67-10.12t6.79-9.57q3.42-4.65,6.92-9t7.05-8.47l4.53-13.57q-3.47,4-6.88,8.28t-6.76,8.82q-3.34,4.54-6.63,9.35t-6.51,9.89Z"/><path class="cls-1" d="M435.08,155.86q-4.83-2.1-9.66-4.08T415.76,148q-4.85-1.81-9.68-3.47l.18,12.44q5,1.69,9.91,3.56t9.91,3.88q4.95,2,9.89,4.18t9.88,4.44l-1.13-12.82Q439.91,158,435.08,155.86Z"/><path class="cls-1" d="M472.25,149.68q-4.54-2.4-9.1-4.73T454,140.37q-4.57-2.24-9.14-4.4l1.08,11.6q4.68,2.2,9.35,4.5t9.34,4.68q4.66,2.38,9.31,4.83t9.29,4.95l-1.94-12Q476.79,152.07,472.25,149.68Z"/><path class="cls-1" d="M434.17,143q-4.69-2.06-9.41-4t-9.42-3.7c-3.14-1.18-6.29-2.32-9.43-3.39l.16,11.82q4.83,1.65,9.66,3.47t9.65,3.78q4.83,2,9.64,4.08t9.63,4.33l-1.08-12.17Q438.88,145,434.17,143Z"/><path class="cls-1" d="M515.62,162.46l-1.27-.72-1.28-.72-1.28-.71-7.49-4.21c-2.5-1.4-5-2.81-7.52-4.2s-5-2.8-7.54-4.18l-7.56-4.15,1.9,11.47q3.87,2.1,7.73,4.23l7.72,4.27,7.69,4.3,7.66,4.29,1.31.74,1.31.73,1.3.73,1.3.73-2.7-11.89Z"/><path class="cls-1" d="M351.08,282.6q-4.08-.57-8.14-1c-2.71-.29-5.41-.54-8.12-.74s-5.41-.35-8.11-.45-5.41-.15-8.1-.15c-1.6,0-3.2,0-4.79.05s-3.19.09-4.78.17-3.19.16-4.78.28-3.18.24-4.77.39L296.21,302c1.64-.15,3.29-.28,4.93-.4s3.29-.21,4.93-.28,3.3-.14,4.94-.17,3.3-.06,4.95-.06q4.19,0,8.37.16c2.79.1,5.58.26,8.38.46s5.59.46,8.39.76,5.6.65,8.4,1Z"/><path class="cls-1" d="M302.5,241.12q-3.3.38-6.6.87t-6.58,1.12c-2.2.42-4.38.88-6.57,1.38s-4.37,1-6.56,1.64q-2.44.68-4.88,1.41c-1.63.49-3.24,1-4.85,1.55s-3.21,1.1-4.8,1.69-3.19,1.2-4.77,1.84l-4.36,18.61c1.63-.66,3.27-1.28,4.91-1.89s3.29-1.19,4.95-1.74,3.32-1.09,5-1.59,3.36-1,5-1.45q3.38-.92,6.76-1.69t6.77-1.42c2.26-.43,4.52-.81,6.78-1.16s4.53-.64,6.8-.89Z"/><path class="cls-1" d="M299.33,260.65c-2.27.26-4.55.56-6.82.9s-4.53.73-6.8,1.16-4.52.9-6.78,1.42-4.51,1.08-6.77,1.7c-1.69.45-3.37.94-5,1.44s-3.35,1-5,1.6-3.31,1.14-5,1.74-3.29,1.24-4.92,1.9l-4.65,19.87q2.52-1,5.07-1.95c1.7-.62,3.4-1.22,5.12-1.8s3.43-1.12,5.16-1.64,3.46-1,5.2-1.49q3.5-.94,7-1.75t7-1.46q3.5-.66,7-1.19t7-.93Z"/><path class="cls-1" d="M295.94,281.5c-2.35.27-4.69.58-7,.93s-4.69.75-7,1.19-4.68.94-7,1.47-4.67,1.12-7,1.75q-2.62.71-5.22,1.49c-1.73.53-3.45,1.07-5.17,1.65s-3.43,1.17-5.13,1.8-3.39,1.28-5.08,2l-5,21.27q2.61-1,5.25-2c1.75-.64,3.52-1.26,5.29-1.85s3.55-1.16,5.34-1.7,3.59-1.05,5.39-1.54c2.41-.65,4.81-1.25,7.23-1.8s4.82-1.06,7.24-1.51,4.84-.87,7.26-1.23,4.85-.68,7.27-1Z"/><path class="cls-1" d="M305.47,222.79c-2.13.24-4.26.53-6.39.85s-4.26.68-6.38,1.09-4.25.85-6.37,1.34-4.24,1-6.35,1.59c-1.59.44-3.17.89-4.74,1.37s-3.14,1-4.7,1.5-3.11,1.08-4.66,1.65-3.08,1.16-4.61,1.78l-4.1,17.47c1.58-.63,3.16-1.25,4.75-1.83s3.2-1.15,4.8-1.69,3.22-1.06,4.84-1.55,3.24-1,4.87-1.4q3.27-.89,6.55-1.64c2.18-.51,4.36-1,6.55-1.38s4.38-.79,6.57-1.12,4.39-.62,6.59-.87Z"/><path class="cls-1" d="M308.27,205.56q-3.11.36-6.21.82c-2.06.32-4.13.67-6.19,1.06s-4.12.83-6.18,1.31-4.11,1-6.16,1.55c-1.54.42-3.07.86-4.6,1.32s-3,1-4.55,1.46-3,1-4.52,1.6-3,1.14-4.48,1.74l-3.85,16.43c1.53-.62,3.06-1.21,4.61-1.79s3.09-1.11,4.64-1.64,3.12-1,4.69-1.5,3.15-.93,4.73-1.36c2.11-.57,4.23-1.1,6.34-1.59s4.24-.94,6.36-1.34,4.24-.77,6.37-1.09,4.25-.6,6.38-.84Z"/><path class="cls-1" d="M295.15,378.31c1.84-.08,3.68-.15,5.52-.19s3.68-.06,5.52-.06c3.12,0,6.23.06,9.35.17s6.24.29,9.37.52,6.24.51,9.37.84,6.26.72,9.39,1.16l2-26c-3-.42-6-.8-9.05-1.12s-6-.59-9-.81-6-.39-9-.5-6-.17-9-.17c-1.77,0-3.55,0-5.33.06s-3.55.1-5.32.18-3.55.19-5.32.31-3.54.27-5.31.43l-4.07,26c1.83-.17,3.67-.32,5.5-.44S293.31,378.39,295.15,378.31Z"/><path class="cls-1" d="M235.66,389.17q3-1,6-1.88c2-.59,4-1.16,6-1.7q4-1.08,8.07-2c2.7-.61,5.39-1.17,8.09-1.68s5.41-1,8.11-1.36,5.42-.75,8.13-1.06l4.22-26q-3.93.44-7.84,1t-7.83,1.32q-3.9.73-7.8,1.62c-2.6.59-5.19,1.24-7.79,1.93q-2.91.78-5.8,1.65t-5.76,1.82q-2.87,1-5.7,2c-1.89.69-3.78,1.41-5.65,2.16l-6.2,26.44c1.94-.77,3.9-1.52,5.86-2.23S233.68,389.83,235.66,389.17Z"/><path class="cls-1" d="M347.58,328.94q-4.36-.62-8.73-1.08c-2.9-.32-5.81-.58-8.71-.79s-5.8-.37-8.7-.48-5.8-.16-8.69-.16c-1.72,0-3.43,0-5.14.05s-3.42.1-5.13.18-3.42.18-5.13.3-3.41.25-5.11.41l-3.78,24.09c1.76-.17,3.53-.31,5.3-.43s3.53-.23,5.3-.31,3.54-.14,5.31-.18,3.55-.06,5.32-.06q4.5,0,9,.17c3,.11,6,.28,9,.49s6,.49,9,.82,6,.69,9,1.11Z"/><path class="cls-1" d="M277.76,306c-2.43.45-4.85,1-7.26,1.51s-4.83,1.15-7.24,1.81c-1.81.48-3.61,1-5.4,1.54s-3.58,1.11-5.36,1.7-3.54,1.21-5.3,1.86-3.52,1.32-5.26,2l-5.35,22.82c1.8-.72,3.62-1.41,5.44-2.08s3.65-1.3,5.48-1.91,3.69-1.2,5.54-1.76,3.71-1.09,5.58-1.59q3.74-1,7.49-1.86t7.5-1.57c2.51-.47,5-.89,7.53-1.27s5-.7,7.54-1l3.63-22.42q-3.65.4-7.29.95T277.76,306Z"/><path class="cls-1" d="M320.08,132.82q-2.71.31-5.4.72t-5.39.93q-2.7.53-5.38,1.14T298.54,137c-1.34.37-2.67.76-4,1.17s-2.65.83-4,1.28-2.63.91-3.93,1.4-2.61,1-3.9,1.52l-2.91,12.39c1.33-.53,2.66-1,4-1.55s2.68-1,4-1.44,2.71-.89,4.07-1.31,2.73-.81,4.1-1.19c1.83-.5,3.67-1,5.5-1.39s3.67-.82,5.51-1.17,3.68-.67,5.52-1,3.69-.53,5.54-.74Z"/><path class="cls-1" d="M324,108.75q-2.57.3-5.13.69t-5.13.89c-1.7.32-3.41.69-5.11,1.08s-3.4.83-5.1,1.3q-1.9.53-3.81,1.11c-1.26.39-2.51.79-3.77,1.22s-2.5.87-3.74,1.33-2.48.95-3.71,1.45L285.86,129c1.26-.51,2.53-1,3.8-1.48s2.54-.93,3.83-1.37,2.57-.85,3.86-1.24,2.59-.78,3.89-1.14c1.74-.47,3.48-.92,5.23-1.32s3.48-.78,5.23-1.12,3.49-.63,5.24-.9,3.5-.5,5.26-.7Z"/><path class="cls-1" d="M322.08,120.49c-1.76.2-3.51.43-5.27.7s-3.5.57-5.25.91-3.5.7-5.24,1.11-3.49.85-5.23,1.33c-1.31.36-2.61.74-3.9,1.13s-2.59.82-3.87,1.25-2.56.9-3.84,1.37-2.54,1-3.8,1.48l-2.76,11.77c1.3-.52,2.59-1,3.9-1.51s2.61-1,3.93-1.4,2.63-.88,4-1.28,2.66-.8,4-1.16c1.79-.49,3.57-.95,5.36-1.36s3.58-.8,5.37-1.14,3.58-.65,5.38-.93,3.59-.51,5.39-.72Z"/><path class="cls-1" d="M271.27,126.28q-3.72,2.14-7.38,4.56t-7.25,5.07l-3.37,11.59q3.67-2.72,7.42-5.18t7.55-4.66c2.55-1.47,5.11-2.86,7.7-4.15s5.2-2.51,7.83-3.63l2.67-11.21q-3.85,1.65-7.65,3.55T271.27,126.28Z"/><path class="cls-1" d="M318,145.82q-2.78.31-5.55.73c-1.84.29-3.69.6-5.53,1s-3.68.74-5.52,1.17-3.67.89-5.51,1.39c-1.37.38-2.74.78-4.11,1.19s-2.72.86-4.07,1.32-2.7.93-4,1.43-2.68,1-4,1.56l-3.07,13.08c1.37-.56,2.73-1.09,4.11-1.6s2.75-1,4.14-1.47,2.78-.92,4.18-1.35,2.8-.83,4.21-1.22c1.88-.51,3.77-1,5.65-1.43s3.77-.83,5.66-1.2,3.78-.68,5.68-1,3.79-.54,5.68-.76Z"/><path class="cls-1" d="M565.32,251.32q-4.89-2.59-9.83-5.28t-9.91-5.44q-5-2.76-10-5.56l3.57,15.43,10.28,5.69c3.4,1.88,6.8,3.74,10.17,5.58s6.73,3.64,10.08,5.41,6.67,3.52,10,5.23l-4.59-16C571.82,254.76,568.57,253.05,565.32,251.32Z"/><path class="cls-1" d="M310.91,189.32q-3,.35-6,.8t-6,1c-2,.38-4,.81-6,1.27s-4,1-6,1.51c-1.49.41-3,.84-4.46,1.29s-3,.92-4.43,1.42-2.93,1-4.39,1.55-2.9,1.11-4.35,1.69l-3.63,15.49q2.24-.9,4.48-1.73c1.49-.56,3-1.09,4.51-1.6s3-1,4.55-1.46,3-.9,4.58-1.32q3.08-.84,6.16-1.55t6.16-1.3q3.09-.58,6.18-1.06c2.07-.31,4.13-.58,6.2-.82Z"/><path class="cls-1" d="M315.74,159.53c-1.9.21-3.8.47-5.7.76s-3.79.61-5.68,1-3.78.76-5.67,1.2-3.78.92-5.66,1.43c-1.41.39-2.82.8-4.22,1.23s-2.8.87-4.18,1.35-2.78,1-4.15,1.47-2.75,1-4.12,1.6l-3.23,13.81c1.4-.57,2.8-1.12,4.22-1.64s2.83-1,4.26-1.51,2.85-.94,4.29-1.38,2.88-.86,4.33-1.26c1.94-.53,3.87-1,5.81-1.46s3.88-.86,5.82-1.23,3.89-.71,5.83-1,3.9-.56,5.85-.78Z"/><path class="cls-1" d="M222,255.06q4.45-3.27,9-6.22c3-2,6.08-3.84,9.16-5.61s6.19-3.42,9.33-5,6.31-3,9.51-4.36l3.92-16.46q-4.67,2-9.25,4.25t-9.07,4.85q-4.48,2.58-8.9,5.46T227,238.05Z"/><path class="cls-1" d="M232.23,219.9q4.2-3.09,8.48-5.89t8.63-5.3q4.36-2.51,8.8-4.71t9-4.12l3.48-14.63q-4.4,1.86-8.72,4t-8.57,4.59c-2.83,1.62-5.63,3.35-8.41,5.16s-5.53,3.74-8.25,5.74Z"/><path class="cls-1" d="M236.91,203.8q4.08-3,8.24-5.73t8.4-5.16c2.82-1.63,5.67-3.15,8.55-4.59s5.78-2.77,8.71-4l3.29-13.83q-4.28,1.82-8.49,3.91t-8.33,4.48q-4.12,2.37-8.18,5t-8,5.59Z"/><path class="cls-1" d="M227.27,237q4.32-3.18,8.73-6.05t8.89-5.45q4.49-2.57,9.05-4.84t9.23-4.24l3.69-15.51q-4.53,1.92-9,4.13c-3,1.47-5.9,3.05-8.82,4.72s-5.79,3.44-8.65,5.3-5.68,3.84-8.49,5.9Z"/><path class="cls-1" d="M240.71,149.26q-3.44,3.24-6.83,6.73t-6.7,7.25l-4.05,12.2q3.39-3.83,6.85-7.4t7-6.89q3.53-3.3,7.12-6.36t7.25-5.84l3.41-11.62q-3.57,2.71-7.08,5.71T240.71,149.26Z"/><path class="cls-1" d="M241.33,188.57q4-2.94,8-5.59t8.17-5q4.13-2.37,8.32-4.47t8.48-3.91l3.11-13.09q-4.15,1.77-8.26,3.81t-8.11,4.37q-4,2.31-8,4.9T245.27,175Z"/><path class="cls-1" d="M749.31,623.43q-3-1.06-6.09-2.19c-2-.74-4.06-1.51-6.09-2.28l13.78,39.7c7.14,2.65,15.24,5.65,25.3,8.85l-14.77-40q-3-1-6.06-2C753.36,624.84,751.33,624.14,749.31,623.43Z"/><path class="cls-1" d="M264.85,150.4q3.91-2.25,7.9-4.25c2.65-1.33,5.33-2.56,8-3.72l2.81-11.78c-2.64,1.12-5.25,2.33-7.85,3.63s-5.16,2.68-7.7,4.15-5.07,3-7.57,4.67-5,3.37-7.43,5.19l-3.55,12.2q3.78-2.79,7.61-5.31T264.85,150.4Z"/><path class="cls-1" d="M245.52,174.15q3.87-2.85,7.81-5.44t8-4.9q4-2.31,8.1-4.35t8.24-3.81l3-12.42c-2.7,1.15-5.39,2.39-8,3.72s-5.29,2.75-7.9,4.26-5.2,3.1-7.76,4.78-5.11,3.46-7.62,5.32Z"/><path class="cls-1" d="M216.42,274.3q4.59-3.36,9.27-6.41t9.44-5.76q4.77-2.73,9.63-5.13t9.8-4.49l4.17-17.5q-4.8,2-9.52,4.37t-9.35,5q-4.63,2.64-9.18,5.61t-9,6.24Z"/><path class="cls-1" d="M190,365.21q5.25-3.82,10.59-7.27t10.8-6.54q5.45-3.09,11-5.82t11.21-5.1l5.45-22.85q-5.48,2.3-10.85,4.94t-10.65,5.64q-5.27,3-10.44,6.34t-10.25,7.05Z"/><path class="cls-1" d="M236.12,363.19c1.89-.69,3.78-1.35,5.69-2s3.82-1.24,5.74-1.82,3.85-1.12,5.79-1.65q3.89-1,7.77-1.92t7.79-1.62q3.9-.74,7.8-1.32t7.83-1l3.91-24.09q-3.78.42-7.56,1c-2.52.38-5,.8-7.54,1.28s-5,1-7.52,1.56-5,1.2-7.51,1.87q-2.81.77-5.59,1.6c-1.86.55-3.71,1.14-5.55,1.75s-3.67,1.26-5.49,1.92-3.65,1.37-5.46,2.09l-5.74,24.52Q233.29,364.23,236.12,363.19Z"/><path class="cls-1" d="M182.16,392.19q5.43-4,11-7.52t11.2-6.77q5.64-3.19,11.41-6t11.63-5.27L233.23,342q-5.67,2.37-11.24,5.11T211,353q-5.47,3.09-10.82,6.55c-3.58,2.31-7.11,4.74-10.62,7.29Z"/><path class="cls-1" d="M210.46,294.8q4.74-3.46,9.57-6.6t9.75-5.95q4.92-2.81,9.93-5.28t10.13-4.63l4.44-18.64q-5,2.09-9.82,4.49t-9.65,5.14q-4.77,2.73-9.46,5.78t-9.29,6.42Z"/><path class="cls-1" d="M197.3,340.1q5.05-3.71,10.22-7T218,326.73c3.5-2,7.05-3.87,10.62-5.62s7.18-3.41,10.82-4.93l5.08-21.3q-5.29,2.22-10.49,4.78t-10.28,5.46c-3.4,1.94-6.77,4-10.1,6.15s-6.64,4.43-9.91,6.82Z"/><path class="cls-1" d="M173.71,421.27q5.64-4.09,11.4-7.79t11.63-7q5.87-3.32,11.85-6.24t12.08-5.46L227,368.28q-5.88,2.46-11.66,5.29t-11.44,6c-3.77,2.13-7.51,4.4-11.22,6.78s-7.37,4.9-11,7.54Z"/><path class="cls-1" d="M204.1,316.69q4.89-3.57,9.89-6.81t10.07-6.13q5.08-2.89,10.27-5.45t10.46-4.78l4.74-19.9q-5.11,2.14-10.14,4.64t-10,5.29q-4.92,2.82-9.77,6t-9.58,6.61Z"/><path class="cls-1" d="M313.39,174q-2.92.34-5.86.78c-1.94.3-3.89.63-5.84,1s-3.89.78-5.83,1.23S292,178,290,178.49c-1.45.4-2.9.81-4.34,1.25s-2.87.9-4.3,1.39-2.85,1-4.26,1.51-2.83,1.07-4.23,1.64l-3.43,14.61c1.45-.58,2.89-1.14,4.35-1.68s2.91-1.06,4.38-1.55,2.94-1,4.42-1.42,3-.88,4.45-1.29c2-.54,4-1,6-1.51s4-.88,6-1.26,4-.73,6-1,4-.57,6-.8Z"/><path class="cls-1" d="M220.24,396.58q-6.12,2.55-12.11,5.47t-11.88,6.25q-5.88,3.33-11.66,7t-11.43,7.81l-8.6,29.58q5.88-4.25,11.86-8.08t12.1-7.27q6.1-3.44,12.32-6.47t12.57-5.66Z"/><path class="cls-1" d="M619,447.15q-6.45-3.37-13-6.85T593,433.24q-6.59-3.57-13.23-7.22l6.31,27.28q6.87,3.76,13.68,7.45T613.29,468q6.74,3.6,13.4,7.07T640,481.93l-8.11-28.16Q625.48,450.53,619,447.15Z"/><path class="cls-1" d="M456.78,165.17q4.79,2.36,9.57,4.79t9.55,4.95c3.18,1.67,6.36,3.37,9.53,5.07l-2-12.63q-4.65-2.5-9.3-5t-9.33-4.84q-4.67-2.38-9.35-4.68T446,148.36l1.14,12.2Q452,162.81,456.78,165.17Z"/><path class="cls-1" d="M600.21,462.63l-13.72-7.47,6.8,29.39q7.14,3.9,14.21,7.71t14.06,7.54q7,3.72,13.92,7.32t13.78,7.07l-8.73-30.34q-6.63-3.35-13.31-6.84t-13.44-7.09Q607,466.32,600.21,462.63Z"/><path class="cls-1" d="M290.91,408.16c1.91-.09,3.83-.15,5.74-.19s3.84-.07,5.76-.07q4.86,0,9.73.18t9.74.54q4.88.35,9.76.87t9.77,1.2l2.12-28.16q-4.69-.66-9.41-1.16t-9.39-.85c-3.13-.22-6.26-.4-9.39-.51s-6.25-.18-9.37-.18c-1.85,0-3.7,0-5.54.07s-3.69.1-5.53.19-3.69.18-5.53.31-3.68.28-5.52.45L279.44,409c1.91-.17,3.82-.33,5.73-.46S289,408.25,290.91,408.16Z"/><path class="cls-1" d="M229,419.43q3.09-1,6.2-1.95t6.27-1.77q4.19-1.12,8.39-2.07c2.81-.63,5.61-1.21,8.42-1.74s5.62-1,8.44-1.41,5.64-.79,8.46-1.1l4.56-28.12c-2.72.3-5.43.66-8.14,1.06s-5.43.86-8.13,1.37-5.41,1.06-8.11,1.68-5.4,1.28-8.09,2q-3,.81-6,1.71t-6,1.88c-2,.66-4,1.35-5.93,2.06s-3.93,1.46-5.87,2.24l-6.71,28.61c2-.8,4.06-1.57,6.1-2.31S227,420.11,229,419.43Z"/><path class="cls-1" d="M611.4,419.35q-6.23-3.27-12.52-6.64t-12.64-6.83c-4.23-2.3-8.49-4.64-12.77-7l5.88,25.39q6.63,3.65,13.2,7.2t13.06,7.05q6.5,3.46,12.93,6.84t12.81,6.6l-7.55-26.23Q617.64,422.62,611.4,419.35Z"/><path class="cls-1" d="M374.71,450q7.89,1.91,15.8,4.15t15.8,4.78L406,427.86q-7.59-2.44-15.19-4.61t-15.2-4q-7.61-1.85-15.2-3.37t-15.18-2.67l-2.15,30.56q7.89,1.2,15.79,2.77T374.71,450Z"/><path class="cls-1" d="M416.64,174.58q5.08,1.9,10.17,4T437,182.85q5.07,2.21,10.15,4.55l-1.2-13.51q-4.94-2.29-9.9-4.45t-9.91-4.19q-5-2-9.92-3.88t-9.93-3.56l.18,13.12Q411.55,172.67,416.64,174.58Z"/><path class="cls-1" d="M580.05,305q-5.32-2.82-10.69-5.73t-10.79-5.89q-5.42-3-10.9-6l4.24,18.33,11.21,6.19q5.58,3.06,11.1,6t11,5.88c3.65,1.92,7.27,3.82,10.89,5.67l-5.46-18.95Q585.37,307.84,580.05,305Z"/><path class="cls-1" d="M574.85,286.09q-5.16-2.74-10.38-5.57c-3.48-1.88-7-3.8-10.48-5.73s-7-3.89-10.59-5.86l4,17.29q5.48,3,10.88,6t10.77,5.88q5.36,2.89,10.67,5.71c3.53,1.88,7.06,3.72,10.56,5.52l-5.14-17.87C581.72,289.71,578.3,287.92,574.85,286.09Z"/><path class="cls-1" d="M570,268.22q-5-2.67-10.09-5.42t-10.19-5.58l-10.3-5.71,3.77,16.31,10.58,5.86q5.25,2.9,10.46,5.72T574.54,285q5.16,2.73,10.27,5.36L580,273.46Q575,270.9,570,268.22Z"/><path class="cls-1" d="M597.64,369.18q-5.83-3.07-11.71-6.24t-11.83-6.42q-5.94-3.25-12-6.57l5.12,22.15,12.32,6.75q6.13,3.34,12.2,6.61t12.08,6.42q6,3.15,12,6.19l-6.58-22.87Q603.46,372.25,597.64,369.18Z"/><path class="cls-1" d="M585.55,325.1q-5.47-2.89-11-5.88c-3.69-2-7.4-4-11.12-6.06S556,309.05,552.2,307l4.51,19.48q5.81,3.21,11.56,6.37T579.71,339q5.68,3.07,11.32,6t11.23,5.84l-5.8-20.14Q591,328,585.55,325.1Z"/><path class="cls-1" d="M604.29,393.42q-6-3.17-12.1-6.43T580,380.37q-6.15-3.35-12.35-6.77l5.48,23.68q6.4,3.53,12.74,7t12.62,6.82q6.27,3.36,12.49,6.63t12.37,6.39l-7-24.46Q610.31,396.59,604.29,393.42Z"/><path class="cls-1" d="M591.4,346.44c-3.76-2-7.54-4-11.34-6.05s-7.63-4.14-11.46-6.24-7.7-4.23-11.58-6.37l4.8,20.75q6,3.3,11.93,6.55t11.8,6.41q5.87,3.17,11.69,6.23t11.58,6l-6.17-21.44Q597.05,349.42,591.4,346.44Z"/><path class="cls-1" d="M179.6,470.87q6.36-3.57,12.85-6.72t13.09-5.88l7.4-31.07q-6.34,2.64-12.59,5.68T188,439.36q-6.12,3.45-12.13,7.29T164,454.75l-9.32,32.07q6.1-4.41,12.35-8.39T179.6,470.87Z"/><path class="cls-1" d="M185.54,288.6q4.1-4.61,8.29-8.89t8.45-8.26q4.26-4,8.61-7.63c2.9-2.45,5.83-4.78,8.78-7l5-17.05q-4.31,3.25-8.54,6.82T207.76,254q-4.14,3.87-8.22,8.05t-8.06,8.65Z"/><path class="cls-1" d="M191.86,269.57q4-4.47,8-8.64t8.2-8c2.77-2.58,5.55-5.05,8.37-7.43s5.65-4.64,8.52-6.81l4.72-16.09q-4.18,3.18-8.29,6.65t-8.14,7.23q-4,3.77-8,7.83t-7.84,8.42Z"/><path class="cls-1" d="M197.82,251.62q3.87-4.35,7.82-8.4t8-7.82q4-3.77,8.12-7.22t8.28-6.63l4.46-15.18c-2.72,2.06-5.4,4.22-8.07,6.47s-5.3,4.6-7.91,7-5.2,5-7.77,7.62-5.1,5.36-7.62,8.19Z"/><path class="cls-1" d="M178.82,308.83q4.23-4.74,8.54-9.15t8.71-8.5q4.41-4.1,8.88-7.86T214,276.1L219.33,258q-4.44,3.36-8.79,7t-8.64,7.65c-2.84,2.65-5.67,5.41-8.46,8.27s-5.56,5.83-8.31,8.9Z"/><path class="cls-1" d="M203.44,234.69c2.52-2.83,5.05-5.56,7.62-8.19s5.14-5.17,7.75-7.61,5.24-4.78,7.9-7,5.35-4.4,8-6.46L239,191.06q-4,3-7.85,6.3t-7.71,6.86q-3.81,3.57-7.56,7.43t-7.42,8Z"/><path class="cls-1" d="M213.81,203.5q3.57-4,7.21-7.78t7.35-7.23q3.72-3.48,7.49-6.68t7.63-6.13l3.78-12.88q-3.75,2.87-7.44,6t-7.31,6.53q-3.63,3.39-7.18,7.06t-7,7.6Z"/><path class="cls-1" d="M208.77,218.66q3.66-4.12,7.4-8t7.55-7.42q3.81-3.56,7.69-6.85t7.84-6.29l4-13.58c-2.58,2-5.12,4-7.65,6.14s-5,4.37-7.5,6.69-4.93,4.74-7.36,7.24-4.84,5.1-7.23,7.79Z"/><path class="cls-1" d="M171.66,330.37q4.36-4.87,8.82-9.42t9-8.76q4.54-4.21,9.17-8.1t9.34-7.44l5.67-19.32q-4.57,3.45-9.07,7.23t-8.89,7.88q-4.41,4.1-8.73,8.52t-8.56,9.16Z"/><path class="cls-1" d="M137.68,432.66q5-5.55,10.1-10.72t10.3-10q5.21-4.8,10.5-9.22t10.72-8.47l7.47-25.43q-5.24,3.92-10.36,8.2T166.25,386q-5,4.63-10,9.65T146.53,406Z"/><path class="cls-1" d="M127.54,463.18q5.19-5.74,10.48-11.09t10.69-10.33q5.4-5,10.9-9.54t11.13-8.77l8-27.42q-5.41,4.05-10.74,8.48t-10.53,9.24q-5.21,4.8-10.32,10t-10.12,10.74Z"/><path class="cls-1" d="M116.58,496.19q5.39-6,10.88-11.51T138.57,474q5.63-5.16,11.34-9.9t11.57-9.1l8.71-29.66q-5.62,4.2-11.15,8.79t-10.93,9.57q-5.42,5-10.72,10.34t-10.5,11.13Z"/><path class="cls-1" d="M104.7,532q5.61-6.19,11.33-12t11.56-11.11q5.85-5.36,11.81-10.28t12-9.45L160.88,457q-5.85,4.37-11.59,9.12t-11.37,9.92q-5.62,5.16-11.14,10.73t-10.91,11.53Z"/><path class="cls-1" d="M218.58,189.11q3.49-3.93,7-7.58t7.16-7.05q3.61-3.4,7.3-6.52t7.43-6l3.6-12.22q-3.68,2.79-7.27,5.84T236.72,162q-3.54,3.32-7,6.89t-6.87,7.42Z"/><path class="cls-1" d="M155.85,378q4.67-5.19,9.41-10t9.6-9.32q4.86-4.49,9.79-8.63t10-7.91L201.11,320q-4.87,3.67-9.67,7.69T182,336.06q-4.69,4.35-9.31,9.05t-9.12,9.74Z"/><path class="cls-1" d="M147.09,404.33q4.83-5.35,9.74-10.36t9.94-9.63q5-4.65,10.14-8.91t10.33-8.19l6.95-23.67q-5,3.8-10,7.93t-9.81,8.64q-4.86,4.5-9.62,9.35t-9.43,10.05Z"/><path class="cls-1" d="M164,353.37q4.5-5,9.1-9.71t9.29-9q4.68-4.33,9.46-8.35t9.65-7.67L207.58,298q-4.72,3.56-9.36,7.45T189,313.54q-4.54,4.23-9,8.78t-8.83,9.44Z"/><path class="cls-1" d="M661.63,378.55c-1.53-.55-3-1.11-4.58-1.68s-3-1.16-4.58-1.76l7.66,22.08h0c1.58.61,3.15,1.22,4.72,1.8s3.15,1.17,4.72,1.73,3.13,1.12,4.7,1.65,3.13,1.06,4.7,1.57l-8.22-22.26c-1.51-.5-3-1-4.56-1.53S663.15,379.1,661.63,378.55Z"/><path class="cls-1" d="M183,239.05q1.34-2.27,2.68-4.48t2.69-4.4l5-13.75q-1.32,2.13-2.63,4.3T188,225.11c-.86,1.48-1.73,3-2.59,4.48s-1.72,3-2.57,4.57l-5.2,14.16q1.31-2.37,2.63-4.68C181.18,242.09,182.07,240.57,183,239.05Z"/><path class="cls-1" d="M177.26,254.68c.91-1.55,1.83-3.09,2.74-4.6s1.84-3,2.77-4.5L188,231.1q-1.35,2.18-2.7,4.4t-2.68,4.5q-1.34,2.26-2.66,4.59t-2.63,4.68l-5.48,14.9q1.35-2.43,2.7-4.8T177.26,254.68Z"/><path class="cls-1" d="M168.47,276c.93-1.62,1.86-3.23,2.79-4.81s1.88-3.17,2.82-4.72,1.88-3.09,2.83-4.62l5.51-15.25q-1.39,2.22-2.77,4.5t-2.75,4.61q-1.36,2.33-2.72,4.7t-2.71,4.8l-5.77,15.7h0C166.62,279.22,167.55,277.58,168.47,276Z"/><path class="cls-1" d="M188.36,224.2q1.3-2.2,2.61-4.38c.88-1.45,1.75-2.87,2.63-4.29l4.72-13.08q-1.29,2.09-2.57,4.2t-2.56,4.29c-.84,1.44-1.69,2.9-2.53,4.38s-1.68,3-2.51,4.47l-5,13.46c.86-1.54,1.71-3.06,2.57-4.57S187.5,225.68,188.36,224.2Z"/><path class="cls-1" d="M193.51,210.09c.84-1.45,1.69-2.87,2.54-4.29s1.71-2.81,2.57-4.19l4.49-12.45c-.84,1.35-1.67,2.72-2.51,4.1s-1.66,2.78-2.49,4.19-1.66,2.84-2.48,4.28-1.64,2.9-2.45,4.37l-4.71,12.82q1.25-2.25,2.51-4.46T193.51,210.09Z"/><path class="cls-1" d="M211,176.65q3.06-4.49,6.16-8.71t6.28-8.21q3.16-4,6.39-7.7l3.72-11.13q-3.16,3.66-6.26,7.55t-6.14,8q-3,4.14-6,8.53t-5.92,9L205,185.85Q208,181.13,211,176.65Z"/><path class="cls-1" d="M164.93,288.54q1.44-2.44,2.89-4.84t2.91-4.73l5.81-16.11q-1.42,2.28-2.84,4.62t-2.82,4.72q-1.41,2.39-2.8,4.82T165.31,282l-6.09,16.57q1.41-2.55,2.84-5T164.93,288.54Z"/><path class="cls-1" d="M118.05,417.22c1.15-1.93,2.29-3.84,3.44-5.73s2.31-3.76,3.47-5.61l8.33-23.1q-1.69,2.7-3.37,5.46t-3.34,5.57c-1.11,1.87-2.21,3.77-3.31,5.68s-2.19,3.85-3.28,5.8L111.26,429c1.13-2,2.25-4,3.38-6S116.91,419.15,118.05,417.22Z"/><path class="cls-1" d="M238.09,143q3.28-3.4,6.65-6.57t6.78-6.07q3.43-2.91,6.91-5.57l3.1-10.56q-3.4,2.61-6.76,5.46t-6.63,5.94q-3.28,3.11-6.51,6.44t-6.4,6.92l-3.68,11.08Q234.79,146.42,238.09,143Z"/><path class="cls-1" d="M108.36,443.84q1.77-3,3.55-5.91t3.58-5.79l8.91-24.69c-1.17,1.85-2.33,3.73-3.48,5.62s-2.3,3.81-3.45,5.74-2.28,3.89-3.41,5.86-2.27,4-3.39,6L101.34,456c1.16-2.07,2.33-4.13,3.49-6.16S107.18,445.83,108.36,443.84Z"/><path class="cls-1" d="M98,472.38c1.22-2.06,2.44-4.09,3.67-6.11s2.47-4,3.71-6l9.55-26.48c-1.21,1.91-2.4,3.85-3.59,5.8s-2.38,3.93-3.56,5.92-2.36,4-3.53,6-2.34,4.09-3.5,6.17L90.71,485c1.2-2.15,2.4-4.26,3.61-6.36S96.74,474.43,98,472.38Z"/><path class="cls-1" d="M158.23,306.92c1-1.68,2-3.33,3-5s2-3.26,3-4.86l6.15-17q-1.47,2.34-2.92,4.74c-1,1.6-1.93,3.21-2.9,4.84s-1.91,3.28-2.87,4.95-1.9,3.35-2.84,5.05l-6.44,17.52q1.45-2.61,2.92-5.17T158.23,306.92Z"/><path class="cls-1" d="M127.13,392.3c1.11-1.87,2.22-3.73,3.33-5.56s2.24-3.65,3.37-5.44l7.8-21.65c-1.09,1.75-2.18,3.51-3.27,5.3s-2.16,3.58-3.24,5.4-2.14,3.67-3.21,5.53-2.13,3.73-3.19,5.63l-8.17,22.26q1.64-2.92,3.27-5.79T127.13,392.3Z"/><path class="cls-1" d="M135.63,369q1.62-2.71,3.24-5.39c1.08-1.78,2.17-3.55,3.26-5.29l7.33-20.33c-1.06,1.7-2.12,3.41-3.17,5.15s-2.1,3.48-3.15,5.25-2.08,3.56-3.12,5.37-2.06,3.63-3.09,5.47l-7.68,20.91c1.05-1.89,2.11-3.77,3.18-5.62S134.56,370.77,135.63,369Z"/><path class="cls-1" d="M151.14,326.39q1.52-2.58,3.05-5.11t3.08-5l6.51-18.05q-1.51,2.42-3,4.87c-1,1.64-2,3.3-3,5s-2,3.36-2.95,5.08-2,3.43-2.93,5.18l-6.82,18.56q1.5-2.69,3-5.31T151.14,326.39Z"/><path class="cls-1" d="M143.62,347c1-1.77,2.09-3.52,3.14-5.25s2.11-3.44,3.17-5.14l6.9-19.13q-1.54,2.48-3.08,5c-1,1.69-2.05,3.39-3.06,5.12s-2,3.46-3,5.22-2,3.53-3,5.32l-7.23,19.68c1-1.84,2.05-3.66,3.09-5.47S142.58,348.79,143.62,347Z"/><path class="cls-1" d="M195.93,200.91c.82-1.44,1.65-2.86,2.47-4.27s1.66-2.8,2.49-4.18,1.67-2.75,2.51-4.1l4.29-11.88q-1.23,2-2.46,4t-2.44,4.1c-.81,1.38-1.61,2.77-2.42,4.19s-1.6,2.83-2.4,4.27l-4.49,12.23h0Q194.7,203.08,195.93,200.91Z"/><path class="cls-1" d="M382.45,195.08q-5.38-1.35-10.79-2.45t-10.78-1.94l-1.07,15.25q5.54.85,11.09,2T382,210.44q5.55,1.38,11.09,3t11.1,3.44L404,201.35q-5.39-1.78-10.79-3.35T382.45,195.08Z"/><path class="cls-1" d="M383.37,165q-5.1-1.28-10.2-2.32T363,160.83l-1,13.59q5.24.81,10.46,1.89T383,178.68q5.24,1.31,10.48,2.84t10.47,3.25l-.12-13.84q-5.1-1.69-10.21-3.18T383.37,165Z"/><path class="cls-1" d="M382.92,179.61q-5.24-1.31-10.48-2.38c-3.5-.71-7-1.35-10.48-1.89l-1,14.38q5.39.84,10.76,1.94t10.77,2.44c3.6.89,7.19,1.87,10.78,2.91s7.18,2.16,10.77,3.34l-.12-14.64q-5.25-1.72-10.49-3.26T382.92,179.61Z"/><path class="cls-1" d="M383.79,151.14q-5-1.24-9.93-2.26t-9.92-1.8L363,160q5.08.8,10.17,1.84t10.19,2.31q5.09,1.28,10.18,2.76T403.77,170l-.12-13.1q-5-1.65-9.93-3.1T383.79,151.14Z"/><path class="cls-1" d="M380.86,247.39q-5.91-1.47-11.81-2.67t-11.81-2.11L356,260.94q6.07.93,12.17,2.17t12.18,2.74q6.09,1.51,12.19,3.27c4.06,1.17,8.12,2.43,12.18,3.75l-.16-18.66q-5.91-1.94-11.82-3.64C388.74,249.43,384.8,248.36,380.86,247.39Z"/><path class="cls-1" d="M382,211.48q-5.56-1.38-11.12-2.51t-11.1-2l-1.14,16.18q5.72.89,11.43,2t11.43,2.58q5.71,1.41,11.44,3.08t11.43,3.53l-.14-16.47q-5.56-1.81-11.12-3.44T382,211.48Z"/><path class="cls-1" d="M384.19,138c-3.22-.81-6.45-1.54-9.67-2.2s-6.44-1.25-9.66-1.75l-.86,12.2q5,.77,9.91,1.79t9.91,2.26q4.95,1.23,9.91,2.69t9.92,3.09l-.11-12.43q-4.85-1.6-9.68-3T384.19,138Z"/><path class="cls-1" d="M380.26,267.12q-6.11-1.51-12.2-2.75t-12.2-2.18l-1.37,19.57q6.28,1,12.58,2.24t12.6,2.83q6.29,1.56,12.59,3.37t12.6,3.87l-.18-19.92q-6.1-2-12.21-3.76C388.4,269.22,384.33,268.12,380.26,267.12Z"/><path class="cls-1" d="M385.29,101.75c3,.75,6,1.56,9,2.44s6,1.82,9,2.81l-.09-10.18c-2.92-1-5.84-1.89-8.76-2.75s-5.84-1.66-8.76-2.39-5.84-1.41-8.76-2-5.84-1.14-8.75-1.59l-.71,10q4.49.71,8.95,1.63C379.32,100.31,382.31,101,385.29,101.75Z"/><path class="cls-1" d="M330.14,107.49c1.16-.09,2.32-.15,3.48-.21s2.32-.09,3.48-.12,2.32,0,3.48,0c2,0,3.92,0,5.89.11s3.93.19,5.9.34,3.94.33,5.91.54,3.94.47,5.91.75L365,98.39c-1.93-.28-3.85-.52-5.78-.74s-3.85-.39-5.77-.53-3.85-.25-5.77-.32-3.84-.12-5.76-.12c-1.13,0-2.27,0-3.4,0s-2.27.07-3.4.12-2.27.12-3.4.2-2.26.18-3.39.29l-1.64,10.45C327.83,107.67,329,107.57,330.14,107.49Z"/><path class="cls-1" d="M294.92,104.36c1.21-.46,2.43-.89,3.65-1.31s2.44-.81,3.67-1.19,2.47-.74,3.71-1.08c1.66-.46,3.31-.88,5-1.26s3.32-.75,5-1.07,3.32-.6,5-.86,3.33-.48,5-.67l1.62-10q-2.44.28-4.89.66t-4.89.84c-1.62.32-3.25.66-4.87,1s-3.24.79-4.86,1.24c-1.21.33-2.42.69-3.63,1.06s-2.4.76-3.59,1.16-2.38.84-3.57,1.28-2.36.9-3.53,1.38l-2.38,10.16C292.51,105.28,293.71,104.81,294.92,104.36Z"/><path class="cls-1" d="M384.57,125.55c-3.14-.79-6.29-1.51-9.43-2.15s-6.28-1.22-9.41-1.71l-.82,11.59c3.22.5,6.43,1.08,9.65,1.74s6.43,1.4,9.65,2.2,6.44,1.69,9.66,2.63,6.44,2,9.66,3l-.1-11.8q-4.73-1.56-9.43-2.94T384.57,125.55Z"/><path class="cls-1" d="M335.19,96.17l3.4-.12c1.13,0,2.26,0,3.4,0,1.91,0,3.83,0,5.75.11s3.83.19,5.75.33,3.85.32,5.77.53,3.84.46,5.77.74l.75-10q-2.82-.41-5.64-.72t-5.64-.52c-1.87-.14-3.75-.25-5.63-.32s-3.75-.11-5.62-.11c-1.11,0-2.22,0-3.32,0s-2.22.07-3.32.12-2.21.12-3.32.19-2.21.18-3.31.28l-1.56,10c1.12-.11,2.25-.21,3.38-.29S334.06,96.23,335.19,96.17Z"/><path class="cls-1" d="M375.18,122.65c3.14.64,6.27,1.36,9.41,2.15s6.28,1.64,9.41,2.56,6.28,1.9,9.42,2.94l-.1-11.22q-4.59-1.53-9.2-2.88c-3.06-.89-6.13-1.73-9.19-2.5s-6.13-1.47-9.19-2.1-6.13-1.19-9.19-1.67l-.77,11Q370.48,121.68,375.18,122.65Z"/><path class="cls-1" d="M267.34,118.47q3.56-2.35,7.19-4.45c2.42-1.4,4.87-2.72,7.33-4s4.95-2.39,7.46-3.46l2.42-10.17q-3.67,1.56-7.29,3.38t-7.17,3.88c-2.37,1.37-4.71,2.82-7,4.35s-4.63,3.15-6.91,4.85l-3.06,10.52Q263.78,120.82,267.34,118.47Z"/><path class="cls-1" d="M385,113q4.59,1.16,9.18,2.5t9.18,2.87l-.09-10.68q-4.49-1.49-9-2.81t-9-2.44c-3-.76-6-1.44-9-2.06s-6-1.16-9-1.63l-.74,10.48c3.06.48,6.11,1,9.17,1.67S381.89,112.22,385,113Z"/><path class="cls-1" d="M381.43,228.88c-3.82-.94-7.64-1.81-11.46-2.58s-7.63-1.47-11.44-2.06l-1.21,17.2q5.88.92,11.79,2.11c3.92.8,7.86,1.69,11.79,2.66s7.87,2,11.8,3.17,7.87,2.36,11.8,3.64l-.16-17.51c-3.82-1.25-7.64-2.44-11.45-3.54S385.25,229.83,381.43,228.88Z"/><path class="cls-1" d="M443.92,508.28q8.22,3.24,16.43,6.7t16.41,7.12l-3.09-34.84q-7.86-3.52-15.75-6.86t-15.78-6.46q-7.9-3.12-15.81-6t-15.83-5.5l.46,33.9q8.25,2.71,16.49,5.71T443.92,508.28Z"/><path class="cls-1" d="M438.68,407.31q7.26,2.88,14.52,6t14.49,6.35l-2.42-27.29q-7-3.17-14-6.15t-14-5.79q-7-2.79-14-5.38t-14.05-4.92l.37,26.55q7.29,2.41,14.56,5.09T438.68,407.31Z"/><path class="cls-1" d="M440.28,438.24q7.56,3,15.11,6.21T470.46,451l-2.61-29.53q-7.26-3.27-14.52-6.37t-14.55-6q-7.29-2.89-14.58-5.57t-14.59-5.11l.4,28.73q7.58,2.51,15.14,5.28T440.28,438.24Z"/><path class="cls-1" d="M442,471.78q7.88,3.11,15.74,6.44t15.71,6.85l-2.84-32q-7.54-3.39-15.11-6.61t-15.14-6.21q-7.58-3-15.17-5.78T410,429.16l.43,31.14q7.91,2.61,15.8,5.49T442,471.78Z"/><path class="cls-1" d="M86.8,503q1.89-3.19,3.8-6.31t3.84-6.18l10.25-28.43c-1.24,2-2.48,4-3.71,6s-2.46,4.06-3.68,6.12-2.44,4.14-3.65,6.24-2.42,4.22-3.62,6.37L79.3,516q1.86-3.31,3.73-6.57T86.8,503Z"/><path class="cls-1" d="M433.35,304.48q6.28,2.53,12.56,5.23t12.54,5.56l-1.82-20.53q-6.08-2.78-12.16-5.4t-12.17-5.08q-6.1-2.44-12.2-4.72t-12.2-4.32l.27,19.95q6.3,2.11,12.6,4.45T433.35,304.48Z"/><path class="cls-1" d="M434.54,327.49q6.51,2.61,13,5.4t13,5.74l-1.95-22Q452.3,313.8,446,311.1t-12.59-5.24q-6.3-2.53-12.61-4.87t-12.62-4.46l.3,21.35q6.51,2.19,13,4.6T434.54,327.49Z"/><path class="cls-1" d="M435.82,352.18q6.74,2.7,13.47,5.58t13.44,5.93l-2.08-23.56q-6.5-3-13-5.75t-13-5.41q-6.53-2.62-13.05-5t-13.06-4.61l.32,22.91q6.75,2.26,13.5,4.75T435.82,352.18Z"/><path class="cls-1" d="M612.79,593.77l-2.32-1.26-2.33-1.26L605.81,590l-13.68-7.39-13.74-7.38q-6.89-3.69-13.79-7.35t-13.83-7.28l6.54,39.48q7.22,3.76,14.43,7.57t14.37,7.63q7.18,3.83,14.32,7.67l14.27,7.67,2.43,1.31,2.43,1.3,2.42,1.31,2.42,1.3L615.12,595Z"/><path class="cls-1" d="M732.79,653.72q-7.59-3.19-15.21-6.62T702.27,640q-7.68-3.63-15.43-7.47l12.32,42.25q8.07,4,16.08,7.76t16,7.34q7.95,3.55,15.84,6.88t15.75,6.37l-14.89-43.29Q740.36,656.92,732.79,653.72Z"/><path class="cls-1" d="M777.22,670.26c-2.11-.67-4.21-1.36-6.32-2.06s-4.22-1.43-6.34-2.17-4.23-1.49-6.34-2.27-4.24-1.57-6.36-2.37l15,43.34q3.32,1.26,6.62,2.47c2.21.8,4.41,1.59,6.62,2.35s4.4,1.52,6.6,2.25,4.39,1.44,6.59,2.14Z"/><path class="cls-1" d="M667.15,622.61q-7.85-4-15.76-8.2T635.47,606q-8-4.28-16.09-8.64l9.46,40.91q8.45,4.51,16.78,9T662.21,656q8.25,4.32,16.42,8.52t16.27,8.21l-12.14-42.17Q675,626.65,667.15,622.61Z"/><path class="cls-1" d="M460.52,517.36q-8.24-3.48-16.48-6.72t-16.51-6.25q-8.26-3-16.53-5.72l.51,37.07q8.63,2.82,17.25,5.94T446,548.17q8.6,3.38,17.19,7t17.16,7.41L477,524.49Q468.75,520.83,460.52,517.36Z"/><path class="cls-1" d="M513.69,539.47q8.13,4,16.24,8.12t16.17,8.31l-5.81-36.06q-7.77-4-15.55-8T509.15,504q-7.81-3.86-15.65-7.59t-15.69-7.29L481.06,524q8.19,3.69,16.34,7.56T513.69,539.47Z"/><path class="cls-1" d="M530.28,550q-8.12-4.11-16.28-8.13T497.67,534q-8.18-3.87-16.38-7.58l3.56,38.15q8.55,3.85,17.08,7.88t17,8.2q8.5,4.17,17,8.45t16.92,8.66l-6.36-39.4Q538.41,554.17,530.28,550Z"/><path class="cls-1" d="M432.23,283q6.07,2.46,12.15,5.07t12.13,5.39l-1.7-19.23Q448.93,271.51,443,269T431.25,264q-5.91-2.37-11.81-4.58t-11.82-4.19l.26,18.69q6.09,2.06,12.18,4.31T432.23,283Z"/><path class="cls-1" d="M437.2,378.71q7,2.79,14,5.77t13.95,6.14l-2.24-25.32q-6.74-3.06-13.48-5.94t-13.5-5.6q-6.75-2.7-13.52-5.19t-13.53-4.76l.34,24.62q7,2.34,14,4.91T437.2,378.71Z"/><path class="cls-1" d="M55.38,598.84c-1.44,2.28-2.88,4.57-4.3,6.89s-2.85,4.67-4.26,7S44,617.53,42.6,620s-2.79,4.86-4.18,7.33l-14.7,40c11.3-19.48,11.51-19.86,17.6-29.47Z"/><path class="cls-1" d="M35.88,647.65q-2.22,3.61-4.43,7.31t-4.39,7.46q-2.19,3.76-4.35,7.61l-16,43.67q2.25-4,4.52-7.89t4.57-7.75q2.3-3.82,4.61-7.58T25,683.05l15.35-42.56Q38.11,644,35.88,647.65Z"/><path class="cls-1" d="M76.33,590.33q-5.72,7-11.3,14.4T54,620q-5.46,7.83-10.82,16.11L27.93,678.5q5.57-8.6,11.25-16.73t11.51-15.85q5.81-7.71,11.75-15t12-14.07l13.41-40.11Q82,583.34,76.33,590.33Z"/><path class="cls-1" d="M431.19,262.82q5.88,2.37,11.76,4.92T454.7,273l-1.6-18.06q-5.7-2.61-11.41-5.08c-3.8-1.65-7.62-3.25-11.43-4.79s-7.63-3-11.44-4.45-7.64-2.78-11.46-4.07l.24,17.54q5.91,2,11.8,4.18T431.19,262.82Z"/><path class="cls-1" d="M74.78,536c1.31-2.2,2.62-4.37,3.94-6.53s2.64-4.28,4-6.39l11-30.62q-1.93,3.06-3.85,6.19T86.08,505q-1.89,3.19-3.77,6.46T78.57,518L67,549.48q1.92-3.43,3.87-6.8T74.78,536Z"/><path class="cls-1" d="M43.52,617.44q2.1-3.62,4.21-7.16c1.41-2.37,2.82-4.71,4.25-7s2.85-4.61,4.28-6.87l12.93-35.85c-1.39,2.19-2.76,4.41-4.14,6.64S62.32,571.68,61,574s-2.72,4.59-4.06,6.93-2.69,4.68-4,7.06l-13.52,36.8h0C40.73,622.29,42.12,619.86,43.52,617.44Z"/><path class="cls-1" d="M127.22,538.61q-6.24,5.14-12.35,10.72t-12.09,11.58q-6,6-11.84,12.45l-13.28,40q6.11-6.69,12.34-12.93t12.59-12q6.38-5.8,12.86-11.14T128.58,567l11.24-38.24Q133.45,533.46,127.22,538.61Z"/><path class="cls-1" d="M61.79,571.67c1.36-2.28,2.72-4.53,4.09-6.77s2.74-4.44,4.12-6.62l11.94-33.1c-1.33,2.12-2.66,4.25-4,6.41s-2.64,4.34-3.95,6.54-2.62,4.43-3.92,6.68-2.59,4.52-3.87,6.82l-12.49,34q2-3.55,4-7T61.79,571.67Z"/><path class="cls-1" d="M429.28,226.12q5.54,2.24,11.07,4.64t11,4.94l-1.41-16q-5.37-2.48-10.76-4.81c-3.59-1.56-7.17-3.07-10.77-4.53s-7.19-2.86-10.78-4.2-7.2-2.63-10.8-3.85l.22,15.55q5.55,1.88,11.1,4T429.28,226.12Z"/><path class="cls-1" d="M430.2,243.9q5.71,2.31,11.41,4.78T453,253.76l-1.5-17q-5.53-2.53-11.07-4.94c-3.7-1.6-7.39-3.16-11.09-4.65s-7.41-2.95-11.11-4.33-7.41-2.7-11.11-4l.22,16.5q5.73,1.93,11.44,4.06C422.59,240.88,426.4,242.37,430.2,243.9Z"/><path class="cls-1" d="M182.72,502.69q-6.78,3.29-13.44,7t-13.18,7.88q-6.53,4.15-12.93,8.75l-11.08,38.15q6.66-4.77,13.47-9.09t13.74-8.19q6.94-3.87,14-7.28t14.29-6.38l8.81-37Q189.51,499.4,182.72,502.69Z"/><path class="cls-1" d="M390.1,492.28q-8.28-2.34-16.55-4.34T357,484.31q-8.28-1.63-16.54-2.89l-2.56,36.38q8.63,1.31,17.26,3t17.27,3.78q8.63,2.07,17.27,4.5T407,534.27l-.33-37Q398.38,494.62,390.1,492.28Z"/><path class="cls-1" d="M254.6,480.57q-4.6.68-9.21,1.53T236.2,484q-4.59,1-9.16,2.24-3.43.91-6.83,1.92t-6.77,2.11q-3.37,1.11-6.71,2.31c-2.23.81-4.45,1.64-6.65,2.51L191.42,532c2.3-.9,4.62-1.77,6.94-2.6s4.66-1.64,7-2.4,4.7-1.5,7.06-2.2,4.74-1.36,7.13-2c3.18-.85,6.37-1.62,9.56-2.34s6.39-1.37,9.58-2,6.41-1.12,9.62-1.59,6.41-.88,9.63-1.24l5.89-36.3Q259.21,479.89,254.6,480.57Z"/><path class="cls-1" d="M328.59,444q-5.1-.54-10.2-.91c-3.4-.24-6.79-.43-10.19-.55s-6.78-.19-10.17-.19q-3,0-6,.07t-6,.2c-2,.09-4,.21-6,.34s-4,.3-6,.49l-5.2,33.18c2.08-.2,4.16-.36,6.24-.51s4.16-.26,6.24-.35,4.17-.16,6.26-.21,4.17-.07,6.26-.07c3.53,0,7.06.07,10.59.19s7.07.33,10.61.58,7.08.57,10.62.95,7.09.8,10.64,1.29l2.51-33.25Q333.68,444.54,328.59,444Z"/><path class="cls-1" d="M314.8,478.54c-3.55-.25-7.09-.45-10.64-.58s-7.08-.19-10.62-.19q-3.15,0-6.28.07t-6.27.21q-3.14.13-6.26.35c-2.09.15-4.17.32-6.26.51l-5.69,36.28c2.18-.2,4.35-.37,6.53-.52s4.35-.27,6.54-.37,4.36-.17,6.54-.22,4.37-.07,6.55-.07q5.54,0,11.09.2t11.1.6q5.55.41,11.11,1t11.13,1.35l2.75-36.36c-3.56-.49-7.11-.93-10.67-1.3S318.35,478.8,314.8,478.54Z"/><path class="cls-1" d="M670.11,402.25l-4.72-1.74c-1.58-.59-3.15-1.19-4.73-1.81l8.18,23.56h0c1.62.63,3.25,1.25,4.87,1.86s3.25,1.2,4.87,1.78,3.24,1.15,4.86,1.7,3.24,1.09,4.85,1.61l-8.76-23.74c-1.57-.51-3.13-1-4.7-1.57S671.68,402.81,670.11,402.25Z"/><path class="cls-1" d="M417.65,205.15q5.39,2,10.76,4.2t10.75,4.52q5.37,2.32,10.74,4.8l-1.34-15.1q-5.22-2.41-10.45-4.69t-10.47-4.4q-5.24-2.13-10.48-4.1t-10.49-3.75l.2,14.67Q412.26,203.13,417.65,205.15Z"/><path class="cls-1" d="M461.62,208.85q5.19,2.53,10.38,5.17t10.35,5.34q5.16,2.71,10.32,5.48L490.28,210q-5-2.7-10.06-5.34t-10.09-5.21q-5.06-2.57-10.11-5.05t-10.14-4.85l1.34,14.31Q456.42,206.31,461.62,208.85Z"/><path class="cls-1" d="M465.33,242.3c3.66,1.78,7.33,3.61,11,5.46s7.31,3.73,11,5.64,7.29,3.83,10.93,5.77l-2.68-16.6q-5.31-2.85-10.63-5.63t-10.67-5.5q-5.34-2.7-10.7-5.32T452.81,221l1.5,16Q459.82,239.61,465.33,242.3Z"/><path class="cls-1" d="M417.13,189.44q5.24,2,10.46,4.09t10.45,4.4q5.22,2.26,10.43,4.67l-1.26-14.27Q442.13,186,437,183.76t-10.18-4.29q-5.1-2.07-10.19-4t-10.21-3.65l.2,13.87Q411.9,187.47,417.13,189.44Z"/><path class="cls-1" d="M463.42,225.09c3.56,1.73,7.12,3.51,10.68,5.31s7.1,3.63,10.64,5.49,7.08,3.72,10.62,5.62l-2.53-15.67q-5.16-2.78-10.34-5.48T472.12,215q-5.19-2.64-10.39-5.19t-10.42-5L452.72,220Q458.08,222.47,463.42,225.09Z"/><path class="cls-1" d="M274.88,411.31q-4.25.48-8.48,1.11c-2.83.41-5.65.89-8.46,1.41s-5.63,1.11-8.44,1.75-5.62,1.32-8.42,2.07c-2.1.56-4.2,1.15-6.28,1.78s-4.15,1.27-6.22,1.95-4.12,1.4-6.17,2.14-4.08,1.52-6.11,2.32l-7.27,31q3.16-1.25,6.36-2.4t6.41-2.22c2.14-.71,4.3-1.38,6.46-2s4.34-1.25,6.53-1.84q4.36-1.15,8.75-2.15c2.92-.66,5.85-1.26,8.77-1.8s5.87-1,8.8-1.47,5.88-.82,8.82-1.14Z"/><path class="cls-1" d="M286.32,440.53c2-.09,4-.16,6-.2s4-.07,6-.07q5.07,0,10.14.19c3.39.12,6.77.31,10.16.55s6.78.55,10.17.91,6.79.78,10.19,1.25l2.3-30.54c-3.26-.45-6.53-.86-9.79-1.2s-6.52-.64-9.78-.88-6.52-.41-9.77-.53-6.51-.19-9.76-.19c-1.92,0-3.84,0-5.76.07s-3.84.11-5.76.19-3.84.2-5.75.33-3.83.29-5.75.47l-4.78,30.47q3-.27,6-.48C282.33,440.74,284.32,440.62,286.32,440.53Z"/><path class="cls-1" d="M373.62,485.64q8.25,2,16.5,4.32t16.5,5l-.3-33.85q-7.9-2.54-15.83-4.78t-15.85-4.17q-7.92-1.92-15.84-3.5T343,445.86l-2.34,33.27q8.24,1.25,16.49,2.88T373.62,485.64Z"/><path class="cls-1" d="M471.79,300.62q6,2.92,12.06,6t12,6.15q6,3.12,12,6.3l-3.22-19.94Q498.85,296,493,293t-11.68-6q-5.83-3-11.7-5.8t-11.74-5.57l1.8,19.27Q465.76,297.7,471.79,300.62Z"/><path class="cls-1" d="M476.86,346.29q6.45,3.12,12.9,6.35t12.86,6.55q6.42,3.31,12.82,6.7l-3.68-22.76q-6.19-3.28-12.41-6.51t-12.46-6.36q-6.24-3.12-12.49-6.15t-12.53-5.93l2.06,22Q470.4,343.18,476.86,346.29Z"/><path class="cls-1" d="M482.68,398.81q6.94,3.33,13.86,6.79t13.82,7q6.9,3.56,13.77,7.17l-4.23-26.23q-6.64-3.51-13.31-6.95t-13.35-6.78q-6.69-3.33-13.4-6.57t-13.42-6.32l2.36,25.38Q475.74,395.47,482.68,398.81Z"/><path class="cls-1" d="M479.66,371.61q6.69,3.22,13.37,6.56t13.32,6.76q6.64,3.44,13.28,6.93l-3.94-24.42q-6.42-3.39-12.85-6.72T490,354.16q-6.45-3.23-12.92-6.36t-13-6.11l2.21,23.61Q473,368.39,479.66,371.61Z"/><path class="cls-1" d="M467.35,260.55q5.67,2.76,11.33,5.62T490,272c3.76,1.95,7.52,3.94,11.26,5.94l-2.84-17.61q-5.46-2.93-10.95-5.79t-11-5.65q-5.5-2.78-11-5.47t-11-5.26l1.59,17Q461.67,257.78,467.35,260.55Z"/><path class="cls-1" d="M485.93,428.13q7.21,3.45,14.4,7t14.35,7.25q7.17,3.68,14.3,7.43l-4.56-28.28q-6.88-3.63-13.8-7.18t-13.85-7q-6.94-3.47-13.9-6.8T468.94,394l2.55,27.35Q478.72,424.67,485.93,428.13Z"/><path class="cls-1" d="M469.5,280q5.85,2.83,11.68,5.79t11.65,6q5.82,3,11.62,6.11l-3-18.72q-5.64-3-11.28-6t-11.32-5.81q-5.67-2.86-11.35-5.63T456.1,256.3l1.69,18.09Q463.66,277.11,469.5,280Z"/><path class="cls-1" d="M474.24,322.69q6.24,3,12.47,6.15t12.43,6.34q6.19,3.22,12.39,6.5l-3.44-21.28q-6-3.18-12-6.31T484,307.93q-6-3-12.09-6t-12.11-5.74l1.91,20.57Q468,319.67,474.24,322.69Z"/><path class="cls-1" d="M213.94,488c2.24-.73,4.5-1.44,6.76-2.11s4.53-1.3,6.81-1.91c3-.81,6.09-1.55,9.14-2.24s6.1-1.31,9.16-1.88,6.12-1.07,9.18-1.53,6.14-.84,9.21-1.18l5.39-33.2q-4.43.5-8.84,1.14t-8.82,1.48q-4.41.81-8.8,1.81t-8.77,2.15c-2.19.59-4.37,1.2-6.55,1.85s-4.33,1.32-6.48,2-4.29,1.45-6.43,2.22-4.25,1.57-6.37,2.41l-7.91,33.77q3.3-1.31,6.63-2.5T213.94,488Z"/><path class="cls-1" d="M144.17,355q3.9-6.1,7.87-11.88t8-11.25q4.05-5.46,8.18-10.6t8.34-10L183,292.26q-4.09,4.69-8.11,9.7t-8,10.32q-3.93,5.31-7.8,10.94t-7.65,11.57Z"/><path class="cls-1" d="M117.74,428.6q4.28-6.69,8.65-13t8.82-12.32q4.47-6,9-11.62t9.18-10.92l7.76-23.2q-4.5,5.13-8.91,10.6t-8.73,11.29q-4.32,5.8-8.56,12T126.58,404Z"/><path class="cls-1" d="M151.92,333.5q3.78-5.92,7.63-11.55T167.34,311q3.93-5.31,7.94-10.31c2.68-3.33,5.37-6.56,8.1-9.68l6-18q-4,4.56-7.88,9.43t-7.72,10q-3.84,5.16-7.58,10.64t-7.44,11.25Z"/><path class="cls-1" d="M379.62,288.17q-6.3-1.55-12.62-2.83t-12.61-2.25L352.92,304q6.51,1,13,2.32t13,2.92q6.52,1.61,13,3.48t13,4l-.19-21.32q-6.31-2.06-12.62-3.88T379.62,288.17Z"/><path class="cls-1" d="M127.14,402.45q4.14-6.48,8.37-12.62t8.54-11.94q4.32-5.81,8.71-11.26t8.89-10.58l7.25-21.69q-4.35,5-8.62,10.28t-8.46,10.94q-4.19,5.64-8.29,11.61t-8.13,12.26Z"/><path class="cls-1" d="M489.45,459.84q7.5,3.57,15,7.28t14.93,7.52q7.46,3.81,14.88,7.7l-4.93-30.58Q522.13,448,515,444.32t-14.39-7.26q-7.2-3.58-14.43-7.05t-14.47-6.77l2.76,29.59Q481.95,456.25,489.45,459.84Z"/><path class="cls-1" d="M169.9,507.34q6.65-3.72,13.41-7T197,494.23L205,460.4q-6.61,2.75-13.12,5.9T179,473q-6.37,3.57-12.63,7.57T154,489l-10.14,34.9q6.39-4.59,12.89-8.73T169.9,507.34Z"/><path class="cls-1" d="M172.55,276.07q3.48-5.47,7-10.65t7.15-10.07q3.61-4.89,7.3-9.49t7.43-8.92l5-15.11q-3.66,4.21-7.25,8.71t-7.11,9.26c-2.35,3.19-4.67,6.46-7,9.84s-4.59,6.83-6.85,10.39Z"/><path class="cls-1" d="M166.07,294.11q3.57-5.61,7.22-10.93t7.35-10.34q3.72-5,7.5-9.75t7.64-9.16l5.34-16q-3.75,4.32-7.44,8.93t-7.31,9.51q-3.62,4.91-7.17,10.09t-7,10.66Z"/><path class="cls-1" d="M159.2,313.23q3.68-5.76,7.42-11.23t7.57-10.62q3.81-5.17,7.71-10t7.86-9.42L195.42,255c-2.57,3-5.13,6-7.65,9.17s-5,6.41-7.52,9.77-4.93,6.8-7.36,10.35-4.85,7.2-7.23,10.95Z"/><path class="cls-1" d="M44.12,633.44q5.34-8.25,10.79-16.07t11-15.23q5.57-7.39,11.26-14.37t11.51-13.51L101,537.54q-5.6,6.32-11.07,13T79.07,564.43q-5.35,7.14-10.61,14.69T58.07,594.63Z"/><path class="cls-1" d="M59,592.18q5.13-7.95,10.36-15.47T79.9,562.06q5.35-7.12,10.81-13.83t11-13L113,501.48q-5.39,6.07-10.64,12.55T92,527.39q-5.16,6.87-10.21,14.15t-10,14.94Z"/><path class="cls-1" d="M115.65,546.87q6.09-5.57,12.31-10.69t12.56-9.82l10.27-35q-6.09,4.53-12.07,9.47t-11.83,10.3q-5.86,5.36-11.6,11.14t-11.36,12L91.78,570.84q5.84-6.42,11.81-12.41T115.65,546.87Z"/><path class="cls-1" d="M85.19,519.17q4.75-7.38,9.6-14.38t9.8-13.62q5-6.63,10-12.86t10.22-12.08l9.63-28.8q-5,5.65-9.88,11.69t-9.67,12.44q-4.79,6.4-9.47,13.19t-9.28,13.93Z"/><path class="cls-1" d="M72.59,554.22q4.93-7.65,10-14.91t10.18-14.12q5.15-6.86,10.39-13.32t10.62-12.52l10.41-31.15q-5.18,5.87-10.24,12.11t-10,12.88q-5,6.63-9.83,13.65t-9.62,14.42Z"/><path class="cls-1" d="M96.84,486.75q4.59-7.14,9.26-13.9t9.46-13.16q4.77-6.4,9.65-12.41t9.85-11.67L144,408.88q-4.81,5.46-9.53,11.3t-9.33,12Q120.51,438.41,116,445t-9,13.48Z"/><path class="cls-1" d="M107.66,456.64q4.43-6.9,9-13.45t9.12-12.72q4.62-6.18,9.32-12t9.51-11.28l8.31-24.88q-4.63,5.29-9.2,10.94t-9,11.65q-4.47,6-8.85,12.34t-8.66,13Z"/><path class="cls-1" d="M135.93,378q4-6.29,8.12-12.24t8.27-11.58q4.19-5.62,8.44-10.92T169.37,333l6.79-20.32q-4.22,4.83-8.36,10t-8.2,10.62q-4,5.47-8,11.27t-7.88,11.9Z"/><path class="cls-1" d="M595.28,201.68c1.16.45,2.32.88,3.49,1.31l3.48,1.24,3.47,1.18-4.51-12.24c-3.73-1.27-8-2.72-13.64-5l4.21,12.13C593,200.79,594.11,201.24,595.28,201.68Z"/><path class="cls-1" d="M564.53,188.09q4.22,2.08,8.41,4t8.36,3.79c2.77,1.22,5.54,2.4,8.3,3.52l-4.16-12.11q-4.05-1.65-8.13-3.45c-2.71-1.19-5.44-2.43-8.17-3.71s-5.48-2.6-8.23-4-5.52-2.76-8.29-4.19l3.44,11.79Q560.31,186,564.53,188.09Z"/><path class="cls-1" d="M527.87,168.64c2.93,1.63,5.83,3.23,8.73,4.82s5.77,3.15,8.64,4.68,5.73,3,8.57,4.52l-3.38-11.76q-4.18-2.18-8.39-4.43t-8.45-4.58q-4.25-2.32-8.54-4.72l-8.62-4.82,2.63,11.37C522,165.37,525,167,527.87,168.64Z"/><path class="cls-1" d="M599.06,203.81c-1.16-.43-2.33-.86-3.49-1.31s-2.34-.9-3.5-1.36l4.41,12.71c4,1.56,8.6,3.33,14.28,5.2L606,206.23c-1.16-.38-2.32-.78-3.48-1.18S600.22,204.23,599.06,203.81Z"/><path class="cls-1" d="M614.46,246.81c-1.26-.46-2.51-.92-3.76-1.4s-2.51-1-3.77-1.46l5.13,14.77c1.29.51,2.57,1,3.86,1.5s2.57,1,3.85,1.43,2.56.92,3.85,1.36,2.55.88,3.83,1.3L622,249.41c-1.25-.41-2.5-.83-3.75-1.27S615.71,247.26,614.46,246.81Z"/><path class="cls-1" d="M603.94,217.44c-1.19-.44-2.38-.88-3.58-1.34s-2.39-.92-3.58-1.39l4.63,13.35h0c1.23.48,2.45,1,3.67,1.42s2.44.92,3.66,1.37l3.66,1.3c1.21.42,2.43.83,3.64,1.23l-5-13.46c-1.19-.39-2.38-.8-3.57-1.21S605.13,217.87,603.94,217.44Z"/><path class="cls-1" d="M489.11,147l7.53,4.18c2.5,1.39,5,2.79,7.51,4.2l7.48,4.2,1.27.71,1.28.72,1.27.71,1.27.72-2.58-11.34-1.24-.7-1.24-.7-1.25-.7-1.25-.71-7.32-4.11L494.5,140,487.13,136q-3.69-2-7.39-4l1.81,10.94Z"/><path class="cls-1" d="M609.07,231.76c-1.22-.44-2.44-.9-3.67-1.37s-2.45-.94-3.67-1.42l4.87,14c1.26.5,2.51,1,3.76,1.46s2.51.94,3.76,1.4,2.5.9,3.74,1.33l3.74,1.26-5.22-14.15c-1.21-.4-2.43-.81-3.65-1.24S610.29,232.2,609.07,231.76Z"/><path class="cls-1" d="M461.61,133q-4.44-2.28-8.9-4.47t-8.92-4.3l1,11q4.56,2.15,9.12,4.39t9.11,4.57q4.54,2.33,9.08,4.72t9.06,4.84l-1.84-11.44q-4.43-2.38-8.86-4.73T461.61,133Z"/><path class="cls-1" d="M620.13,262.65c-1.29-.47-2.57-.94-3.86-1.43l-3.87-1.5,5.41,15.57,4,1.54c1.32.5,2.64,1,4,1.46s2.63.95,3.95,1.4,2.63.9,3.94,1.33l-5.8-15.7L624,264C622.7,263.57,621.41,263.12,620.13,262.65Z"/><path class="cls-1" d="M378.2,334.89q-6.76-1.67-13.53-3c-4.52-.91-9-1.71-13.53-2.4l-1.7,24.15q7,1.08,14,2.48t14,3.13q7,1.71,14,3.72t14,4.28l-.22-24.59c-4.51-1.46-9-2.85-13.53-4.14S382.72,336,378.2,334.89Z"/><path class="cls-1" d="M378.94,310.7q-6.54-1.6-13.06-2.92t-13.06-2.32l-1.57,22.47q6.74,1,13.49,2.39t13.51,3q6.75,1.67,13.51,3.6t13.51,4.13l-.2-22.87q-6.52-2.13-13.06-4T378.94,310.7Z"/><path class="cls-1" d="M414.54,111q4.47,1.7,8.95,3.53t8.95,3.8q4.47,2,8.93,4l-.93-10.5q-4.37-2-8.73-3.95T423,104.21q-4.38-1.8-8.76-3.45c-2.92-1.11-5.85-2.16-8.77-3.16l.14,10.2Q410.06,109.33,414.54,111Z"/><path class="cls-1" d="M423.53,115.25q-4.48-1.84-9-3.53t-9-3.24l.15,10.7c3.06,1,6.13,2.15,9.19,3.3s6.11,2.36,9.17,3.61,6.11,2.55,9.17,3.89,6.1,2.71,9.15,4.13l-1-11c-3-1.38-6-2.73-8.94-4S426.52,116.47,423.53,115.25Z"/><path class="cls-1" d="M452.63,127.77c3,1.46,5.93,3,8.89,4.47s5.91,3,8.87,4.61,5.9,3.14,8.84,4.73l-1.76-10.91q-4.32-2.34-8.65-4.63t-8.67-4.51q-4.35-2.22-8.7-4.38t-8.71-4.2l1,10.53Q448.17,125.58,452.63,127.77Z"/><path class="cls-1" d="M424.13,126.82q-4.59-1.87-9.19-3.61t-9.2-3.31l.16,11.23q4.71,1.62,9.41,3.39t9.41,3.69q4.69,1.92,9.4,4t9.38,4.23l-1-11.57q-4.59-2.13-9.17-4.14T424.13,126.82Z"/><path class="cls-1" d="M626.11,279.36l-4-1.47-4-1.53,5.71,16.43c1.36.54,2.71,1.06,4.07,1.58l4.06,1.5,4.06,1.44c1.35.46,2.7.92,4,1.36L634,282.09c-1.31-.43-2.63-.87-3.94-1.33S627.43,279.84,626.11,279.36Z"/><path class="cls-1" d="M722.32,548.05c-1.87-.66-3.75-1.34-5.62-2s-3.76-1.4-5.63-2.12l11.71,33.73q2.91,1.13,5.84,2.2t5.83,2.1q2.91,1,5.81,2c1.94.66,3.88,1.29,5.81,1.91l-12.54-34c-1.87-.6-3.73-1.21-5.6-1.84S724.19,548.71,722.32,548.05Z"/><path class="cls-1" d="M699.2,483.47q-2.61-.93-5.23-1.9t-5.23-2l10.06,29c1.81.7,3.61,1.39,5.41,2.05s3.61,1.33,5.41,2,3.59,1.26,5.39,1.87,3.59,1.2,5.38,1.77L709.61,487q-2.6-.84-5.2-1.72C702.67,484.7,700.94,484.09,699.2,483.47Z"/><path class="cls-1" d="M710.33,514.56c-1.81-.64-3.61-1.29-5.42-2s-3.61-1.36-5.42-2.06l10.83,31.21c1.88.73,3.75,1.43,5.62,2.13s3.74,1.36,5.61,2,3.73,1.3,5.6,1.93,3.72,1.24,5.59,1.84l-11.61-31.46q-2.7-.87-5.4-1.78T710.33,514.56Z"/><path class="cls-1" d="M701.46,637.35q7.65,3.63,15.27,7T731.89,651q7.56,3.19,15.07,6.12l-13.63-39.65q-7.23-2.82-14.49-5.9t-14.58-6.38q-7.31-3.3-14.68-6.81t-14.79-7.19l11.28,38.69Q693.8,633.72,701.46,637.35Z"/><path class="cls-1" d="M735.28,584.24q-2.92-1-5.85-2.11t-5.85-2.2l12.68,36.52c2,.78,4,1.54,6.08,2.28s4,1.47,6.07,2.18,4,1.41,6.06,2.08,4,1.34,6,2l-13.58-36.81q-2.91-.93-5.82-1.91C739.17,585.59,737.22,584.92,735.28,584.24Z"/><path class="cls-1" d="M634.84,603.37q8,4.26,15.87,8.42T666.43,620q7.82,4,15.56,7.89l-11.11-38.62q-7.46-3.72-15-7.61t-15.1-7.89q-7.59-4-15.26-8.13t-15.43-8.32l8.67,37.45Q626.85,599.1,634.84,603.37Z"/><path class="cls-1" d="M557.22,526.69q6.6,3.51,13.17,7t13.13,7.09l13.08,7.08,2.23,1.21,2.23,1.21,2.22,1.2,2.22,1.2-7.82-34.35-2.13-1.16-2.14-1.16-2.14-1.17-2.15-1.16-12.59-6.85q-6.3-3.42-12.63-6.83t-12.68-6.81q-6.36-3.39-12.73-6.75L544,519.7Q550.62,523.18,557.22,526.69Z"/><path class="cls-1" d="M564.16,565.38q6.89,3.64,13.75,7.33l13.7,7.36,13.64,7.37,2.33,1.26L609.9,590l2.32,1.25,2.31,1.25L606,555.09l-2.22-1.2-2.23-1.21-2.23-1.21-2.23-1.21L584,543.15l-13.16-7.1q-6.6-3.54-13.21-7.06t-13.26-7l6,36.13Q557.26,561.72,564.16,565.38Z"/><path class="cls-1" d="M178.69,259q3.39-5.33,6.84-10.38t7-9.81q3.52-4.77,7.1-9.25t7.24-8.69l4.78-14.31q-3.56,4.11-7.06,8.49t-6.93,9q-3.44,4.65-6.8,9.58t-6.68,10.14Z"/><path class="cls-1" d="M646.17,335.37c-1.44-.52-2.87-1.05-4.31-1.59s-2.88-1.09-4.32-1.66l6.78,19.52q2.22.87,4.44,1.7c1.48.56,3,1.1,4.43,1.64s2.95,1,4.42,1.55,2.94,1,4.41,1.48l-7.26-19.68q-2.14-.7-4.29-1.44C649,336.4,647.6,335.89,646.17,335.37Z"/><path class="cls-1" d="M639.1,315.63c-1.4-.51-2.79-1-4.19-1.55s-2.79-1.07-4.19-1.62l6.39,18.41c1.44.57,2.87,1.12,4.31,1.66s2.87,1.07,4.3,1.59,2.86,1,4.29,1.51,2.86,1,4.29,1.44l-6.85-18.57c-1.39-.45-2.78-.92-4.17-1.4S640.49,316.13,639.1,315.63Z"/><path class="cls-1" d="M632.42,297c-1.35-.49-2.71-1-4.07-1.51s-2.71-1-4.08-1.57l6,17.38,4.19,1.61c1.39.53,2.78,1,4.17,1.54s2.79,1,4.18,1.48,2.77.94,4.16,1.4l-6.47-17.53c-1.35-.44-2.7-.9-4-1.36S633.78,297.48,632.42,297Z"/><path class="cls-1" d="M653.66,356.31l-4.44-1.64q-2.22-.84-4.44-1.71L652,373.7c1.53.6,3,1.18,4.57,1.76l4.57,1.68c1.52.54,3,1.08,4.56,1.6s3,1,4.55,1.52l-7.71-20.91c-1.48-.48-2.95-1-4.43-1.49S655.14,356.84,653.66,356.31Z"/><path class="cls-1" d="M688.83,454.52q-2.52-.9-5.05-1.85c-1.68-.62-3.37-1.26-5-1.92l9.37,27q2.61,1,5.22,2c1.74.64,3.48,1.28,5.21,1.9s3.47,1.22,5.21,1.8,3.46,1.17,5.19,1.72l-10-27.21q-2.5-.81-5-1.67T688.83,454.52Z"/><path class="cls-1" d="M679.16,427.51c-1.63-.58-3.25-1.18-4.88-1.79l-4.89-1.86L678.13,449l5,1.92c1.68.62,3.36,1.24,5,1.83s3.35,1.19,5,1.76,3.34,1.12,5,1.66l-9.36-25.38q-2.43-.79-4.86-1.62T679.16,427.51Z"/><path class="cls-1" d="M493.26,494.21q7.82,3.71,15.6,7.56t15.56,7.81q7.76,3.95,15.5,8l-5.35-33.14q-7.44-3.89-14.92-7.71t-15-7.54q-7.5-3.71-15-7.3t-15.05-7l3,32.07Q485.44,490.49,493.26,494.21Z"/></svg>