<?xml version="1.0" encoding="UTF-8"?>
<svg id="b" data-name="Layer 2" xmlns="http://www.w3.org/2000/svg" width="47.714" height="48.412" viewBox="0 0 47.714 48.412">
  <g id="c" data-name="Layer 1">
    <path d="M26.847,14.306c.168-.002,.237-.076,.302-.144,.626-.65,1.44-1.003,2.23-1.383,.782-.376,1.081-1.073,.743-1.884-.045-.108-.097-.214-.136-.324-.365-1.023,.468-2.009,1.546-1.83,.454,.075,.811,.482,.837,.997,.025,.507,.021,1.016,.027,1.524,.004,.425-.146,.807-.361,1.163-.306,.508-.5,1.06-.675,1.62-.084,.269-.141,.557,.042,.79,.351,.447,.267,.913,.132,1.395-.076,.273-.219,.536-.169,.873,.578-.214,1.043-.539,1.508-.855,.696-.472,1.38-.961,2.027-1.502,.376-.314,.778-.594,1.229-.792,.27-.119,.555-.197,.853-.191,.222,.004,.437,.055,.543,.28,.106,.226,.019,.426-.142,.587-.303,.305-.589,.639-.936,.885-.463,.328-.66,.687-.444,1.244,.115,.296,.009,.577-.183,.822-.281,.359-.633,.628-1.018,.872-.71,.449-1.146,1.159-1.622,1.822-.148,.206-.003,.386,.264,.333,.444-.088,.877-.217,1.131-.65,.089-.152,.188-.298,.291-.441,.167-.233,.388-.381,.677-.421,.484-.068,.967-.137,1.45-.209,.262-.039,.526-.008,.736,.136,.868,.594,1.825,.479,2.781,.381,.904-.093,1.76-.35,2.57-.766,.799-.41,1.648-.623,2.549-.542,.369,.033,.833-.043,.968,.467,.087,.329-.198,.593-.812,.762-.98,.27-1.957,.555-2.961,.722-.521,.087-.961,.293-1.292,.727-.84,1.098-1.979,1.592-3.336,1.458-.572-.056-.679,.275-.879,.637-.206,.373-.146,.668,.138,.95,.312,.31,.48,.737,.923,.954,.305,.149,.577,.233,.889,.141,.806-.238,1.645-.338,2.45-.562,.799-.223,1.614-.297,2.428-.388,.544-.061,1.05,.069,1.438,.504,.452,.507,.397,1.058-.163,1.452-.326,.23-.693,.359-1.094,.382-.392,.023-.781-.01-1.168-.076-1.04-.177-2.077-.375-3.142-.172-.404,.077-.826,.047-1.228-.027-.622-.115-1.248-.059-1.87-.107-.26-.02-.506,.028-.747,.119-.459,.173-.503,.33-.186,.723,.289,.357,.65,.65,1.086,.772,.863,.242,1.724,.522,2.64,.49,.821-.028,1.643-.051,2.463-.086,.495-.021,.962,.093,1.443,.197,1.163,.253,2.28,.692,3.471,.823,.571,.063,.791,.535,.486,1.021-.071,.113-.17,.222-.281,.293-.983,.626-2.035,1.004-3.222,.798-.328-.057-.672-.059-.982-.15-.979-.288-1.896,.035-2.826,.222-.342,.069-.685,.181-1,.331-.788,.376-.877,1.423-.152,1.914,.461,.312,.852,.684,1.209,1.101,.104,.121,.209,.227,.367,.277,.749,.239,1.347,.698,1.82,1.313,.145,.188,.315,.222,.511,.204,.865-.078,1.545,.326,2.195,.817,.431,.325,.566,.669,.43,1.114-.129,.422-.467,.639-1.009,.622-.716-.022-1.352-.222-1.766-.863-.147-.228-.356-.352-.613-.418-.381-.098-.684-.298-.805-.694-.062-.2-.212-.269-.388-.313-.209-.051-.417-.107-.629-.14-.538-.085-1.002-.304-1.395-.689-.37-.361-.854-.55-1.309-.767-.377-.179-.593-.022-.634,.39-.021,.214-.008,.43-.022,.645-.061,.884-.813,1.379-1.656,1.094-.13-.044-.258-.091-.389-.132-.42-.132-.45-.109-.459,.353-.004,.216-.01,.436,.075,.637,.296,.702,.596,1.402,.907,2.097,.104,.232,.235,.458,.425,.629,.689,.622,1.161,1.422,1.749,2.127,.281,.337,.462,.726,.399,1.189-.071,.521-.378,.711-.869,.536-.248-.088-.446-.245-.604-.449-.227-.294-.478-.577-.658-.899-.816-1.458-1.911-2.718-2.857-4.083-.111-.16-.247-.305-.388-.439-.561-.532-.992-1.152-1.329-1.847-.236-.486-.491-.969-1.003-1.348-.093,.454,.005,.814,.167,1.165,.249,.541,.622,.994,1.023,1.424,.702,.752,.931,1.655,.869,2.652-.021,.334-.087,.659-.269,.95-.402,.647-1.094,.835-1.774,.496-1.312-.655-2.248-1.67-2.846-2.995-.335-.74-.698-1.447-1.41-1.902-.08-.051-.151-.125-.306-.097-.121,1.222-.311,2.431,.224,3.652,.446,1.017,.875,2.05,1.204,3.117,.169,.549,.257,1.105,.168,1.678-.067,.432-.245,.787-.698,.925-.395,.12-.794-.046-1.105-.478-.441-.612-.722-1.303-.873-2.035-.126-.611-.376-1.145-.769-1.624-.161-.196-.298-.412-.436-.625-.34-.521-.517-1.082-.498-1.716,.027-.899,.021-1.8,.008-2.7-.01-.701-.111-.878-.645-1.266-.048,.339-.084,.657-.14,.971-.113,.64-.313,1.251-.649,1.812-.152,.254-.332,.486-.581,.652-.502,.335-.993,.171-1.126-.413-.152-.666-.253-1.345-.364-2.02-.044-.266-.076-.531-.203-.846-.401,.339-.455,.753-.464,1.178-.02,.9-.037,1.8-.04,2.699-.002,.589-.058,1.17-.175,1.748-.093,.46-.15,.929-.092,1.4,.083,.685,.049,1.366-.047,2.047-.101,.716-.174,1.437-.285,2.152-.06,.383-.117,.813-.585,.928-.46,.113-.78-.162-1.061-.481-.21-.238-.371-.508-.452-.814-.225-.853-.409-1.711-.383-2.602,.054-1.886-.143-3.75-.543-5.591-.138-.634-.147-1.246,.118-1.838,.265-.593-.098-.959-.433-1.347-.342-.397-.785-.24-1.147-.127-.359,.113-.571,.504-.628,.866-.136,.878-.633,1.632-.783,2.509-.106,.623-.601,1.04-1.091,1.409-.278,.209-.596,.178-.86-.054-.272-.24-.459-.534-.483-.909-.046-.742-.086-1.484-.135-2.226-.028-.418,.098-.778,.406-1.057,.32-.289,.478-.653,.591-1.057,.168-.604,.325-1.207,.365-1.837,.029-.449,.11-.892,.22-1.33,.038-.151,.076-.305,.089-.46,.049-.562-.049-.598-.605-.537-1.012,.111-1.58,.852-2.071,1.553-.662,.946-1.537,1.469-2.568,1.835-.225,.08-.458,.106-.693,.108-.75,.004-1.108-.485-.872-1.205,.066-.202,.168-.396,.276-.581,.341-.582,.795-1.065,1.351-1.447,.447-.307,.793-.672,.945-1.221,.131-.475,.492-.787,.926-1.01,.278-.143,.551-.297,.834-.431,.337-.16,.327-.451,.311-.751-.015-.286-.211-.39-.45-.468-.312-.102-.615-.101-.916,.027-.252,.108-.499,.225-.752,.329-.236,.097-.476,.173-.739,.163-.314-.012-.582-.102-.725-.404-.137-.291-.106-.58,.092-.829,.474-.594,.847-1.273,1.47-1.744,.188-.142,.336-.328,.42-.555,.15-.405,.038-.732-.329-.953-.893-.539-1.348-.68-2.422-.746-.077-.005-.166-.016-.232,.014-.897,.413-1.967,.363-2.763,1.061-.383,.336-.855,.457-1.373,.314-.47-.13-.656-.358-.602-.85,.03-.269,.111-.535,.188-.797,.049-.168,.124-.33,.204-.486,.43-.838,.707-1.695,.405-2.647-.058-.184-.066-.385-.085-.58-.07-.733,.184-1.193,.856-1.508,.676-.317,1.364-.47,2.089-.125,.541,.257,1.139,.274,1.72,.332,.546,.054,1.018,.25,1.454,.568,.427,.311,.86,.613,1.296,.91,.106,.072,.198,.193,.434,.146-.331-.391-.617-.771-.946-1.111-.614-.636-1.158-1.325-1.668-2.044-.285-.402-.615-.755-.999-1.066-.618-.501-1.086-1.123-1.394-1.859-.13-.31-.215-.634-.134-.972,.081-.335,.277-.419,.548-.199,.355,.288,.755,.395,1.195,.408,.238,.007,.477,.047,.671,.184,.636,.45,1.324,.839,1.824,1.459,.236,.293,.509,.54,.824,.743,.53,.343,.997,.756,1.378,1.262,.168,.223,.36,.408,.638,.493,.354,.108,.577,.39,.826,.639,.387,.388,.511,.441,1.078,.469-.085-.382-.16-.753-.253-1.12-.044-.172-.205-.232-.358-.268-.506-.118-.853-.449-1.172-.833-.537-.646-1.129-1.243-1.633-1.921-.402-.54-.985-.886-1.535-1.261-.209-.143-.43-.283-.599-.467-.36-.391-.2-.982,.32-1.033,1.014-.1,2.048-.139,2.865,.661,.26,.255,.579,.378,.893,.513,.153-.165,.068-.325,.079-.47,.041-.505,.331-.842,.764-1.029,.445-.191,.844-.031,1.164,.315,.329,.355,.563,.809,1.093,1.01,.217-.284,.274-.654,.42-.98,.607-1.354,.594-2.769,.369-4.194-.122-.776-.189-1.553-.141-2.334,.019-.303-.029-.518-.266-.719-.296-.251-.516-.581-.813-.839-.294-.255-.328-.548-.137-.903,.252-.468,.581-.887,.99-1.225,.42-.348,1.016-.303,1.378,.104,.465,.523,.902,1.05,1.022,1.8,.088,.548,.13,1.052-.183,1.521-.408,.611-.345,1.244-.181,1.907,.208,.839,.547,1.63,.859,2.432,.121,.31,.228,.623,.315,.944,.11,.407,.151,.443,.623,.757,.299-.37,.521-.776,.537-1.261,.025-.779,.198-1.552,.065-2.339-.06-.357,.048-.704,.237-1.01,.352-.569,.782-1.076,1.288-1.514,.425-.369,.91-.42,1.428-.222,.376,.144,.607,.419,.696,.809,.105,.458,.21,.912,.452,1.326,.132,.226,.13,.49,.08,.745-.124,.628-.013,1.248,.074,1.866,.042,.297,.166,.567,.392,.771,.495,.444,.976,.911,1.598,1.179,1.082,.466,1.471,1.459,1.848,2.448,.119,.313,.024,.657-.068,.981-.074,.261-.158,.524-.074,.828Zm10.481,29.454c-.019-.289-.159-.491-.47-.72,.124,.358,.231,.583,.47,.72Z"/>
  </g>
</svg>