<?xml version="1.0" encoding="UTF-8"?>
<svg id="b" data-name="Layer 2" xmlns="http://www.w3.org/2000/svg" width="51.311" height="47.438" viewBox="0 0 51.311 47.438">
  <g id="c" data-name="Layer 1">
    <path d="M19.546,33.03c-.941-.675-1.957-.792-2.976-.895-2.056-.207-4.127-.293-6.158-.721-2.845-.6-5.444-1.708-7.668-3.628-.933-.805-1.668-1.756-2.303-2.8-.517-.849-.602-1.735-.132-2.599,.524-.963,1.442-1.268,2.481-1.191,1.936,.144,3.619,.965,5.225,1.995,2.047,1.313,4.102,2.613,6.167,3.897,.766,.477,1.546,.963,2.712,.912-.397-.806-1.125-.974-1.678-1.306-2.851-1.709-5.314-3.827-7.2-6.591-1.251-1.834-2.247-3.754-2.32-6.034-.025-.793-.01-1.581,.286-2.337,.624-1.6,1.972-2.034,3.341-1.019,1.031,.765,1.834,1.763,2.628,2.768,1.203,1.523,2.41,3.045,3.667,4.523,.628,.739,1.356,1.399,2.225,1.869,.223,.121,.484,.201,.693,.067,.315-.202,.252-.532,.104-.808-.543-1.016-1.08-2.037-1.667-3.027-.737-1.245-1.077-2.581-.965-4.012,.181-2.299,1.996-3.913,4.096-3.736,1.134,.096,1.926,.752,2.57,1.571,.794,1.008,1.401,2.139,1.547,3.451,.17,1.526,.762,2.94,1.174,4.4,.179,.635,.534,1.223,.827,1.824,.112,.229,.336,.386,.584,.293,.141-.053,.279-.251,.319-.408,.089-.352,.1-.722,.17-1.08,.197-1.014,.332-2.048,.629-3.032,.48-1.587,1.453-2.787,3.069-3.374,.228-.083,.441-.212,.673-.283,3.462-1.056,5.806-3.399,7.59-6.45,1.046-1.789,2.286-3.419,4.138-4.521C44.341,.188,45.327-.008,46.354,0c2.681,.022,4.24,2.192,3.376,4.741-.861,2.539-2.555,4.544-4.45,6.369-2.195,2.114-4.663,3.874-7.295,5.409-.786,.458-1.556,.945-2.217,1.584-.4,.387-.749,.799-.905,1.345-.292,1.019,.205,1.569,1.224,1.298,1.37-.364,2.459-1.297,3.709-1.908,1.915-.936,3.856-1.798,6.022-1.951,.481-.034,.976-.03,1.451,.047,3.725,.601,5.219,4.2,3.015,7.285-1.011,1.415-2.338,2.475-3.982,3.064-1.483,.532-2.959,1.054-4.548,1.292-1.237,.186-2.503,.556-3.537,1.369-1.19,.935-1.123,2.051,.246,2.69,.87,.406,1.849,.59,2.789,.833,2.075,.535,4.079,1.223,5.832,2.505,1.667,1.219,2.662,2.817,2.698,4.918,.046,2.708-1.858,5.061-4.814,5.893-3.263,.919-6.026-.033-8.222-2.52-1.119-1.268-2.034-2.717-3.032-4.091-.538-.74-1.089-1.469-1.867-1.976-.509-.332-1.05-.721-1.684-.401-.627,.316-.705,.948-.682,1.578,.033,.91,.069,1.82,.134,2.727,.061,.855,.029,1.704-.165,2.533-.342,1.459-1.69,2.68-3.023,2.797-1.283,.113-2.931-.907-3.523-2.186-.452-.977-.482-1.993-.291-3.036,.165-.896,.352-1.792,.433-2.697,.076-.85-.317-1.113-1.1-.742-.876,.414-1.694,.952-2.564,1.38-2.457,1.21-4.969,1.56-7.547,.366-.555-.257-1.063-.592-1.497-1.028-1.81-1.819-1.305-4.267,1.063-5.29,1.089-.47,2.219-.607,3.382-.609,1.155-.002,2.31,.011,3.465,0,.414-.004,.862,.054,1.299-.557Z"/>
  </g>
</svg>